<svg width="21" height="14" viewBox="0 0 21 14" fill="none" xmlns="http://www.w3.org/2000/svg">
    <path fill-rule="evenodd" clip-rule="evenodd" d="M18.668 14H2.34502C1.05802 14 0.0140152 12.955 0.0140152 11.667V3.5C0.0140152 2.601 -0.112985 0.753 0.451015 0.437C0.545015 0.8 1.50702 2.153 1.77702 2.438L8.74201 8.663C9.22602 9.176 9.87401 9.237 10.507 9.187C11.159 9.235 11.827 8.961 12.326 8.462L19.546 2.404C19.779 2.171 20.462 0.728 20.563 0.437C20.993 0.994 21 2.715 21 3.5V11.667C21 12.955 19.956 14 18.668 14ZM12.326 7.295C11.827 7.794 11.159 8.36 10.507 8.312C9.87401 8.362 9.22602 8.009 8.74202 7.496L1.77702 1.271C1.43902 0.913 1.27202 0.463 1.19202 0H10.507H20.149C20.067 0.451 19.894 0.889 19.546 1.237L12.326 7.295Z" fill="#43CB83"/>
</svg>
