<svg width="857" height="606" viewBox="0 0 857 606" fill="none" xmlns="http://www.w3.org/2000/svg">
    <path opacity="0.118536" d="M375.876 43.9641C309.92 79.632 297.844 181.324 102.54 167.448C64.496 164.744 -44.972 144.592 37.944 305.66C120.86 466.728 89.196 479.66 61.036 507.076C32.876 534.492 14 638.8 175.356 590.468C336.712 542.136 516.064 549.944 560.196 575.304C604.328 600.664 818.92 636.2 822.48 479.36C825.412 350.244 782.176 356.008 745.044 336.44C717 321.664 712.244 290.04 752.216 209.86C792.188 129.68 631.024 -94 375.876 43.9641Z" fill="#DEE4F3"/>
    <path d="M302.304 46.844C302.304 46.844 446 7.65603 520.4 114.124C594.8 220.592 785.2 232.584 855.724 141.9" stroke="#4D86C6" stroke-width="1.2" stroke-dasharray="2"/>
    <path d="M547.076 457.792C547.076 457.792 495.312 547.912 403.324 486.64C311.336 425.368 209.888 490.364 221.212 595.44" stroke="#4D86C6" stroke-width="1.2" stroke-dasharray="2"/>
    <path d="M237.264 151.22V516.144C237.264 519.9 234.22 522.944 230.464 522.944H38.272C34.5165 522.944 31.472 519.9 31.472 516.144V151.228C31.4786 148.244 33.896 145.827 36.88 145.82H231.86C234.84 145.827 237.255 148.24 237.264 151.22Z" fill="#E6E7E8"/>
    <path d="M237.264 151.228V164.612H31.4761V151.228C31.4827 148.247 33.8952 145.831 36.8761 145.82H231.86C234.842 145.831 237.255 148.247 237.264 151.228Z" fill="#9FB1CC"/>
    <rect x="31.4761" y="164.612" width="205.788" height="37.108" fill="#DEE4F3"/>
    <path d="M62.4961 201.72V521.548C62.4961 522.319 61.8711 522.944 61.1001 522.944H34.6601C32.9081 522.944 31.4601 520.512 31.4601 517.54V201.72H62.4961Z" fill="#9FB1CC"/>
    <path d="M237.264 201.108V515.532C237.264 519.288 234.22 522.332 230.464 522.332C229.693 522.332 229.068 521.707 229.068 520.936V201.108H237.264Z" fill="#DEE4F3"/>
    <rect x="229.068" y="201.72" width="8.196" height="89.124" fill="#D1D3D4"/>
    <path d="M46.984 207.6H54.984C55.9935 207.599 56.9621 207.999 57.6764 208.713C58.3906 209.426 58.792 210.395 58.792 211.404V219.488C58.7937 225.409 54.403 230.413 48.532 231.18H45.472C39.5886 230.417 35.189 225.401 35.2 219.468V219.372C35.211 212.87 40.4824 207.605 46.984 207.6Z" fill="#DEE4F3"/>
    <path opacity="0.2" d="M46.984 268.88C53.8323 268.88 59.384 263.328 59.384 256.48C59.384 249.632 53.8323 244.08 46.984 244.08C40.1357 244.08 34.584 249.632 34.584 256.48C34.584 263.328 40.1357 268.88 46.984 268.88Z" fill="#DEE4F3"/>
    <path opacity="0.2" d="M46.984 316.424C53.8323 316.424 59.384 310.872 59.384 304.024C59.384 297.176 53.8323 291.624 46.984 291.624C40.1357 291.624 34.584 297.176 34.584 304.024C34.584 310.872 40.1357 316.424 46.984 316.424Z" fill="#DEE4F3"/>
    <path opacity="0.2" d="M46.984 363.964C53.8323 363.964 59.384 358.412 59.384 351.564C59.384 344.716 53.8323 339.164 46.984 339.164C40.1357 339.164 34.584 344.716 34.584 351.564C34.584 358.412 40.1357 363.964 46.984 363.964Z" fill="#DEE4F3"/>
    <path opacity="0.2" d="M46.984 411.504C53.8323 411.504 59.384 405.952 59.384 399.104C59.384 392.256 53.8323 386.704 46.984 386.704C40.1357 386.704 34.584 392.256 34.584 399.104C34.584 405.952 40.1357 411.504 46.984 411.504Z" fill="#DEE4F3"/>
    <path opacity="0.2" d="M46.984 459.044C53.8323 459.044 59.384 453.492 59.384 446.644C59.384 439.796 53.8323 434.244 46.984 434.244C40.1357 434.244 34.584 439.796 34.584 446.644C34.584 453.492 40.1357 459.044 46.984 459.044Z" fill="#DEE4F3"/>
    <path d="M822.296 151.22V516.144C822.296 519.9 819.252 522.944 815.496 522.944H623.308C619.552 522.944 616.508 519.9 616.508 516.144V151.228C616.515 148.244 618.932 145.827 621.916 145.82H816.896C819.875 145.829 822.287 148.241 822.296 151.22Z" fill="#E6E7E8"/>
    <path d="M822.296 151.228V164.612H616.508V151.228C616.515 148.247 618.927 145.831 621.908 145.82H816.896C819.877 145.831 822.289 148.247 822.296 151.228Z" fill="#9FB1CC"/>
    <rect x="616.508" y="164.612" width="205.788" height="37.108" fill="#DEE4F3"/>
    <path d="M624.864 175.028H813.848C815.531 175.028 816.896 176.393 816.896 178.076V188.248C816.896 189.932 815.532 191.298 813.848 191.3H624.864C623.182 191.298 621.818 189.935 621.816 188.252V178.08C621.816 176.396 623.18 175.03 624.864 175.028Z" fill="#F1F2F2"/>
    <path d="M647.528 201.72V521.548C647.528 522.319 646.903 522.944 646.132 522.944H619.692C617.944 522.944 616.492 520.512 616.492 517.54V201.72H647.528Z" fill="#9FB1CC"/>
    <path d="M822.296 201.108V515.532C822.296 519.288 819.252 522.332 815.496 522.332C814.726 522.33 814.102 521.706 814.1 520.936V201.108H822.296Z" fill="#DEE4F3"/>
    <rect x="814.1" y="201.72" width="8.196" height="89.124" fill="#D1D3D4"/>
    <path d="M632.02 207.6H640.02C641.03 207.599 641.998 207.999 642.712 208.713C643.427 209.426 643.828 210.395 643.828 211.404V219.488C643.83 225.409 639.439 230.413 633.568 231.18H630.508C624.637 230.413 620.246 225.409 620.248 219.488V219.392C620.248 212.887 625.515 207.611 632.02 207.6Z" fill="#DEE4F3"/>
    <path opacity="0.2" d="M632.02 268.88C638.868 268.88 644.42 263.328 644.42 256.48C644.42 249.632 638.868 244.08 632.02 244.08C625.172 244.08 619.62 249.632 619.62 256.48C619.62 263.328 625.172 268.88 632.02 268.88Z" fill="#DEE4F3"/>
    <path opacity="0.2" d="M632.02 316.424C638.868 316.424 644.42 310.872 644.42 304.024C644.42 297.176 638.868 291.624 632.02 291.624C625.172 291.624 619.62 297.176 619.62 304.024C619.62 310.872 625.172 316.424 632.02 316.424Z" fill="#DEE4F3"/>
    <path opacity="0.2" d="M632.02 363.964C638.868 363.964 644.42 358.412 644.42 351.564C644.42 344.716 638.868 339.164 632.02 339.164C625.172 339.164 619.62 344.716 619.62 351.564C619.62 358.412 625.172 363.964 632.02 363.964Z" fill="#DEE4F3"/>
    <path opacity="0.2" d="M632.02 411.504C638.868 411.504 644.42 405.952 644.42 399.104C644.42 392.256 638.868 386.704 632.02 386.704C625.172 386.704 619.62 392.256 619.62 399.104C619.62 405.952 625.172 411.504 632.02 411.504Z" fill="#DEE4F3"/>
    <path opacity="0.2" d="M632.02 459.044C638.868 459.044 644.42 453.492 644.42 446.644C644.42 439.796 638.868 434.244 632.02 434.244C625.172 434.244 619.62 439.796 619.62 446.644C619.62 453.492 625.172 459.044 632.02 459.044Z" fill="#DEE4F3"/>
    <path opacity="0.8" d="M103.924 537.652C119.934 537.652 132.912 535.183 132.912 532.136C132.912 529.09 119.934 526.62 103.924 526.62C87.9144 526.62 74.936 529.09 74.936 532.136C74.936 535.183 87.9144 537.652 103.924 537.652Z" fill="#E6E7E8"/>
    <path opacity="0.8" d="M816.508 537.652C832.518 537.652 845.496 535.183 845.496 532.136C845.496 529.09 832.518 526.62 816.508 526.62C800.498 526.62 787.52 529.09 787.52 532.136C787.52 535.183 800.498 537.652 816.508 537.652Z" fill="#E6E7E8"/>
    <path opacity="0.8" d="M264.54 549.928C298.154 549.928 325.404 546.407 325.404 542.064C325.404 537.721 298.154 534.2 264.54 534.2C230.926 534.2 203.676 537.721 203.676 542.064C203.676 546.407 230.926 549.928 264.54 549.928Z" fill="#E6E7E8"/>
    <path opacity="0.8" d="M595.204 549.928C628.818 549.928 656.068 546.407 656.068 542.064C656.068 537.721 628.818 534.2 595.204 534.2C561.59 534.2 534.34 537.721 534.34 542.064C534.34 546.407 561.59 549.928 595.204 549.928Z" fill="#E6E7E8"/>
    <path opacity="0.8" d="M427.892 530.808C479.175 530.808 520.748 527.287 520.748 522.944C520.748 518.601 479.175 515.08 427.892 515.08C376.609 515.08 335.036 518.601 335.036 522.944C335.036 527.287 376.609 530.808 427.892 530.808Z" fill="#E6E7E8"/>
    <path opacity="0.5" d="M391.352 548.436L370.168 555.076L374.804 557.904L388.428 553.228L390.488 567.484L395.124 570.312L391.352 548.436Z" fill="#D1D8EE"/>
    <path opacity="0.5" d="M826.908 14.5081L805.72 21.1481L810.356 23.9801L823.98 19.3001L826.04 33.5561L830.676 36.3881L826.908 14.5081Z" fill="#D1D8EE"/>
    <path opacity="0.5" d="M163.2 542.232L151.392 561.036L156.756 560.18L164.084 547.78L174.904 557.288L180.268 556.432L163.2 542.232Z" fill="#8D8BC3"/>
    <path opacity="0.5" fill-rule="evenodd" clip-rule="evenodd" d="M765.9 584.036C770.566 584.036 774.348 580.254 774.348 575.588C774.348 570.922 770.566 567.14 765.9 567.14C761.234 567.14 757.452 570.922 757.452 575.588C757.452 580.254 761.234 584.036 765.9 584.036Z" stroke="#D1D8EE" stroke-width="4"/>
    <path opacity="0.5" fill-rule="evenodd" clip-rule="evenodd" d="M321.608 435.412C326.274 435.412 330.056 431.63 330.056 426.964C330.056 422.298 326.274 418.516 321.608 418.516C316.942 418.516 313.16 422.298 313.16 426.964C313.16 431.63 316.942 435.412 321.608 435.412Z" stroke="#D1D8EE" stroke-width="2.8"/>
    <path opacity="0.5" fill-rule="evenodd" clip-rule="evenodd" d="M549.54 104.788C554.206 104.788 557.988 101.006 557.988 96.3401C557.988 91.6744 554.206 87.8921 549.54 87.8921C544.874 87.8921 541.092 91.6744 541.092 96.3401C541.092 101.006 544.874 104.788 549.54 104.788Z" stroke="#8D8BC3" stroke-width="4"/>
    <path opacity="0.5" fill-rule="evenodd" clip-rule="evenodd" d="M839.592 364.484C844.258 364.484 848.04 360.702 848.04 356.036C848.04 351.37 844.258 347.588 839.592 347.588C834.926 347.588 831.144 351.37 831.144 356.036C831.144 360.702 834.926 364.484 839.592 364.484Z" stroke="#D1D8EE" stroke-width="2"/>
    <path opacity="0.5" fill-rule="evenodd" clip-rule="evenodd" d="M10.452 210.192C15.1177 210.192 18.9 206.41 18.9 201.744C18.9 197.078 15.1177 193.296 10.452 193.296C5.78633 193.296 2.00403 197.078 2.00403 201.744C2.00403 206.41 5.78633 210.192 10.452 210.192Z" stroke="#D1D8EE" stroke-width="4"/>
    <rect opacity="0.5" x="322.357" y="104.036" width="22.9" height="5.916" rx="1.576" transform="rotate(-153.73 322.357 104.036)" fill="#8D8BC3"/>
    <rect opacity="0.5" x="573.107" y="16.3746" width="22.9" height="5.916" rx="1.576" transform="rotate(-27.88 573.107 16.3746)" fill="#D1D8EE"/>
    <rect opacity="0.5" x="94.326" y="600.502" width="22.9" height="5.916" rx="1.576" transform="rotate(-27.88 94.326 600.502)" fill="#D1D8EE"/>
    <path d="M99.6241 506.164C99.6241 506.164 91.8521 495.804 102.2 486.544C112.548 477.284 107.98 470.144 105.944 466.792C100.568 457.94 109.368 460.628 110.64 451.72C111.416 446.28 121.012 437.72 126.108 448.58C129.088 454.932 129.148 461.684 124.152 465.38C121.924 467.032 115.876 477.504 119.56 482.424C123.244 487.344 127.348 498.74 108.692 509.688C108.692 509.688 105.064 510.432 99.6241 506.164Z" fill="#C8D5E9"/>
    <path d="M106.4 504.692C106.4 504.692 105.4 493.784 110.76 485.688C116.12 477.592 111.676 471.624 111.504 466.136C111.332 460.648 118.4 453.22 118.4 453.22C118.4 453.22 111.692 461.32 114.64 473.52C114.64 473.52 117.124 481.436 112.156 487.16C107.188 492.884 111.404 503.68 111.404 503.68L106.4 504.692Z" fill="#9FB1CC"/>
    <path d="M104.8 503.228C104.8 503.228 109.2 493.936 99.692 488.368C90.184 482.8 92.604 476.52 93.656 473.568C96.456 465.832 90.02 469.312 87.624 462.58C86.156 458.472 77.336 453.32 75.088 462.58C73.772 467.996 74.792 473.26 79.264 475.348C81.264 476.28 87.624 483.472 85.532 487.884C83.44 492.296 82.052 501.808 98.3 507.38C98.3 507.38 101.24 507.38 104.8 503.208V503.228Z" fill="#D6DEEC"/>
    <path d="M99.2801 503.156C99.2801 503.156 98.3361 494.504 92.8801 489.052C87.4241 483.6 89.9441 478.252 89.2121 473.956C88.4801 469.66 81.8201 464.992 81.8201 464.992C81.8201 464.992 88.3201 470.232 87.9521 480.192C87.9521 480.192 87.2721 486.748 92.0441 490.416C96.8161 494.084 95.2441 503.156 95.2441 503.156H99.2801Z" fill="#9FB1CC"/>
    <path d="M81.932 502.588L83.068 508.172L88.124 533.096H119.44L123.704 508.172L124.664 502.588H81.932Z" fill="#D6DEEC"/>
    <path d="M81.932 502.588L83.068 508.172H123.704L124.664 502.588H81.932Z" fill="#9FB1CC"/>
    <rect x="72.756" y="256.48" width="149.856" height="43.684" rx="3.732" fill="#F1F2F2"/>
    <rect x="72.756" y="383.28" width="149.856" height="43.684" rx="3.732" fill="#9FB1CC"/>
    <g opacity="0.5">
        <rect x="77.2601" y="264.336" width="140.348" height="3.752" rx="1" fill="#D1D3D4"/>
        <rect x="77.2601" y="272.404" width="70.424" height="3.752" rx="1" fill="#D1D3D4"/>
        <rect x="150.812" y="272.404" width="66.796" height="3.752" rx="1" fill="#D1D3D4"/>
        <rect x="77.2601" y="280.472" width="38.776" height="3.752" rx="1" fill="#D1D3D4"/>
        <rect x="187.46" y="280.472" width="30.144" height="3.752" rx="1" fill="#D1D3D4"/>
        <rect x="105.888" y="289.228" width="89.844" height="3.752" rx="1" fill="#D1D3D4"/>
        <rect x="117.412" y="280.472" width="66.796" height="3.752" rx="1" fill="#D1D3D4"/>
    </g>
    <path opacity="0.2" d="M147.432 320.66L116.304 311.92V317.312L147.432 326.052L178.564 317.312V311.92L147.432 320.66Z" fill="#D1D3D4"/>
    <path opacity="0.5" d="M147.432 334.796L116.304 326.052V331.448L147.432 340.188L178.564 331.448V326.052L147.432 334.796Z" fill="#D1D3D4"/>
    <path opacity="0.7" d="M147.432 349.264L115.112 340.188V345.788L147.432 354.864L179.756 345.788V340.188L147.432 349.264Z" fill="#D1D3D4"/>
    <path d="M147.432 365.112L115.112 356.036V361.632L147.432 370.712L179.756 361.632V356.036L147.432 365.112Z" fill="#D1D3D4"/>
    <g opacity="0.5">
        <path opacity="0.2" d="M428.072 414.16L451.028 425.652V418.564L428.072 407.072L405.12 418.564V425.652L428.072 414.16Z" fill="#D1D3D4"/>
        <path opacity="0.5" d="M428.072 395.58L451.028 407.072V399.984L428.072 388.492L405.12 399.984V407.072L428.072 395.58Z" fill="#D1D3D4"/>
        <path opacity="0.7" d="M428.072 376.556L451.908 388.492V381.132L428.072 369.196L404.24 381.132V388.492L428.072 376.556Z" fill="#D1D3D4"/>
        <path d="M428.072 355.728L451.908 367.66V360.3L428.072 348.368L404.24 360.3V367.66L428.072 355.728Z" fill="#D1D3D4"/>
    </g>
    <rect opacity="0.3" x="77.26" y="395.94" width="140.348" height="6.324" rx="1.684" fill="white"/>
    <rect opacity="0.3" x="110.032" y="408.34" width="81.556" height="6.324" rx="1.684" fill="white"/>
    <rect x="653.66" y="210.84" width="154.752" height="154.752" rx="8" fill="white"/>
    <rect x="653.66" y="375.084" width="41.028" height="41.028" rx="2.42" fill="#9FB1CC"/>
    <rect opacity="0.5" x="653.66" y="421.236" width="154.752" height="74.256" rx="2.42" fill="white"/>
    <rect x="698.888" y="375.084" width="109.524" height="19.124" rx="1.1" fill="white"/>
    <rect x="698.888" y="399.46" width="60.604" height="10.584" rx="1" fill="#9FB1CC"/>
    <path d="M674.172 398C678.502 398 682.012 394.49 682.012 390.16C682.012 385.83 678.502 382.32 674.172 382.32C669.842 382.32 666.332 385.83 666.332 390.16C666.331 392.24 667.157 394.234 668.627 395.705C670.098 397.175 672.092 398.001 674.172 398Z" fill="white"/>
    <path d="M681.716 397.2C679.767 399.297 677.033 400.488 674.17 400.488C671.307 400.488 668.573 399.297 666.624 397.2C662.65 399.759 660.251 404.165 660.26 408.892H688.088C688.098 404.163 685.696 399.755 681.716 397.2V397.2Z" fill="white"/>
    <rect x="180.046" y="273.386" width="11.76" height="24.892" rx="0.632" transform="rotate(-32.06 180.046 273.386)" fill="#A7A9AC"/>
    <rect x="180.904" y="273.935" width="10.888" height="23.052" rx="0.632" transform="rotate(-32.06 180.904 273.935)" fill="white"/>
    <path d="M239.456 310.54C239.456 310.54 228.256 319.56 226.656 320.908C224.692 322.552 221.564 322.784 219.636 321.096L198.036 297.44C197.592 296.76 197.452 295.536 197.436 294.64C197.436 294.616 197.436 294.584 197.436 294.556C197.436 294.236 197.436 293.956 197.436 293.756C197.436 293.732 197.436 293.704 197.436 293.676C197.436 293.648 197.436 293.628 197.436 293.6V293.464C197.464 291.464 197.336 288.224 196.292 287.464C193.32 285.316 193.74 279.76 193.74 279.76C193.74 279.76 191.432 277.636 191.86 285.032C191.952 286.548 189.86 287.16 185.884 282.916C184.684 281.656 183.992 279.624 183.448 276.892C183.184 275.58 182.424 276.068 181.944 277.348C181.92 277.412 181.896 277.484 181.872 277.556C181.72 278.202 181.608 278.856 181.536 279.516C181.536 279.516 181.536 279.54 181.536 279.548C181.24 282.284 181.404 286.88 185.164 289.508C185.344 289.704 185.536 289.908 185.74 290.108L185.84 290.208C186.48 290.897 187.064 291.637 187.584 292.42C187.953 292.958 188.279 293.524 188.56 294.112C188.96 294.848 189.48 295.756 189.972 296.692C190.076 296.888 190.176 297.092 190.272 297.272C190.448 297.62 190.624 297.964 190.788 298.304C191.257 299.225 191.65 300.183 191.964 301.168C192.312 301.796 192.568 302.336 192.568 302.336C193.048 303.292 203.6 324.228 211.512 333.632C212.676 335.012 214.456 338.032 216.224 339.232C218.488 340.82 221.068 341.9 223.788 342.4C225.251 342.585 226.736 342.448 228.14 342C239.8 338.724 244.476 329.904 244.476 329.904L239.456 310.54Z" fill="#D1D8EE"/>
    <path d="M316.316 352.676C315.936 361.18 313.516 370.408 307.06 378.92C307.06 378.92 298.432 390.568 292.556 393.864L287.716 391.024C287.716 391.024 303.004 360.464 291.316 335.484L287.716 313.22L309.78 321.84C312.639 327.841 314.6 334.229 315.6 340.8C316.234 344.725 316.474 348.703 316.316 352.676Z" fill="#D1D8EE"/>
    <path d="M298.848 443.668C298.408 421.044 296.544 400.432 294.8 385.504C293.06 370.66 291.432 361.436 291.432 361.436L272.468 361.704C272.388 361.352 272.308 361.004 272.212 360.664L258.976 360.968L243.528 361.324C243.528 361.324 218.248 426.384 241.896 531.096H249.096C249.096 531.096 252.936 458.004 263.128 422.516C263.128 422.516 263.704 420.888 264.584 418.116C264.9 419.008 265.204 419.912 265.5 420.808C270.884 436.972 270.14 453.292 270.14 453.292C269.984 458.092 270.408 463.692 271.212 469.608C271.948 475.048 273.004 480.784 274.236 486.492C279.34 510.26 287.372 533.6 287.372 533.6L294.488 532.684C295.632 525.2 299.956 465.412 298.848 443.668Z" fill="url(#paint0_linear)"/>
    <path opacity="0.5" d="M316.316 352.676C314.593 351.229 313.54 349.138 313.405 346.892C313.269 344.646 314.063 342.443 315.6 340.8C316.234 344.725 316.474 348.703 316.316 352.676Z" fill="#4D86C6"/>
    <path d="M294.8 385.504C293.182 385.655 291.574 385.128 290.36 384.048C287.824 381.912 279.96 375.316 273.444 372.66C271.692 371.944 270.036 371.508 268.604 371.524C261.868 371.596 257.648 366.144 257.648 366.144L258.74 361.9L258.976 360.968L272.212 360.664C272.308 361.004 272.388 361.352 272.468 361.704L291.432 361.436C291.432 361.436 293.06 370.66 294.8 385.504Z" fill="url(#paint1_linear)"/>
    <path d="M274.732 293.6C270.228 290.632 269.46 283.668 269.46 283.668H263.964C263.964 283.668 262.764 290.744 258.288 293.416C258.288 293.416 256.596 294.716 250.872 297.116C251.144 297.28 266.576 306.52 281.56 297.352C279.205 296.251 276.924 294.998 274.732 293.6Z" fill="#F8B673"/>
    <path d="M271.036 312.052L251.268 326.052L251.016 326.224L248.584 327.948L248.404 327.724L239.472 310.524C252.38 298.268 263.272 294.9 263.272 294.9L263.3 294.952L271.036 312.052Z" fill="#F8B673"/>
    <path d="M244.24 330.208C244.324 330.108 244.404 330.012 244.476 329.92L244.24 330.208Z" fill="#6465AD"/>
    <path d="M309.784 321.856C301.348 323.388 298.816 325.964 296.032 328.828C295.684 329.188 295.32 329.572 294.972 329.948C294.32 330.644 293.704 331.324 293.244 331.84C292.362 332.845 291.683 334.01 291.244 335.272C291.244 335.348 291.244 335.38 291.244 335.336C291.243 335.327 291.243 335.317 291.244 335.308C290.744 334.68 290.012 332.884 288.724 331.308L290.28 333.188L287.88 330.196C287.88 330.228 287.88 330.264 287.88 330.3C287.572 329.924 287.328 329.632 287.18 329.456L287.88 330.312C289.188 341.868 283.504 344.888 287.992 359.112C288.244 359.548 288.48 359.948 288.696 360.312C289.368 361.424 289.832 362.088 289.832 362.088C289.612 362.236 289.38 362.376 289.148 362.512C288.916 362.648 288.748 362.732 288.52 362.864L288.42 362.916C288.308 362.968 288.2 363.028 288.08 363.092L287.712 363.276H287.688H287.652L287.376 363.408C287.276 363.456 287.184 363.504 287.092 363.544L286.824 363.672H286.788L286.612 363.752L286.468 363.812L286.18 363.94L285.98 364.024L285.888 364.064C284.396 364.689 282.868 365.224 281.312 365.664C275.792 367.204 267.748 368.216 257.688 366.112C252.804 365.069 248.049 363.494 243.508 361.416H243.484C249.612 344.824 243.132 342.172 244.52 329.916L245.16 329.116L244.52 329.888V329.78L242.12 332.776L243.428 331.176C242.184 332.696 240.712 334.512 240.228 335.1C240.228 335.1 240.228 335.124 240.228 335.132C240.228 335.14 240.208 335.132 240.228 335.064C240.247 334.953 240.238 334.838 240.2 334.732C239.799 333.561 239.279 332.433 238.648 331.368C237.993 330.294 237.219 329.297 236.34 328.396C233.54 325.532 235.14 322.396 226.696 320.86C235.496 304.48 245.26 299.26 245.26 299.26L245.3 299.304C245.307 299.287 245.318 299.272 245.332 299.26L247.48 298.428C248.756 297.928 249.88 297.468 250.904 297.044C251.128 297.18 261.64 303.468 273.704 300.564C275.481 300.086 277.22 299.473 278.904 298.732C279.826 298.298 280.723 297.813 281.592 297.28C282.936 297.9 284.244 298.48 285.4 299C285.932 299.204 286.488 299.42 287.076 299.64L287.104 299.684L287.144 299.64C287.144 299.64 287.84 299.932 289.012 300.564L289.412 300.736C289.716 300.912 290.408 301.32 292.24 302.516L293.16 303.2C300.101 308.014 305.799 314.408 309.784 321.856Z" fill="url(#paint2_linear)"/>
    <path d="M289.804 362.092C289.584 362.24 289.356 362.38 289.124 362.516L288.496 362.868L288.392 362.92C288.284 362.972 288.172 363.032 288.056 363.096L287.656 363.292H287.616L287.344 363.424C287.244 363.472 287.152 363.52 287.06 363.56C286.98 363.604 286.884 363.644 286.792 363.688H286.76C286.696 363.712 286.64 363.744 286.584 363.768L286.436 363.828L286.152 363.956L285.948 364.04L285.856 364.08C284.365 364.706 282.837 365.24 281.28 365.68C280.028 358.28 280.992 351.092 283.408 339.792C286.38 325.912 279.164 314.492 278.976 314.192C282.353 319.282 285.32 324.632 287.848 330.192V330.296C287.496 329.868 287.228 329.548 287.092 329.388L287.848 330.308C289.16 341.864 283.476 344.884 287.964 359.108C289.004 360.936 289.804 362.092 289.804 362.092Z" fill="#C66BAA"/>
    <path opacity="0.2" d="M295.852 338.704L288.652 360.304L287.668 363.268H287.644H287.608L287.332 363.4C287.232 363.448 287.14 363.496 287.048 363.536L286.78 363.664H286.744L286.568 363.744L286.424 363.804L286.136 363.932L285.936 364.016L285.844 364.056C284.352 364.681 282.824 365.216 281.268 365.656C275.748 367.196 267.704 368.208 257.644 366.104C256.772 364.944 256.4 363.404 256.736 361.396C259.084 347.276 257.416 343.428 257.416 343.428C257.416 343.428 249.12 332 253.676 318.628C258.232 305.256 247.428 298.468 247.428 298.468L242.228 291.72L272.04 286.9L292.088 301.368L292.208 302.568L294.964 329.936L295.852 338.704Z" fill="#EE2A7B"/>
    <path opacity="0.2" d="M240.8 326C240.8 326 240.8 326.044 240.8 326.064C240.546 328.011 239.798 329.86 238.628 331.436C239.25 332.504 239.763 333.63 240.16 334.8C240.195 334.907 240.203 335.021 240.184 335.132L240.216 335.168C241.064 334.104 241.928 332.984 242.08 332.84L244.48 329.912C244.48 329.912 245.736 317.912 250.208 311.172C250.208 311.132 241.808 317.632 240.8 326Z" fill="#EE2A7B"/>
    <path d="M248.92 541.004C246.52 541.624 231.924 542.46 228.02 541.856C227.716 539.856 231.336 537.668 234.648 536.104C237.352 534.828 239.848 533.972 239.848 533.972L241.72 530.468L249.092 531.032C249.092 531.032 249.548 533.168 249.788 535.464C250.056 538 250.064 540.712 248.92 541.004Z" fill="url(#paint3_linear)"/>
    <path opacity="0.5" d="M272.672 291.696C264.712 292.208 262.5 288.044 262.5 288.044L266 286L269.696 285.26C270.092 286.94 270.94 289.6 272.672 291.696Z" fill="#4D86C6"/>
    <path d="M282.66 271.512C282.668 269.957 281.621 268.595 280.116 268.204C280.071 266.427 279.899 264.656 279.6 262.904C277.728 252.196 257.248 252.82 255.376 262.904C254.14 269.556 252.128 286.56 265.116 288.804C273.916 290.324 278.396 283.26 279.716 274.892C281.41 274.67 282.673 273.22 282.66 271.512Z" fill="#F8B673"/>
    <path opacity="0.5" d="M228.14 342C226.736 342.448 225.251 342.585 223.788 342.4C221.1 341.91 218.548 340.853 216.3 339.3C218.115 337.731 220.569 337.121 222.907 337.657C225.245 338.192 227.189 339.81 228.14 342.012V342Z" fill="#4D86C6"/>
    <rect x="273.492" y="375.268" width="18.604" height="2.98" fill="url(#paint4_linear)"/>
    <rect x="244.707" y="372.402" width="18.604" height="2.98" transform="rotate(8.35 244.707 372.402)" fill="url(#paint5_linear)"/>
    <path d="M249.788 535.464C240.864 539.396 234.648 536.104 234.648 536.104C237.352 534.828 239.848 533.972 239.848 533.972L241.72 530.468L249.092 531.032C249.092 531.032 249.548 533.168 249.788 535.464Z" fill="#F8B673"/>
    <path d="M321.74 328.228C312.6 327.872 312.776 318.188 313.2 314.384C313.272 313.912 313.34 313.452 313.4 312.996C313.406 312.954 313.414 312.913 313.424 312.872C316.296 290.184 301.424 284.872 292.376 281.876C287.384 280.212 287.132 275.624 286.736 269.9C286.4 265.2 286 259.764 282.8 254.536C282.372 253.834 281.907 253.154 281.408 252.5C273.252 241.844 258.44 244.632 252.796 251.936C252.017 252.924 251.413 254.037 251.008 255.228C249.572 259.568 248.068 260.288 244.92 264.124C242.736 266.843 240.751 269.716 238.98 272.72C231.38 285.312 242.924 295.836 242.924 295.836C242.924 295.836 268.216 309.284 258.864 316.74C249.512 324.196 263.664 344.88 259.632 358.34C258.14 363.328 261.704 364.74 271.096 365.54C271.939 365.612 272.831 365.677 273.772 365.736C276.8 366.26 281.844 368.032 286.028 373.928C292.472 383.012 308.296 382.728 312.688 362.356C312.688 362.356 314.844 359.844 317.488 357.228C326.332 350.296 328.032 343.032 328.032 343.028C330.152 336.8 327.88 328.468 321.74 328.228Z" fill="url(#paint6_linear)"/>
    <path d="M294.72 542.616C292.288 543.128 283.748 542.064 279.876 541.276C279.819 539.886 280.423 538.551 281.504 537.676C283.388 536.116 286.248 536.04 286.248 536.04L287.356 533.544L294.476 532.624C294.476 532.624 294.924 534.368 295.276 536.396C295.72 539.128 296 542.352 294.72 542.616Z" fill="url(#paint7_linear)"/>
    <path d="M295.264 536.4C293.976 535.86 293.076 536.36 289.264 538.592C285.452 540.824 281.496 537.68 281.496 537.68C283.38 536.12 286.24 536.044 286.24 536.044L287.348 533.548L294.468 532.628C294.468 532.628 294.924 534.4 295.264 536.4Z" fill="#F8B673"/>
    <path d="M274.22 486.492C272.988 480.784 271.932 475.048 271.196 469.608C270.396 463.688 269.968 458.112 270.124 453.292C270.124 453.292 270.868 436.972 265.484 420.808C265.176 419.884 264.864 418.96 264.54 418.044C264.904 416.508 268.316 402.444 271.984 397.88C271.984 397.88 267.88 413.04 271.984 432.6C275.88 451.124 274.4 483.2 274.22 486.492Z" fill="url(#paint8_linear)"/>
    <path d="M181.876 276.292L184.66 280.736L185.008 280.472L182.256 276.084L181.876 276.292Z" fill="#A7A9AC"/>
    <path d="M182.024 275.712L185.172 280.736L186.868 278.704L185.172 275.712H181.956" fill="white"/>
    <path d="M535.328 353.5C535.704 361.968 538.128 371.164 544.528 379.64C544.528 379.64 553.124 391.24 558.976 394.524L563.776 391.696C562.66 389.251 561.692 386.741 560.876 384.18C557.404 373.592 553.112 353.628 562.12 336.324L562.248 334.6L563.776 314.2L541.836 322.8C538.984 328.775 537.026 335.136 536.024 341.68C535.397 345.587 535.164 349.547 535.328 353.5Z" fill="#D1D8EE"/>
    <path opacity="0.5" d="M553.2 356.768C553.752 369.356 559.552 379.424 560.644 383.908C560.776 384.444 560.868 384.5 560.924 384.18C557.452 373.592 553.16 353.628 562.168 336.324L562.296 334.6L560.644 334.224C560.644 334.224 552.64 344.184 553.2 356.768Z" fill="#4D86C6"/>
    <rect x="664.87" y="300.218" width="11.76" height="24.892" rx="0.632" transform="rotate(-147.94 664.87 300.218)" fill="#A7A9AC"/>
    <rect x="663.109" y="299.051" width="10.9065" height="23.0912" rx="0.632" transform="rotate(-148.055 663.109 299.051)" fill="white"/>
    <path d="M589.552 285.144C589.552 285.144 590.752 292.188 595.204 294.852C593.804 297.652 580.852 298.7 578.804 295.036C583.292 292.08 584.06 285.144 584.06 285.144H589.552Z" fill="#D1D8EE"/>
    <path d="M552.096 445.088C553.724 423.888 563.852 362.688 563.852 362.688L581.396 362.94C581.396 362.856 581.436 362.768 581.456 362.688L609.992 362.604C609.992 362.604 639.592 414.428 618.996 533.852H611.84C611.84 533.852 600.676 459.648 590.528 424.3C590.528 424.3 590.212 423.408 589.696 421.828C589.694 421.837 589.694 421.847 589.696 421.856C584.336 437.944 581.296 454.168 581.296 454.168C581.5 460.652 580.66 468.508 579.256 476.736C576.988 490.02 573.256 504.272 570.056 515.248C566.816 526.396 564.14 534.172 564.14 534.172L557.048 533.26C555.88 525.844 550.44 466.708 552.096 445.088Z" fill="url(#paint9_linear)"/>
    <path d="M562.252 339.084C562.252 339.14 562.252 339.188 562.252 339.24C562.364 342.108 562.504 344.872 562.652 347.444C562.684 348.024 562.72 348.604 562.752 349.164C562.752 348.764 563.052 343 564.752 342.764C564.784 342.816 564.812 342.872 564.84 342.924C564.804 343.14 563.58 346.124 562.748 349.156C563.612 353.801 563.966 358.526 563.804 363.248C565.06 363.605 566.316 363.919 567.572 364.188C588.672 368.836 609.044 362.872 609.972 362.588C609.98 362.59 609.988 362.59 609.996 362.588V362.52V362.472C610.396 357.108 611.516 345.672 611.116 333.832C610.604 318.196 609.116 302.264 608.156 300.764C608.149 300.747 608.138 300.732 608.124 300.72C605.952 299.892 604.124 299.156 602.568 298.508C596.864 296.108 595.176 294.82 595.176 294.82L578.776 295.004C576.594 296.399 574.322 297.65 571.976 298.748C567.948 300.612 564.228 302.032 564.228 302.032L564.18 302.188C561.824 310.152 561.748 325.68 562.252 339.084Z" fill="#D1D8EE"/>
    <path d="M572.308 273.224C572.308 271.624 572.008 270.124 573.464 269.756C573.511 267.986 573.686 266.221 573.988 264.476C575.852 253.808 596.252 254.428 598.116 264.476C599.348 271.1 601.352 288.04 588.416 290.272C579.616 291.788 575.188 284.752 573.872 276.416C572.212 276.22 572.308 274.964 572.308 273.224Z" fill="#D1D8EE"/>
    <path d="M596.068 315.02L611.144 333.864L611.336 334.1L613.192 336.42L613.424 336.256L633.06 322.328C626.66 305.8 608.212 300.728 608.212 300.728L608.172 300.772L596.068 315.02Z" fill="#F8B673"/>
    <path opacity="0.5" d="M535.324 353.5C537.04 352.056 538.087 349.97 538.218 347.732C538.35 345.493 537.555 343.299 536.02 341.664C535.394 345.576 535.161 349.541 535.324 353.5Z" fill="#4D86C6"/>
    <path opacity="0.5" d="M576 283.144L576.056 283.632C577.556 286.652 579.752 288.972 582.74 289.956C582.447 290.66 582.098 291.34 581.696 291.988C581.94 291.856 582.824 291.488 585.696 290.468L587.008 290.008C588.228 289.601 589.375 289 590.404 288.228C593.38 285.944 593.536 283.144 593.536 283.144L584.8 279.976L576 283.144Z" fill="#4D86C6"/>
    <path d="M611.84 533.868C611.84 533.868 609.532 543.468 611.732 543.952C614.152 544.46 628.716 544.62 632.572 543.84C632.972 540.204 620.44 536.536 620.44 536.536L618.996 533.868H611.84Z" fill="url(#paint10_linear)"/>
    <path d="M557.032 533.288C557.032 533.288 554.596 542.76 556.792 543.22C559.192 543.728 567.72 542.668 571.592 541.888C571.592 536.852 565.244 536.688 565.244 536.688L564.14 534.2L557.032 533.288Z" fill="url(#paint11_linear)"/>
    <path d="M607.252 327.964C607.252 327.964 619.328 347.3 631.02 351.368C631.32 351.472 631.62 351.568 631.912 351.652C633.872 352.244 635.668 352.452 637.204 352.132C639.335 351.678 641.368 350.845 643.204 349.672C643.988 349.191 644.738 348.656 645.448 348.072C646.704 347.064 647.842 345.916 648.84 344.652C652.64 339.764 656.888 331.132 660.22 323.652C663.552 316.172 665.94 309.832 666.052 309.548C666.052 309.548 666.256 309.084 666.576 308.436C666.854 307.447 667.208 306.482 667.636 305.548C667.636 305.548 667.636 305.548 667.636 305.528C667.78 305.196 667.936 304.86 668.096 304.512L668.372 303.92C668.824 302.976 669.296 302.052 669.68 301.3C669.939 300.703 670.242 300.127 670.588 299.576C671.078 298.777 671.63 298.019 672.24 297.308C672.27 297.271 672.302 297.236 672.336 297.204C672.532 297 672.712 296.804 672.884 296.588C676.528 293.828 676.516 289.248 676.116 286.532C676.119 286.523 676.119 286.513 676.116 286.504C676.025 285.851 675.891 285.204 675.716 284.568C675.688 284.5 675.664 284.424 675.632 284.364C675.108 283.112 674.336 282.652 674.124 283.964C673.684 286.7 673.06 288.764 671.928 290.048C668.136 294.424 666.028 293.892 666.056 292.384C666.208 285.004 663.984 287.184 663.984 287.184C663.984 287.184 664.616 292.7 661.74 294.952C660.728 295.752 660.728 298.976 660.824 300.952C660.824 300.976 660.824 300.996 660.824 301.02V301.088C660.824 301.108 660.824 301.14 660.824 301.164C660.824 301.188 660.824 301.216 660.824 301.236C660.824 301.432 660.864 301.712 660.876 302.036C660.872 302.064 660.872 302.092 660.876 302.12C660.876 303.004 660.824 304.176 660.412 304.868L637.92 325.696C636.064 327.452 634.572 325.192 633.024 322.384L617.316 311.428L607.252 327.964Z" fill="#D1D8EE"/>
    <path d="M571.144 257.2C573.228 253.676 580.176 250.98 580.176 250.98C580.176 250.98 592.296 247.232 596.976 254.424C597.54 255.14 597.836 256.212 597.612 257.8C597.612 257.8 600.516 258.5 600.412 261.084C600.412 261.084 600.412 265.432 598.572 267.324C597.645 269.089 596.361 270.64 594.8 271.88C594.086 271.23 593.109 270.952 592.16 271.128C590.561 271.411 589.446 272.872 589.594 274.489C589.742 276.106 591.104 277.34 592.728 277.328H592.912C593.128 278.344 593.396 279.472 593.712 280.736C594.193 282.521 593.321 284.393 591.644 285.172C587.403 287.113 582.758 288.007 578.1 287.78C577.244 287.813 576.388 287.728 575.556 287.528C572.86 286.896 570.424 285.196 571.468 283.128C574.208 277.712 569.592 266.872 569.592 266.872C567.072 260.7 571.144 257.2 571.144 257.2Z" fill="#8D8BC3"/>
    <path d="M556.68 305.736C559.818 303.764 563.194 302.199 566.728 301.08C568.904 300.252 570.644 299.348 572.192 298.68C572.189 298.695 572.189 298.71 572.192 298.724V298.68C581.352 303.436 602.592 298.52 602.592 298.52C604.14 299.168 605.976 299.904 608.152 300.732C608.164 300.746 608.174 300.761 608.184 300.776L608.224 300.732C608.224 300.732 626.676 305.796 633.072 322.332C624.672 323.86 619.872 326.892 617.108 329.744C616.232 330.641 615.462 331.636 614.812 332.708C614.183 333.769 613.663 334.891 613.26 336.056C613.225 336.163 613.217 336.277 613.236 336.388C613.236 336.464 613.236 336.496 613.236 336.452C613.235 336.443 613.235 336.433 613.236 336.424C612.392 335.364 611.528 334.248 611.38 334.104L611.188 333.868C611.188 334.096 611.188 334.324 611.208 334.548C611.544 346.148 610.504 356.476 610.064 362.512V362.56C610.064 362.604 610.064 362.612 610.064 362.624H610.04C609.276 362.968 608.512 363.296 607.764 363.604C588.396 371.604 574.292 368.004 567.828 365.28L567.736 365.24C567.667 365.216 567.598 365.188 567.532 365.156L567.248 365.028L567.104 364.968C567.048 364.948 566.992 364.916 566.928 364.888H566.896L566.628 364.76C566.531 364.72 566.436 364.674 566.344 364.624L566.072 364.496L566.032 364.476L565.632 364.28C565.516 364.22 565.404 364.156 565.296 364.104C565.261 364.091 565.227 364.073 565.196 364.052C564.956 363.92 564.744 363.804 564.572 363.704C564.336 363.568 564.112 363.428 563.892 363.304C563.892 363.304 563.892 363.1 563.892 362.728C562.86 358.212 562.26 337.696 562.228 336.328C562.044 336.56 562.096 336.66 561.908 336.9C561.565 335.951 561.164 335.024 560.708 334.124C560.544 333.804 560.364 333.484 560.172 333.164C559.522 332.091 558.75 331.096 557.872 330.2C555.1 327.352 550.316 324.316 541.912 322.788C545.032 314.52 551.256 309.092 556.68 305.736Z" fill="url(#paint12_linear)"/>
    <path d="M578.4 461.504C579.397 466.526 579.688 471.662 579.264 476.764C580.668 468.536 581.508 460.68 581.304 454.196C581.304 454.196 584.336 437.972 589.704 421.884C586.452 414.868 584.389 407.361 583.6 399.668C583.668 400.868 585.004 424.436 582.656 429.876C580.248 435.456 576.588 452 578.4 461.504Z" fill="url(#paint13_linear)"/>
    <rect x="607.371" y="379.398" width="15.352" height="1.932" transform="rotate(167.41 607.371 379.398)" fill="#231F20"/>
    <rect x="579.828" y="382.172" width="15.352" height="1.932" transform="rotate(-171.39 579.828 382.172)" fill="#231F20"/>
    <path opacity="0.5" d="M608.8 346.664C608.08 357.784 607.713 363.435 607.7 363.616C608.448 363.308 609.212 362.98 609.976 362.636H610C610 362.636 610 362.636 610 362.572V362.524C610.44 356.488 611.48 346.148 611.144 334.56L610.848 333.54L603.248 323.632C603.44 323.952 609.508 335.52 608.8 346.664Z" fill="#4B51A0"/>
    <path opacity="0.5" d="M560.632 334.12C561.088 335.02 561.489 335.947 561.832 336.896C562.02 336.656 561.968 336.556 562.152 336.324C562.152 336.324 565.488 327.124 567.844 325.584C567.6 325.704 562.488 328.476 560.632 334.12Z" fill="#4B51A0"/>
    <path opacity="0.5" d="M631.912 351.652C633.872 352.244 635.668 352.452 637.204 352.132C639.335 351.678 641.368 350.845 643.204 349.672C643.988 349.191 644.737 348.656 645.448 348.072C640.621 346.78 635.47 348.151 631.924 351.672L631.912 351.652Z" fill="#4D86C6"/>
    <path d="M676.268 282.028L673.488 286.468L673.14 286.204L675.888 281.816L676.268 282.028Z" fill="#A7A9AC"/>
    <path d="M676.12 281.448L672.972 286.468L671.276 284.436L672.972 281.448H676.188" fill="white"/>
    <path d="M267.58 234.036C275.303 234.036 281.564 227.775 281.564 220.052C281.564 212.329 275.303 206.068 267.58 206.068C259.857 206.068 253.596 212.329 253.596 220.052C253.596 227.775 259.857 234.036 267.58 234.036Z" fill="#D1D8EE"/>
    <path d="M273.836 225.044C270.408 228.768 264.192 228.788 261.012 224.744" stroke="#231F20" stroke-width="1.2" stroke-linecap="round"/>
    <path d="M261.808 220.38C262.924 220.38 263.828 219.476 263.828 218.36C263.828 217.244 262.924 216.34 261.808 216.34C260.692 216.34 259.788 217.244 259.788 218.36C259.788 219.476 260.692 220.38 261.808 220.38Z" fill="#231F20"/>
    <path d="M273.836 220.38C274.952 220.38 275.856 219.476 275.856 218.36C275.856 217.244 274.952 216.34 273.836 216.34C272.72 216.34 271.816 217.244 271.816 218.36C271.816 219.476 272.72 220.38 273.836 220.38Z" fill="#231F20"/>
    <path d="M584.78 234.036C592.503 234.036 598.764 227.775 598.764 220.052C598.764 212.329 592.503 206.068 584.78 206.068C577.057 206.068 570.796 212.329 570.796 220.052C570.796 227.775 577.057 234.036 584.78 234.036Z" fill="#D1D8EE"/>
    <path d="M591.036 225.044C587.608 228.768 581.388 228.788 578.212 224.744" stroke="#231F20" stroke-width="1.2" stroke-linecap="round"/>
    <path d="M579.008 220.38C580.124 220.38 581.028 219.476 581.028 218.36C581.028 217.244 580.124 216.34 579.008 216.34C577.892 216.34 576.988 217.244 576.988 218.36C576.988 219.476 577.892 220.38 579.008 220.38Z" fill="#231F20"/>
    <path d="M591.036 220.38C592.152 220.38 593.056 219.476 593.056 218.36C593.056 217.244 592.152 216.34 591.036 216.34C589.92 216.34 589.016 217.244 589.016 218.36C589.016 219.476 589.92 220.38 591.036 220.38Z" fill="#231F20"/>
    <rect x="364.96" y="438.216" width="125.072" height="84.728" rx="1.112" fill="#9FB1CC"/>
    <path fill-rule="evenodd" clip-rule="evenodd" d="M366.9 323.5H488.1C489.166 323.502 490.03 324.366 490.032 325.432V446.476C490.03 447.543 489.167 448.408 488.1 448.412H366.9C365.833 448.408 364.97 447.543 364.968 446.476V325.432C364.972 324.367 365.835 323.504 366.9 323.5ZM488.832 325.432C488.826 325.03 488.502 324.706 488.1 324.7H366.9C366.498 324.706 366.174 325.03 366.168 325.432V446.476C366.172 446.879 366.497 447.206 366.9 447.212H488.1C488.503 447.206 488.828 446.879 488.832 446.476V325.432Z" fill="#9FB1CC"/>
    <rect x="364.96" y="200.54" width="125.072" height="136.608" rx="1.932" fill="#9FB1CC"/>
    <path fill-rule="evenodd" clip-rule="evenodd" d="M366.9 78.2721H488.1C489.165 78.2765 490.028 79.1389 490.032 80.2041V218.12C490.03 219.186 489.166 220.05 488.1 220.052H366.9C365.835 220.048 364.972 219.185 364.968 218.12V80.2041C364.972 79.1389 365.835 78.2765 366.9 78.2721ZM487.632 217.652V80.6721H367.36V217.652H487.632Z" fill="#9FB1CC"/>
    <rect x="390.536" y="455.464" width="73.924" height="14.512" rx="1.132" fill="white"/>
    <rect x="415.132" y="458.968" width="3.364" height="7.504" rx="0.368" fill="#9FB1CC"/>
    <path d="M810.32 506.164C810.32 506.164 802.548 495.804 812.9 486.544C823.252 477.284 818.68 470.144 816.644 466.792C811.264 457.94 820.064 460.628 821.336 451.72C822.116 446.28 831.708 437.72 836.808 448.58C839.788 454.932 839.844 461.684 834.848 465.38C832.62 467.032 826.572 477.504 830.256 482.424C833.94 487.344 838.044 498.74 819.388 509.688C819.388 509.688 815.76 510.432 810.32 506.164Z" fill="#C8D5E9"/>
    <path d="M817.104 504.692C817.104 504.692 816.1 493.784 821.46 485.688C826.82 477.592 822.376 471.624 822.208 466.136C822.04 460.648 829.08 453.22 829.08 453.22C829.08 453.22 822.372 461.32 825.324 473.52C825.324 473.52 827.804 481.436 822.84 487.16C817.876 492.884 822.084 503.68 822.084 503.68L817.104 504.692Z" fill="#9FB1CC"/>
    <path d="M815.488 503.228C815.488 503.228 819.888 493.936 810.38 488.368C800.872 482.8 803.292 476.52 804.348 473.568C807.148 465.832 800.712 469.312 798.312 462.58C796.848 458.472 788.028 453.32 785.776 462.58C784.46 467.996 785.484 473.26 789.956 475.348C791.956 476.28 798.312 483.472 796.224 487.884C794.136 492.296 792.74 501.808 808.988 507.38C808.988 507.38 811.928 507.38 815.488 503.208V503.228Z" fill="#D6DEEC"/>
    <path d="M810 503.156C810 503.156 809.056 494.504 803.6 489.052C798.144 483.6 800.664 478.252 799.928 473.956C799.192 469.66 792.536 464.992 792.536 464.992C792.536 464.992 799.04 470.232 798.672 480.192C798.672 480.192 797.988 486.748 802.76 490.416C807.532 494.084 805.96 503.156 805.96 503.156H810Z" fill="#9FB1CC"/>
    <path d="M792.628 502.588L793.764 508.172L798.824 533.096H830.136L834.404 508.172L835.36 502.588H792.628Z" fill="#D6DEEC"/>
    <path d="M792.628 502.588L793.764 508.172H834.404L835.36 502.588H792.628Z" fill="#9FB1CC"/>
    <rect opacity="0.5" x="422.444" y="458.968" width="3.364" height="7.504" rx="0.368" fill="#D1D3D4"/>
    <rect opacity="0.5" x="428.072" y="458.968" width="3.364" height="7.504" rx="0.368" fill="#D1D3D4"/>
    <rect opacity="0.5" x="433.7" y="458.968" width="3.364" height="7.504" rx="0.368" fill="#D1D3D4"/>
    <rect opacity="0.5" x="439.332" y="458.968" width="3.364" height="7.504" rx="0.368" fill="#D1D3D4"/>
    <rect opacity="0.5" x="444.96" y="458.968" width="3.364" height="7.504" rx="0.368" fill="#D1D3D4"/>
    <rect opacity="0.5" x="450.588" y="458.968" width="3.364" height="7.504" rx="0.368" fill="#D1D3D4"/>
    <rect opacity="0.5" x="456.216" y="458.968" width="3.364" height="7.504" rx="0.368" fill="#D1D3D4"/>
    <path d="M424.124 507.5C430.341 507.5 435.38 502.461 435.38 496.244C435.38 490.028 430.341 484.988 424.124 484.988C417.908 484.988 412.868 490.028 412.868 496.244C412.868 502.461 417.908 507.5 424.124 507.5Z" fill="white"/>
    <path fill-rule="evenodd" clip-rule="evenodd" d="M429.326 495.628C430.117 495.073 430.937 494.497 432.136 494.552C434.708 494.672 434.536 498.988 434.536 498.988C434.536 498.988 432.164 496.232 431.12 497.472C430.076 498.712 426.756 497.388 426.28 496.988C426.178 497.297 426.011 497.579 425.788 497.816C426.624 498.777 427.619 498.79 428.662 498.804C429.629 498.817 430.638 498.83 431.6 499.6C433.6 501.2 430.948 504.544 430.948 504.544C430.948 504.544 430.712 500.908 429.076 501.308C427.508 501.684 425.604 498.7 425.444 498.084C425.18 498.273 424.879 498.401 424.56 498.46C424.673 499.746 425.487 500.358 426.332 500.995C427.101 501.574 427.896 502.173 428.212 503.316C428.896 505.796 424.752 506.964 424.752 506.964C424.752 506.964 426.716 503.876 425.152 503.244C423.652 502.64 423.876 499.1 424.112 498.5C423.788 498.495 423.469 498.422 423.176 498.284C422.521 499.362 422.814 500.31 423.122 501.308C423.408 502.236 423.707 503.206 423.272 504.364C422.368 506.768 418.332 505.28 418.332 505.28C418.332 505.28 421.676 503.856 420.828 502.48C419.98 501.104 422.248 498.36 422.78 498.028C422.521 497.835 422.306 497.588 422.152 497.304C420.976 497.811 420.654 498.752 420.316 499.738C420.004 500.65 419.678 501.6 418.652 502.28C416.516 503.696 414.116 500.116 414.116 500.116C414.116 500.116 417.656 501 417.772 499.316C417.888 497.7 421.352 496.816 421.972 496.864C421.899 496.646 421.86 496.418 421.856 496.188C421.859 496.094 421.869 496.001 421.884 495.908C420.635 495.616 419.806 496.198 418.942 496.804C418.151 497.36 417.331 497.936 416.132 497.88C413.56 497.78 413.732 493.48 413.732 493.48C413.732 493.48 416.104 496.236 417.148 494.996C418.192 493.756 421.512 495.08 421.988 495.48C422.09 495.172 422.256 494.89 422.476 494.652C421.643 493.692 420.652 493.68 419.612 493.667C418.645 493.655 417.635 493.643 416.668 492.868C414.66 491.26 417.324 487.884 417.324 487.884C417.324 487.884 417.56 491.516 419.196 491.116C420.764 490.744 422.668 493.728 422.828 494.344C423.092 494.156 423.393 494.027 423.712 493.968C423.6 492.693 422.805 492.102 421.97 491.481C421.196 490.906 420.389 490.305 420.06 489.112C419.376 486.632 423.516 485.464 423.516 485.464C423.516 485.464 421.552 488.552 423.116 489.184C424.616 489.788 424.392 493.328 424.156 493.928C424.48 493.933 424.799 494.006 425.092 494.144C425.747 493.053 425.452 492.106 425.143 491.111C424.855 490.187 424.555 489.222 424.992 488.064C425.9 485.66 429.936 487.148 429.936 487.148C429.936 487.148 426.592 488.572 427.44 489.948C428.288 491.324 426.02 494.068 425.488 494.4C425.747 494.593 425.962 494.84 426.116 495.124C427.292 494.617 427.614 493.676 427.952 492.69C428.264 491.779 428.59 490.829 429.616 490.148C431.752 488.732 434.152 492.312 434.152 492.312C434.152 492.312 430.612 491.432 430.496 493.112C430.38 494.732 426.912 495.616 426.296 495.568C426.369 495.786 426.408 496.014 426.412 496.244C426.412 496.293 426.405 496.34 426.398 496.387C426.391 496.433 426.384 496.479 426.384 496.524C427.633 496.816 428.462 496.234 429.326 495.628ZM422.816 496.786C423.037 497.32 423.558 497.668 424.136 497.668H424.124C424.504 497.672 424.871 497.524 425.141 497.257C425.412 496.989 425.564 496.625 425.564 496.244C425.566 495.666 425.219 495.144 424.685 494.922C424.152 494.7 423.537 494.821 423.128 495.229C422.718 495.637 422.596 496.252 422.816 496.786Z" fill="#E6E7E8"/>
    <path d="M424.124 494.884C423.373 494.886 422.767 495.496 422.768 496.247C422.77 496.997 423.379 497.605 424.129 497.604C424.88 497.603 425.488 496.995 425.488 496.244C425.488 495.883 425.344 495.536 425.088 495.281C424.832 495.026 424.485 494.883 424.124 494.884Z" fill="#9FB1CC"/>
    <path d="M427.74 108.192H449.3C452.025 108.191 454.64 109.273 456.567 111.199C458.495 113.125 459.579 115.739 459.58 118.464V140.3C459.581 156.29 447.723 169.801 431.868 171.876H423.6C407.746 169.8 395.889 156.29 395.888 140.3V140.036C395.887 131.589 399.243 123.487 405.217 117.515C411.19 111.543 419.293 108.189 427.74 108.192V108.192Z" fill="#D1D8EE"/>
    <path opacity="0.3" d="M368 206.548H458.52C458.804 206.54 459.079 206.648 459.282 206.846C459.485 207.044 459.6 207.316 459.6 207.6V214.052C459.6 214.633 459.129 215.104 458.548 215.104H368C367.421 215.104 366.952 214.635 366.952 214.056V207.6C366.952 207.021 367.421 206.55 368 206.548Z" fill="#DEE4F3"/>
    <path opacity="0.3" d="M422.424 218.66H486.272C486.853 218.66 487.324 219.131 487.324 219.712V226.164C487.324 226.745 486.853 227.216 486.272 227.216H422.424C421.845 227.216 421.376 226.747 421.376 226.168V219.712C421.376 219.133 421.845 218.662 422.424 218.66Z" fill="#DEE4F3"/>
    <path opacity="0.3" d="M381.348 230.776H445.2C445.781 230.776 446.252 231.247 446.252 231.828V238.28C446.252 238.861 445.781 239.332 445.2 239.332H381.348C380.769 239.332 380.3 238.863 380.3 238.284V231.824C380.302 231.246 380.77 230.778 381.348 230.776Z" fill="#DEE4F3"/>
    <path opacity="0.3" d="M395.816 242.512H483.744C484.023 242.512 484.291 242.623 484.488 242.82C484.685 243.017 484.796 243.285 484.796 243.564V250C484.796 250.279 484.685 250.547 484.488 250.744C484.291 250.941 484.023 251.052 483.744 251.052H395.816C395.237 251.052 394.768 250.583 394.768 250.004V243.564C394.768 242.985 395.237 242.514 395.816 242.512Z" fill="#DEE4F3"/>
    <path opacity="0.3" d="M383.272 254.252H468.984C469.565 254.252 470.036 254.723 470.036 255.304V261.756C470.036 262.337 469.565 262.808 468.984 262.808H383.272C382.693 262.808 382.224 262.339 382.224 261.76V255.3C382.224 254.719 382.695 254.248 383.276 254.248L383.272 254.252Z" fill="#DEE4F3"/>
    <path opacity="0.3" d="M398.532 266H480C480.581 266 481.052 266.471 481.052 267.052V273.504C481.052 274.085 480.581 274.556 480 274.556H398.532C397.953 274.556 397.484 274.087 397.484 273.508V267.04C397.491 266.465 397.957 266.002 398.532 266V266Z" fill="#DEE4F3"/>
    <path opacity="0.3" d="M369.7 277.728H420.324C420.603 277.728 420.871 277.839 421.068 278.036C421.265 278.233 421.376 278.501 421.376 278.78V285.232C421.376 285.511 421.265 285.779 421.068 285.976C420.871 286.173 420.603 286.284 420.324 286.284H369.7C369.121 286.284 368.652 285.815 368.652 285.236V278.78C368.652 278.199 369.123 277.728 369.704 277.728L369.7 277.728Z" fill="#DEE4F3"/>
    <path opacity="0.3" d="M384.76 289.468H475.24C475.821 289.468 476.292 289.939 476.292 290.52V296.972C476.292 297.553 475.821 298.024 475.24 298.024H384.76C384.181 298.024 383.712 297.555 383.712 296.976V290.516C383.712 289.935 384.183 289.464 384.764 289.464L384.76 289.468Z" fill="#DEE4F3"/>
    <path opacity="0.3" d="M417.732 301.2H481.6C482.181 301.2 482.652 301.671 482.652 302.252V308.704C482.652 309.285 482.181 309.756 481.6 309.756H417.732C417.153 309.756 416.684 309.287 416.684 308.708V302.256C416.683 301.977 416.793 301.709 416.989 301.511C417.186 301.313 417.453 301.201 417.732 301.2Z" fill="#DEE4F3"/>
    <path opacity="0.3" d="M387.464 312.944H451.312C451.893 312.944 452.364 313.415 452.364 313.996V320.448C452.364 321.029 451.893 321.5 451.312 321.5H387.464C386.885 321.5 386.416 321.031 386.416 320.452V314C386.416 313.419 386.887 312.948 387.468 312.948L387.464 312.944Z" fill="#DEE4F3"/>
    <path opacity="0.3" d="M422.424 324.684H486.272C486.853 324.684 487.324 325.155 487.324 325.736V332.188C487.324 332.769 486.853 333.24 486.272 333.24H422.424C421.845 333.24 421.376 332.771 421.376 332.192V325.732C421.378 325.154 421.846 324.686 422.424 324.684V324.684Z" fill="#DEE4F3"/>
    <path d="M233.164 153.82H318.996C328.529 153.822 336.256 161.551 336.256 171.084V471.26C336.257 474.903 337.706 478.397 340.284 480.972C342.861 483.546 346.357 484.991 350 484.988H370.98" stroke="#9FB1CC" stroke-width="0.8"/>
    <rect x="333.82" y="197.036" width="4.88" height="39.776" rx="1.3" fill="#D1D8EE"/>
    <path d="M623.84 153.82H538C528.467 153.822 520.74 161.551 520.74 171.084V471.26C520.738 478.841 514.593 484.986 507.012 484.988H486.032" stroke="#9FB1CC" stroke-width="0.8"/>
    <rect x="523.188" y="462.072" width="4.88" height="39.776" rx="1.3" transform="rotate(-180 523.188 462.072)" fill="#D1D8EE"/>
    <rect x="31.4761" y="34.8401" width="207.128" height="95.4" rx="8" fill="#4D86C6"/>
    <rect x="33.916" y="37.4241" width="202.204" height="90.064" rx="7.416" fill="white"/>
    <path d="M211.852 130.24L205.848 143L223.592 130.24" fill="#4D86C6"/>
    <path d="M134.32 58.188C146.616 58.188 156.584 48.2201 156.584 35.924C156.584 23.628 146.616 13.66 134.32 13.66C122.024 13.66 112.056 23.628 112.056 35.924C112.056 48.2201 122.024 58.188 134.32 58.188Z" fill="white"/>
    <path d="M154.328 48.3281C147.776 47.8601 140.024 45.6681 140.024 45.6681L135.04 45.8961L130.056 45.6681C130.056 45.6681 122.3 47.8601 115.752 48.3281C109.204 48.7961 111.072 62.4441 111.072 62.4441H159.008C159.008 62.4441 160.876 48.8001 154.328 48.3281Z" fill="#DEE4F3"/>
    <path fill-rule="evenodd" clip-rule="evenodd" d="M145.12 30.328C145.176 29.808 145.408 28.984 146.356 30.184C147.256 31.336 145.664 33.176 144.644 34.192C143.664 39.428 141.196 45.144 135.044 45.256C128.884 45.144 126.416 39.42 125.444 34.184C124.408 33.168 122.848 31.304 123.724 30.184C124.6 29.064 124.868 29.696 124.948 30.208C124.831 28.6815 124.809 27.1493 124.88 25.62H145.2C145.269 27.1895 145.243 28.7618 145.12 30.328Z" fill="#8D8BC3"/>
    <path d="M139.2 44.088L135.052 44.576L130.9 44.088L129.5 45.824C129.5 45.824 130.404 47.468 135.052 47.704C139.696 47.468 140.6 45.668 140.6 45.668L139.2 44.088Z" fill="#8D8BC3"/>
    <path d="M124.98 29.816C124.98 29.816 124.904 25.88 126.268 25.62C127.632 25.36 134.924 32.544 145.088 30.692C145.088 30.692 148.376 22.66 143.808 19.348C135.88 13.604 129.488 21.06 129.488 21.06C129.488 21.06 121.956 20.8 124.98 29.816Z" fill="#0E1338"/>
    <path d="M126.824 25.448C124.648 25.448 122.884 27.904 122.884 30.936C122.884 33.968 124.648 36.424 126.824 36.424" fill="#0E1338"/>
    <path d="M125.856 34.8601C125.856 34.8601 129.672 41.7721 135.612 41.1481" stroke="#0E1338" stroke-width="0.5"/>
    <path d="M66.66 75.1649H65.7342L62.6053 82.5653H62.5701L59.4354 75.1649H58.5155V83.62H59.2655V76.6825H59.3006L62.2362 83.579H62.9334L65.8748 76.6825H65.91V83.62H66.66V75.1649ZM73.6268 83.62H74.3944V77.3094H73.6268V83.62ZM70.3983 80.1102C71.3182 80.1102 71.9158 80.6669 71.9158 81.5399C71.9158 82.4012 71.3241 82.9696 70.3983 82.9696H69.033V80.1102H70.3983ZM68.2655 83.62H70.3983C71.7869 83.62 72.6893 82.8114 72.6893 81.5399C72.6893 80.2626 71.7869 79.454 70.3983 79.454H69.033V77.3094H68.2655V83.62ZM81.0096 77.9598C81.7889 77.9598 82.2342 78.3231 82.2342 78.9618C82.2342 79.6473 81.7596 80.0282 80.8866 80.0282H79.3338V77.9598H81.0096ZM80.951 80.6786C81.9705 80.6786 82.533 81.0536 82.533 81.8153C82.533 82.5712 82.035 82.9696 81.1033 82.9696H79.3338V80.6786H80.951ZM78.5662 83.62H81.1209C82.4803 83.62 83.2948 82.9579 83.2948 81.827C83.2948 80.9891 82.6971 80.4266 81.8885 80.3329V80.2977C82.5272 80.1688 82.9901 79.5829 82.9901 78.8915C82.9901 77.913 82.2694 77.3094 81.0975 77.3094H78.5662V83.62ZM89.869 83.62H90.6366V77.3094H89.869V83.62ZM86.6405 80.1102C87.5604 80.1102 88.158 80.6669 88.158 81.5399C88.158 82.4012 87.5662 82.9696 86.6405 82.9696H85.2752V80.1102H86.6405ZM84.5076 83.62H86.6405C88.0291 83.62 88.9315 82.8114 88.9315 81.5399C88.9315 80.2626 88.0291 79.454 86.6405 79.454H85.2752V77.3094H84.5076V83.62ZM97.2225 79.1727C97.0174 78.1122 96.0682 77.2391 94.6502 77.2391C92.9393 77.2391 91.8143 78.5106 91.8143 80.4618C91.8143 82.454 92.9451 83.6903 94.6619 83.6903C96.0037 83.6903 96.994 82.9227 97.2225 81.8036H96.4491C96.2264 82.5477 95.576 82.993 94.6619 82.993C93.4256 82.993 92.5994 82.0262 92.5994 80.4618C92.5994 78.9266 93.4198 77.9305 94.6561 77.9305C95.6112 77.9305 96.2557 78.4579 96.4491 79.1727H97.2225ZM99.7948 80.9071C99.8299 80.5555 99.9881 78.288 100.006 77.9598H102.555V83.62H103.322V77.3094H99.3084C99.2908 77.6552 99.0975 80.5145 99.0623 80.8778C98.9686 82.1083 98.7342 82.952 98.078 82.952C97.9198 82.952 97.7967 82.9169 97.7616 82.9052V83.6141C97.8084 83.6317 97.9315 83.6727 98.1131 83.6727C99.3201 83.6727 99.6658 82.536 99.7948 80.9071ZM106.855 83.0106C105.976 83.0106 105.379 82.5477 105.379 81.868C105.379 81.1591 105.941 80.7489 107.002 80.6786L108.847 80.5497V81.2469C108.847 82.243 107.986 83.0106 106.855 83.0106ZM106.703 83.6903C107.67 83.6903 108.525 83.1805 108.865 82.413H108.883V83.62H109.621V79.3192C109.621 78.0477 108.701 77.2391 107.254 77.2391C105.93 77.2391 104.933 78.0243 104.869 79.1317H105.613C105.754 78.3817 106.369 77.9305 107.248 77.9305C108.267 77.9305 108.847 78.4637 108.847 79.3837V79.9227L106.908 80.0516C105.396 80.1571 104.588 80.7841 104.588 81.8622C104.588 82.952 105.443 83.6903 106.703 83.6903ZM112.533 80.9071C112.568 80.5555 112.726 78.288 112.744 77.9598H115.293V83.62H116.06V77.3094H112.047C112.029 77.6552 111.836 80.5145 111.801 80.8778C111.707 82.1083 111.472 82.952 110.816 82.952C110.658 82.952 110.535 82.9169 110.5 82.9052V83.6141C110.547 83.6317 110.67 83.6727 110.851 83.6727C112.058 83.6727 112.404 82.536 112.533 80.9071ZM118.346 83.62L121.89 78.5165H121.926V83.62H122.693V77.3094H121.926L118.381 82.413H118.346V77.3094H117.578V83.62H118.346ZM130.082 83.62C131.869 83.62 132.941 82.7411 132.941 81.2997C132.941 80.1278 132.127 79.3368 130.961 79.1962V79.1552C131.857 78.9911 132.508 78.1884 132.508 77.2509C132.508 76.0028 131.517 75.1649 130.064 75.1649H126.953V83.62H130.082ZM127.75 75.8739H129.894C131.019 75.8739 131.699 76.4188 131.699 77.3387C131.699 78.3348 130.943 78.9208 129.66 78.9208H127.75V75.8739ZM127.75 82.911V79.6122H129.865C131.324 79.6122 132.121 80.204 132.121 81.2587C132.121 82.3075 131.353 82.911 129.976 82.911H127.75ZM136.129 83.0106C135.25 83.0106 134.652 82.5477 134.652 81.868C134.652 81.1591 135.215 80.7489 136.275 80.6786L138.121 80.5497V81.2469C138.121 82.243 137.26 83.0106 136.129 83.0106ZM135.976 83.6903C136.943 83.6903 137.799 83.1805 138.139 82.413H138.156V83.62H138.894V79.3192C138.894 78.0477 137.974 77.2391 136.527 77.2391C135.203 77.2391 134.207 78.0243 134.142 79.1317H134.887C135.027 78.3817 135.642 77.9305 136.521 77.9305C137.541 77.9305 138.121 78.4637 138.121 79.3837V79.9227L136.181 80.0516C134.67 80.1571 133.861 80.7841 133.861 81.8622C133.861 82.952 134.717 83.6903 135.976 83.6903ZM141.139 83.62V78.7157H141.174L143.482 83.4969H144.086L146.394 78.7157H146.43V83.62H147.203V77.3094H146.312L143.822 82.5946H143.787L141.291 77.3094H140.371V83.62H141.139ZM153.39 83.0106C152.512 83.0106 151.914 82.5477 151.914 81.868C151.914 81.1591 152.476 80.7489 153.537 80.6786L155.383 80.5497V81.2469C155.383 82.243 154.521 83.0106 153.39 83.0106ZM153.238 83.6903C154.205 83.6903 155.06 83.1805 155.4 82.413H155.418V83.62H156.156V79.3192C156.156 78.0477 155.236 77.2391 153.789 77.2391C152.465 77.2391 151.469 78.0243 151.404 79.1317H152.148C152.289 78.3817 152.904 77.9305 153.783 77.9305C154.803 77.9305 155.383 78.4637 155.383 79.3837V79.9227L153.443 80.0516C151.931 80.1571 151.123 80.7841 151.123 81.8622C151.123 82.952 151.978 83.6903 153.238 83.6903ZM159.221 80.3094L162.437 77.3094H161.453L158.435 80.1512H158.4V77.3094H157.633V83.62H158.4V80.5321H158.435L161.529 83.62H162.555L159.221 80.3094ZM167.945 77.3094H162.865V77.9598H165.021V83.62H165.789V77.9598H167.945V77.3094ZM169.416 85.8524C170.435 85.8524 170.875 85.4423 171.426 83.9657L173.904 77.3094H173.084L171.144 82.8348H171.127L169.193 77.3094H168.361L170.734 83.661L170.582 84.0887C170.289 84.8973 169.984 85.1844 169.404 85.1844C169.281 85.1844 169.123 85.1669 169.029 85.1434V85.8114C169.123 85.829 169.293 85.8524 169.416 85.8524ZM176.722 83.0106C175.844 83.0106 175.246 82.5477 175.246 81.868C175.246 81.1591 175.808 80.7489 176.869 80.6786L178.715 80.5497V81.2469C178.715 82.243 177.853 83.0106 176.722 83.0106ZM176.57 83.6903C177.537 83.6903 178.392 83.1805 178.732 82.413H178.75V83.62H179.488V79.3192C179.488 78.0477 178.568 77.2391 177.121 77.2391C175.797 77.2391 174.801 78.0243 174.736 79.1317H175.48C175.621 78.3817 176.236 77.9305 177.115 77.9305C178.135 77.9305 178.715 78.4637 178.715 79.3837V79.9227L176.775 80.0516C175.264 80.1571 174.455 80.7841 174.455 81.8622C174.455 82.952 175.31 83.6903 176.57 83.6903ZM182.4 80.9071C182.435 80.5555 182.594 78.288 182.611 77.9598H185.16V83.62H185.928V77.3094H181.914C181.896 77.6552 181.703 80.5145 181.668 80.8778C181.574 82.1083 181.34 82.952 180.683 82.952C180.525 82.952 180.402 82.9169 180.367 82.9052V83.6141C180.414 83.6317 180.537 83.6727 180.719 83.6727C181.926 83.6727 182.271 82.536 182.4 80.9071ZM189.578 80.1102C190.498 80.1102 191.096 80.6669 191.096 81.5399C191.096 82.4012 190.504 82.9696 189.578 82.9696H188.213V80.1102H189.578ZM187.445 83.62H189.578C190.967 83.62 191.869 82.8114 191.869 81.5399C191.869 80.2626 190.967 79.454 189.578 79.454H188.213V77.3094H187.445V83.62ZM197.301 83.62H198.068V77.3094H197.301V80.0165H193.803V77.3094H193.035V83.62H193.803V80.6669H197.301V83.62ZM200.06 85.8524C201.08 85.8524 201.519 85.4423 202.07 83.9657L204.549 77.3094H203.728L201.789 82.8348H201.771L199.838 77.3094H199.006L201.379 83.661L201.226 84.0887C200.933 84.8973 200.629 85.1844 200.049 85.1844C199.926 85.1844 199.767 85.1669 199.674 85.1434V85.8114C199.767 85.829 199.937 85.8524 200.06 85.8524ZM210.396 83.7313C212.119 83.7313 213.209 82.4891 213.209 80.4735C213.209 78.4462 212.119 77.204 210.396 77.204C208.808 77.204 207.765 78.2645 207.613 80.0165H206.248V77.3094H205.48V83.62H206.248V80.6669H207.59C207.666 82.5712 208.732 83.7313 210.396 83.7313ZM210.396 83.0399C209.137 83.0399 208.381 82.0731 208.381 80.4735C208.381 78.8622 209.137 77.9012 210.396 77.9012C211.656 77.9012 212.412 78.8622 212.412 80.4735C212.412 82.0731 211.656 83.0399 210.396 83.0399ZM99.9119 97.62L103.457 92.5165H103.492V97.62H104.26V91.3094H103.492L99.9471 96.413H99.9119V91.3094H99.1444V97.62H99.9119ZM110.031 97.62H110.799V91.3094H110.031V94.0165H106.533V91.3094H105.765V97.62H106.533V94.6669H110.031V97.62ZM115.31 97.0399C113.775 96.993 112.779 96.038 112.779 94.4735C112.779 92.9032 113.775 91.9423 115.31 91.9012V97.0399ZM118.586 94.4677C118.586 96.038 117.59 96.9989 116.06 97.0399V91.9012C117.59 91.9423 118.586 92.9032 118.586 94.4677ZM115.31 97.7079V99.7118H116.06V97.7079C118.047 97.6727 119.365 96.4364 119.365 94.4677C119.365 92.5048 118.047 91.2743 116.06 91.2333V89.1825H115.31V91.2333C113.318 91.2684 112 92.5048 112 94.4735C112 96.4305 113.318 97.6669 115.31 97.7079ZM123.115 97.6903C124.849 97.6903 125.986 96.4305 125.986 94.4618C125.986 92.493 124.849 91.2391 123.115 91.2391C121.381 91.2391 120.25 92.493 120.25 94.4618C120.25 96.4305 121.381 97.6903 123.115 97.6903ZM123.115 96.993C121.838 96.993 121.041 96.038 121.041 94.4618C121.041 92.8915 121.838 91.9305 123.115 91.9305C124.398 91.9305 125.195 92.8856 125.195 94.4618C125.195 96.038 124.398 96.993 123.115 96.993ZM130.123 91.2391C129.121 91.2391 128.271 91.8134 127.937 92.6161H127.92V91.3094H127.187V99.7118H127.961V96.3192H127.978C128.33 97.1395 129.121 97.6903 130.135 97.6903C131.722 97.6903 132.812 96.3895 132.812 94.4618C132.812 92.5399 131.717 91.2391 130.123 91.2391ZM129.988 96.993C128.787 96.993 127.955 95.9677 127.955 94.4618C127.955 92.9677 128.787 91.9305 129.988 91.9305C131.207 91.9305 132.021 92.9501 132.021 94.4677C132.021 95.9852 131.207 96.993 129.988 96.993ZM134.775 97.62V92.7157H134.81L137.119 97.4969H137.722L140.031 92.7157H140.066V97.62H140.84V91.3094H139.949L137.459 96.5946H137.424L134.928 91.3094H134.008V97.62H134.775ZM144.367 97.0106C143.488 97.0106 142.89 96.5477 142.89 95.868C142.89 95.1591 143.453 94.7489 144.514 94.6786L146.359 94.5497V95.2469C146.359 96.243 145.498 97.0106 144.367 97.0106ZM144.215 97.6903C145.181 97.6903 146.037 97.1805 146.377 96.413H146.394V97.62H147.133V93.3192C147.133 92.0477 146.213 91.2391 144.765 91.2391C143.441 91.2391 142.445 92.0243 142.381 93.1317H143.125C143.265 92.3817 143.881 91.9305 144.76 91.9305C145.779 91.9305 146.359 92.4637 146.359 93.3837V93.9227L144.42 94.0516C142.908 94.1571 142.099 94.7841 142.099 95.8622C142.099 96.952 142.955 97.6903 144.215 97.6903ZM154.568 99.2899V96.9696H153.543V91.3094H152.775V96.9696H149.377V91.3094H148.609V97.62H153.842V99.2899H154.568ZM156.291 97.62L159.836 92.5165H159.871V97.62H160.639V91.3094H159.871L156.326 96.413H156.291V91.3094H155.523V97.62H156.291ZM167.06 97.7313C168.783 97.7313 169.873 96.4891 169.873 94.4735C169.873 92.4462 168.783 91.204 167.06 91.204C165.472 91.204 164.43 92.2645 164.277 94.0165H162.912V91.3094H162.144V97.62H162.912V94.6669H164.254C164.33 96.5712 165.396 97.7313 167.06 97.7313ZM167.06 97.0399C165.801 97.0399 165.045 96.0731 165.045 94.4735C165.045 92.8622 165.801 91.9012 167.06 91.9012C168.32 91.9012 169.076 92.8622 169.076 94.4735C169.076 96.0731 168.32 97.0399 167.06 97.0399ZM171.437 97.6786C171.754 97.6786 171.994 97.4325 171.994 97.1219C171.994 96.8055 171.754 96.5653 171.437 96.5653C171.127 96.5653 170.881 96.8055 170.881 97.1219C170.881 97.4325 171.127 97.6786 171.437 97.6786Z" fill="#9FB1CC"/>
    <rect x="816.072" y="130.24" width="207.128" height="95.4" rx="8" transform="rotate(-180 816.072 130.24)" fill="#4D86C6"/>
    <rect x="813.628" y="127.488" width="202.204" height="90.064" rx="7.416" transform="rotate(-180 813.628 127.488)" fill="white"/>
    <path d="M635.692 130.24L641.696 143L623.952 130.24" fill="#4D86C6"/>
    <path d="M713.22 58.188C725.516 58.188 735.484 48.2201 735.484 35.924C735.484 23.628 725.516 13.66 713.22 13.66C700.924 13.66 690.956 23.628 690.956 35.924C690.956 48.2201 700.924 58.188 713.22 58.188Z" fill="white"/>
    <path d="M693.2 48.3281C699.752 47.8601 707.504 45.6681 707.504 45.6681L712.488 45.8961L717.472 45.6681C717.472 45.6681 725.228 47.8601 731.776 48.3281C738.324 48.7961 736.456 62.4441 736.456 62.4441H688.536C688.536 62.4441 686.668 48.8001 693.2 48.3281Z" fill="#8D8BC3"/>
    <path fill-rule="evenodd" clip-rule="evenodd" d="M712.516 45.24C706.356 45.128 703.888 39.412 702.916 34.176C701.88 33.176 700.252 31.38 701.2 30.168C702.148 28.956 702.38 29.792 702.436 30.312C702.315 28.7457 702.289 27.1734 702.36 25.604H722.68C722.751 27.1333 722.729 28.6655 722.612 30.192C722.692 29.68 722.94 29.004 723.836 30.168C724.732 31.332 723.152 33.168 722.116 34.168C721.14 39.404 718.672 45.128 712.516 45.24Z" fill="#DEE4F3"/>
    <path d="M708.356 44.088L712.504 44.576L716.656 44.088L718.056 45.824C718.056 45.824 717.152 47.468 712.504 47.704C707.856 47.468 706.956 45.668 706.956 45.668L708.356 44.088Z" fill="#DEE4F3"/>
    <path d="M722.564 29.816C722.564 29.816 722.64 25.88 721.276 25.62C719.912 25.36 712.62 32.544 702.476 30.692C702.476 30.692 699.188 22.66 703.756 19.348C711.684 13.604 718.076 21.06 718.076 21.06C718.076 21.06 725.6 20.8 722.564 29.816Z" fill="#0E1338"/>
    <path d="M720.72 25.448C722.896 25.448 724.66 27.904 724.66 30.936C724.66 33.968 722.896 36.424 720.72 36.424" fill="#0E1338"/>
    <path d="M721.688 34.8601C721.688 34.8601 717.872 41.7721 711.932 41.1481" stroke="#0E1338" stroke-width="0.5"/>
    <path d="M636.964 79.6986C638.142 79.6986 638.733 78.972 639.454 77.3021L642.108 71.1849H641.271L638.897 76.8392H638.856L636.384 71.1849H635.522L638.458 77.7416C638.077 78.5033 637.655 78.9545 636.964 78.9545C636.765 78.9545 636.606 78.9252 636.524 78.9017V79.6283C636.589 79.6576 636.753 79.6986 636.964 79.6986ZM648.911 79.64C650.698 79.64 651.771 78.7611 651.771 77.3197C651.771 76.1478 650.956 75.3568 649.79 75.2162V75.1752C650.687 75.0111 651.337 74.2084 651.337 73.2709C651.337 72.0228 650.347 71.1849 648.894 71.1849H645.782V79.64H648.911ZM646.579 71.8939H648.724C649.849 71.8939 650.528 72.4388 650.528 73.3588C650.528 74.3549 649.772 74.9408 648.489 74.9408H646.579V71.8939ZM646.579 78.931V75.6322H648.694C650.153 75.6322 650.95 76.224 650.95 77.2787C650.95 78.3275 650.183 78.931 648.806 78.931H646.579ZM654.958 79.0306C654.079 79.0306 653.481 78.5677 653.481 77.8881C653.481 77.1791 654.044 76.7689 655.104 76.6986L656.95 76.5697V77.267C656.95 78.2631 656.089 79.0306 654.958 79.0306ZM654.806 79.7103C655.772 79.7103 656.628 79.2006 656.968 78.433H656.985V79.64H657.724V75.3392C657.724 74.0677 656.804 73.2592 655.356 73.2592C654.032 73.2592 653.036 74.0443 652.972 75.1517H653.716C653.856 74.4017 654.472 73.9506 655.351 73.9506C656.37 73.9506 656.95 74.4838 656.95 75.4037V75.9427L655.011 76.0717C653.499 76.1771 652.69 76.8041 652.69 77.8822C652.69 78.972 653.546 79.7103 654.806 79.7103ZM664.274 75.1927C664.069 74.1322 663.12 73.2592 661.702 73.2592C659.991 73.2592 658.866 74.5306 658.866 76.4818C658.866 78.474 659.997 79.7103 661.714 79.7103C663.056 79.7103 664.046 78.9427 664.274 77.8236H663.501C663.278 78.5677 662.628 79.0131 661.714 79.0131C660.478 79.0131 659.651 78.0463 659.651 76.4818C659.651 74.9467 660.472 73.9506 661.708 73.9506C662.663 73.9506 663.308 74.4779 663.501 75.1927H664.274ZM670.515 73.9799C671.294 73.9799 671.739 74.3431 671.739 74.9818C671.739 75.6674 671.265 76.0482 670.392 76.0482H668.839V73.9799H670.515ZM670.456 76.6986C671.476 76.6986 672.038 77.0736 672.038 77.8353C672.038 78.5912 671.54 78.9896 670.608 78.9896H668.839V76.6986H670.456ZM668.071 79.64H670.626C671.985 79.64 672.8 78.9779 672.8 77.847C672.8 77.0092 672.202 76.4467 671.394 76.3529V76.3177C672.032 76.1888 672.495 75.6029 672.495 74.9115C672.495 73.933 671.774 73.3295 670.603 73.3295H668.071V79.64ZM676.562 79.7103C678.296 79.7103 679.433 78.4506 679.433 76.4818C679.433 74.5131 678.296 73.2592 676.562 73.2592C674.827 73.2592 673.696 74.5131 673.696 76.4818C673.696 78.4506 674.827 79.7103 676.562 79.7103ZM676.562 79.0131C675.284 79.0131 674.487 78.058 674.487 76.4818C674.487 74.9115 675.284 73.9506 676.562 73.9506C677.845 73.9506 678.642 74.9056 678.642 76.4818C678.642 78.058 677.845 79.0131 676.562 79.0131ZM682.696 79.7513C684.108 79.7513 685.058 79.0072 685.058 77.8353C685.058 77.0209 684.519 76.4994 683.692 76.347V76.3119C684.372 76.1654 684.841 75.597 684.841 74.9056C684.841 73.9037 684.073 73.224 682.714 73.224C681.372 73.224 680.522 73.933 680.37 74.9525H681.126C681.249 74.3256 681.823 73.8861 682.714 73.8861C683.61 73.8861 684.085 74.3256 684.085 74.9525C684.085 75.6556 683.581 76.0482 682.667 76.0482H681.688V76.6986H682.667C683.71 76.6986 684.296 77.0677 684.296 77.8763C684.296 78.6146 683.698 79.0951 682.696 79.0951C681.759 79.0951 681.167 78.6615 681.026 78.0287H680.241C680.382 79.0599 681.325 79.7513 682.696 79.7513ZM690.548 79.64H691.315V73.3295H690.548V76.0365H687.05V73.3295H686.282V79.64H687.05V76.6869H690.548V79.64ZM693.601 79.64L697.146 74.5365H697.181V79.64H697.948V73.3295H697.181L693.636 78.433H693.601V73.3295H692.833V79.64H693.601ZM701.042 76.3295L704.259 73.3295H703.274L700.257 76.1713H700.222V73.3295H699.454V79.64H700.222V76.5521H700.257L703.351 79.64H704.376L701.042 76.3295ZM706.714 76.9271C706.749 76.5756 706.907 74.308 706.925 73.9799H709.474V79.64H710.241V73.3295H706.228C706.21 73.6752 706.017 76.5345 705.981 76.8978C705.888 78.1283 705.653 78.972 704.997 78.972C704.839 78.972 704.716 78.9369 704.681 78.9252V79.6342C704.728 79.6517 704.851 79.6927 705.032 79.6927C706.239 79.6927 706.585 78.556 706.714 76.9271ZM712.526 79.64L716.071 74.5365H716.106V79.64H716.874V73.3295H716.106L712.562 78.433H712.526V73.3295H711.759V79.64H712.526ZM725.247 79.64H726.015V73.3295H721.04V79.64H721.808V73.9799H725.247V79.64ZM730.468 73.2592C729.466 73.2592 728.616 73.8334 728.282 74.6361H728.265V73.3295H727.532V81.7318H728.306V78.3392H728.323C728.675 79.1595 729.466 79.7103 730.479 79.7103C732.067 79.7103 733.157 78.4095 733.157 76.4818C733.157 74.5599 732.062 73.2592 730.468 73.2592ZM730.333 79.0131C729.132 79.0131 728.3 77.9877 728.3 76.4818C728.3 74.9877 729.132 73.9506 730.333 73.9506C731.552 73.9506 732.366 74.9701 732.366 76.4877C732.366 78.0052 731.552 79.0131 730.333 79.0131ZM736.901 79.7103C738.636 79.7103 739.772 78.4506 739.772 76.4818C739.772 74.5131 738.636 73.2592 736.901 73.2592C735.167 73.2592 734.036 74.5131 734.036 76.4818C734.036 78.4506 735.167 79.7103 736.901 79.7103ZM736.901 79.0131C735.624 79.0131 734.827 78.058 734.827 76.4818C734.827 74.9115 735.624 73.9506 736.901 73.9506C738.185 73.9506 738.981 74.9056 738.981 76.4818C738.981 78.058 738.185 79.0131 736.901 79.0131ZM743.61 79.7513C745.386 79.7513 746.499 78.5092 746.499 76.5287C746.499 74.6302 745.415 73.4115 743.716 73.4115C742.667 73.4115 741.835 73.8861 741.431 74.7474H741.396C741.647 72.4974 742.228 71.6361 744.067 71.5892C744.196 71.5892 744.636 71.5717 744.741 71.5599C745.339 71.5248 745.89 71.3959 746.083 71.2435V70.5638C745.772 70.722 745.222 70.8158 744.7 70.851C744.601 70.8627 744.173 70.8802 744.038 70.8802C741.595 70.9447 740.728 72.3685 740.728 76.0248C740.728 78.4506 741.735 79.7513 743.61 79.7513ZM743.61 79.0599C742.304 79.0599 741.519 78.1107 741.519 76.5287C741.519 75.0111 742.304 74.1029 743.61 74.1029C744.917 74.1029 745.708 75.0111 745.708 76.5287C745.708 78.1049 744.917 79.0599 743.61 79.0599ZM749.019 76.9271C749.054 76.5756 749.212 74.308 749.229 73.9799H751.778V79.64H752.546V73.3295H748.532C748.515 73.6752 748.321 76.5345 748.286 76.8978C748.192 78.1283 747.958 78.972 747.302 78.972C747.144 78.972 747.021 78.9369 746.985 78.9252V79.6342C747.032 79.6517 747.155 79.6927 747.337 79.6927C748.544 79.6927 748.89 78.556 749.019 76.9271ZM756.548 73.9447C757.69 73.9447 758.464 74.7885 758.476 76.0424H754.55C754.62 74.7885 755.417 73.9447 756.548 73.9447ZM758.435 77.8529C758.247 78.5443 757.573 79.0248 756.624 79.0248C755.37 79.0248 754.55 78.1459 754.55 76.7162V76.6752H759.284V76.3353C759.284 74.4603 758.218 73.2592 756.56 73.2592C754.86 73.2592 753.747 74.5424 753.747 76.4994C753.747 78.4857 754.86 79.7103 756.606 79.7103C757.978 79.7103 759.015 78.931 759.202 77.8529H758.435ZM761.253 79.64V74.7357H761.288L763.597 79.517H764.2L766.509 74.7357H766.544V79.64H767.317V73.3295H766.427L763.937 78.6146H763.901L761.405 73.3295H760.485V79.64H761.253ZM774.19 79.64H774.958V73.3295H774.19V79.64ZM770.962 76.1302C771.882 76.1302 772.479 76.6869 772.479 77.5599C772.479 78.4213 771.888 78.9896 770.962 78.9896H769.597V76.1302H770.962ZM768.829 79.64H770.962C772.351 79.64 773.253 78.8314 773.253 77.5599C773.253 76.2826 772.351 75.474 770.962 75.474H769.597V73.3295H768.829V79.64ZM793.544 75.1927C793.339 74.1322 792.39 73.2592 790.972 73.2592C789.261 73.2592 788.136 74.5306 788.136 76.4818C788.136 78.474 789.267 79.7103 790.983 79.7103C792.325 79.7103 793.315 78.9427 793.544 77.8236H792.771C792.548 78.5677 791.897 79.0131 790.983 79.0131C789.747 79.0131 788.921 78.0463 788.921 76.4818C788.921 74.9467 789.741 73.9506 790.978 73.9506C791.933 73.9506 792.577 74.4779 792.771 75.1927H793.544ZM668.944 93.7103C670.679 93.7103 671.815 92.4506 671.815 90.4818C671.815 88.5131 670.679 87.2592 668.944 87.2592C667.21 87.2592 666.079 88.5131 666.079 90.4818C666.079 92.4506 667.21 93.7103 668.944 93.7103ZM668.944 93.0131C667.667 93.0131 666.87 92.058 666.87 90.4818C666.87 88.9115 667.667 87.9506 668.944 87.9506C670.228 87.9506 671.024 88.9056 671.024 90.4818C671.024 92.058 670.228 93.0131 668.944 93.0131ZM677.224 93.64H677.991V87.3295H673.017V93.64H673.784V87.9799H677.224V93.64ZM680.944 90.9271C680.979 90.5756 681.138 88.308 681.155 87.9799H683.704V93.64H684.472V87.3295H680.458C680.44 87.6752 680.247 90.5345 680.212 90.8978C680.118 92.1283 679.884 92.972 679.228 92.972C679.069 92.972 678.946 92.9369 678.911 92.9252V93.6342C678.958 93.6517 679.081 93.6927 679.263 93.6927C680.47 93.6927 680.815 92.556 680.944 90.9271ZM688.005 93.0306C687.126 93.0306 686.528 92.5677 686.528 91.8881C686.528 91.1791 687.091 90.7689 688.151 90.6986L689.997 90.5697V91.267C689.997 92.2631 689.136 93.0306 688.005 93.0306ZM687.853 93.7103C688.819 93.7103 689.675 93.2006 690.015 92.433H690.032V93.64H690.771V89.3392C690.771 88.0677 689.851 87.2592 688.403 87.2592C687.079 87.2592 686.083 88.0443 686.019 89.1517H686.763C686.903 88.4017 687.519 87.9506 688.397 87.9506C689.417 87.9506 689.997 88.4838 689.997 89.4037V89.9427L688.058 90.0717C686.546 90.1771 685.737 90.8041 685.737 91.8822C685.737 92.972 686.593 93.7103 687.853 93.7103ZM696.688 87.3295H691.608V87.9799H693.765V93.64H694.532V87.9799H696.688V87.3295ZM700.046 93.7103C701.78 93.7103 702.917 92.4506 702.917 90.4818C702.917 88.5131 701.78 87.2592 700.046 87.2592C698.312 87.2592 697.181 88.5131 697.181 90.4818C697.181 92.4506 698.312 93.7103 700.046 93.7103ZM700.046 93.0131C698.769 93.0131 697.972 92.058 697.972 90.4818C697.972 88.9115 698.769 87.9506 700.046 87.9506C701.329 87.9506 702.126 88.9056 702.126 90.4818C702.126 92.058 701.329 93.0131 700.046 93.0131ZM704.974 84.6752C704.974 85.683 705.677 86.351 706.737 86.351C707.792 86.351 708.495 85.683 708.495 84.6752H707.903C707.903 85.3724 707.452 85.8646 706.737 85.8646C706.017 85.8646 705.565 85.3724 705.565 84.6752H704.974ZM704.886 93.64L708.431 88.5365H708.466V93.64H709.233V87.3295H708.466L704.921 92.433H704.886V87.3295H704.118V93.64H704.886ZM710.323 87.3177H711.085C711.161 86.392 711.812 85.806 712.749 85.806C713.692 85.806 714.354 86.4095 714.354 87.2416C714.354 87.8744 714.067 88.2845 713.335 88.7709C712.515 89.3041 712.175 89.7963 712.181 90.5697V91.1205H712.96V90.681C712.96 90.0306 713.177 89.6967 713.944 89.2045C714.747 88.6888 715.181 88.0736 715.181 87.2064C715.181 86.0111 714.19 85.1088 712.778 85.1088C711.267 85.1088 710.394 86.0756 710.323 87.3177ZM712.579 93.6986C712.896 93.6986 713.136 93.4525 713.136 93.142C713.136 92.8256 712.896 92.5853 712.579 92.5853C712.269 92.5853 712.022 92.8256 712.022 93.142C712.022 93.4525 712.269 93.6986 712.579 93.6986ZM720.753 90.6927L721.046 85.9115H724.603V92.9135H720.114V92.8724C720.56 92.392 720.688 91.6713 720.753 90.6927ZM719.224 93.64H725.728V95.3099H726.478V92.9135H725.405V85.1849H720.325L719.991 90.6635C719.927 91.7943 719.687 92.597 719.077 92.9135H718.479V95.3099H719.224V93.64ZM729.513 93.0306C728.634 93.0306 728.036 92.5677 728.036 91.8881C728.036 91.1791 728.599 90.7689 729.659 90.6986L731.505 90.5697V91.267C731.505 92.2631 730.644 93.0306 729.513 93.0306ZM729.36 93.7103C730.327 93.7103 731.183 93.2006 731.522 92.433H731.54V93.64H732.278V89.3392C732.278 88.0677 731.358 87.2592 729.911 87.2592C728.587 87.2592 727.591 88.0443 727.526 89.1517H728.271C728.411 88.4017 729.026 87.9506 729.905 87.9506C730.925 87.9506 731.505 88.4838 731.505 89.4037V89.9427L729.565 90.0717C728.054 90.1771 727.245 90.8041 727.245 91.8822C727.245 92.972 728.101 93.7103 729.36 93.7103ZM736.198 87.9799C736.978 87.9799 737.423 88.3431 737.423 88.9818C737.423 89.6674 736.948 90.0482 736.075 90.0482H734.522V87.9799H736.198ZM736.14 90.6986C737.159 90.6986 737.722 91.0736 737.722 91.8353C737.722 92.5912 737.224 92.9896 736.292 92.9896H734.522V90.6986H736.14ZM733.755 93.64H736.31C737.669 93.64 738.483 92.9779 738.483 91.847C738.483 91.0092 737.886 90.4467 737.077 90.3529V90.3177C737.716 90.1888 738.179 89.6029 738.179 88.9115C738.179 87.933 737.458 87.3295 736.286 87.3295H733.755V93.64ZM741.712 93.0306C740.833 93.0306 740.235 92.5677 740.235 91.8881C740.235 91.1791 740.798 90.7689 741.858 90.6986L743.704 90.5697V91.267C743.704 92.2631 742.843 93.0306 741.712 93.0306ZM741.56 93.7103C742.526 93.7103 743.382 93.2006 743.722 92.433H743.739V93.64H744.478V89.3392C744.478 88.0677 743.558 87.2592 742.11 87.2592C740.786 87.2592 739.79 88.0443 739.726 89.1517H740.47C740.61 88.4017 741.226 87.9506 742.104 87.9506C743.124 87.9506 743.704 88.4838 743.704 89.4037V89.9427L741.765 90.0717C740.253 90.1771 739.444 90.8041 739.444 91.8822C739.444 92.972 740.3 93.7103 741.56 93.7103ZM746.81 84.6752C746.81 85.683 747.513 86.351 748.573 86.351C749.628 86.351 750.331 85.683 750.331 84.6752H749.739C749.739 85.3724 749.288 85.8646 748.573 85.8646C747.853 85.8646 747.401 85.3724 747.401 84.6752H746.81ZM746.722 93.64L750.267 88.5365H750.302V93.64H751.069V87.3295H750.302L746.757 92.433H746.722V87.3295H745.954V93.64H746.722ZM757.134 87.3295H752.054V87.9799H754.21V93.64H754.978V87.9799H757.134V87.3295ZM760.427 87.9447C761.569 87.9447 762.343 88.7885 762.354 90.0424H758.429C758.499 88.7885 759.296 87.9447 760.427 87.9447ZM762.313 91.8529C762.126 92.5443 761.452 93.0248 760.503 93.0248C759.249 93.0248 758.429 92.1459 758.429 90.7162V90.6752H763.163V90.3353C763.163 88.4603 762.097 87.2592 760.438 87.2592C758.739 87.2592 757.626 88.5424 757.626 90.4994C757.626 92.4857 758.739 93.7103 760.485 93.7103C761.856 93.7103 762.894 92.931 763.081 91.8529H762.313ZM681.091 101.259C680.089 101.259 679.239 101.833 678.905 102.636H678.888V101.329H678.155V109.732H678.929V106.339H678.946C679.298 107.16 680.089 107.71 681.103 107.71C682.69 107.71 683.78 106.41 683.78 104.482C683.78 102.56 682.685 101.259 681.091 101.259ZM680.956 107.013C679.755 107.013 678.923 105.988 678.923 104.482C678.923 102.988 679.755 101.951 680.956 101.951C682.175 101.951 682.989 102.97 682.989 104.488C682.989 106.005 682.175 107.013 680.956 107.013ZM686.991 107.031C686.112 107.031 685.515 106.568 685.515 105.888C685.515 105.179 686.077 104.769 687.138 104.699L688.983 104.57V105.267C688.983 106.263 688.122 107.031 686.991 107.031ZM686.839 107.71C687.806 107.71 688.661 107.201 689.001 106.433H689.019V107.64H689.757V103.339C689.757 102.068 688.837 101.259 687.39 101.259C686.065 101.259 685.069 102.044 685.005 103.152H685.749C685.89 102.402 686.505 101.951 687.384 101.951C688.403 101.951 688.983 102.484 688.983 103.404V103.943L687.044 104.072C685.532 104.177 684.724 104.804 684.724 105.882C684.724 106.972 685.579 107.71 686.839 107.71ZM693.296 107.751C694.708 107.751 695.657 107.007 695.657 105.835C695.657 105.021 695.118 104.499 694.292 104.347V104.312C694.972 104.165 695.44 103.597 695.44 102.906C695.44 101.904 694.673 101.224 693.313 101.224C691.972 101.224 691.122 101.933 690.97 102.953H691.726C691.849 102.326 692.423 101.886 693.313 101.886C694.21 101.886 694.685 102.326 694.685 102.953C694.685 103.656 694.181 104.048 693.267 104.048H692.288V104.699H693.267C694.31 104.699 694.896 105.068 694.896 105.876C694.896 106.615 694.298 107.095 693.296 107.095C692.358 107.095 691.767 106.661 691.626 106.029H690.841C690.981 107.06 691.925 107.751 693.296 107.751ZM699.519 107.751C701.294 107.751 702.407 106.509 702.407 104.529C702.407 102.63 701.323 101.411 699.624 101.411C698.575 101.411 697.743 101.886 697.339 102.747H697.304C697.556 100.497 698.136 99.6361 699.976 99.5892C700.104 99.5892 700.544 99.5717 700.649 99.5599C701.247 99.5248 701.798 99.3959 701.991 99.2435V98.5638C701.681 98.722 701.13 98.8158 700.608 98.851C700.509 98.8627 700.081 98.8802 699.946 98.8802C697.503 98.9447 696.636 100.369 696.636 104.025C696.636 106.451 697.644 107.751 699.519 107.751ZM699.519 107.06C698.212 107.06 697.427 106.111 697.427 104.529C697.427 103.011 698.212 102.103 699.519 102.103C700.825 102.103 701.616 103.011 701.616 104.529C701.616 106.105 700.825 107.06 699.519 107.06ZM706.093 101.945C707.235 101.945 708.009 102.788 708.021 104.042H704.095C704.165 102.788 704.962 101.945 706.093 101.945ZM707.979 105.853C707.792 106.544 707.118 107.025 706.169 107.025C704.915 107.025 704.095 106.146 704.095 104.716V104.675H708.829V104.335C708.829 102.46 707.763 101.259 706.104 101.259C704.405 101.259 703.292 102.542 703.292 104.499C703.292 106.486 704.405 107.71 706.151 107.71C707.522 107.71 708.56 106.931 708.747 105.853H707.979ZM712.966 101.259C711.964 101.259 711.114 101.833 710.78 102.636H710.763V101.329H710.03V109.732H710.804V106.339H710.821C711.173 107.16 711.964 107.71 712.978 107.71C714.565 107.71 715.655 106.41 715.655 104.482C715.655 102.56 714.56 101.259 712.966 101.259ZM712.831 107.013C711.63 107.013 710.798 105.988 710.798 104.482C710.798 102.988 711.63 101.951 712.831 101.951C714.05 101.951 714.864 102.97 714.864 104.488C714.864 106.005 714.05 107.013 712.831 107.013ZM719.335 101.945C720.478 101.945 721.251 102.788 721.263 104.042H717.337C717.407 102.788 718.204 101.945 719.335 101.945ZM721.222 105.853C721.034 106.544 720.36 107.025 719.411 107.025C718.157 107.025 717.337 106.146 717.337 104.716V104.675H722.071V104.335C722.071 102.46 721.005 101.259 719.347 101.259C717.647 101.259 716.534 102.542 716.534 104.499C716.534 106.486 717.647 107.71 719.394 107.71C720.765 107.71 721.802 106.931 721.989 105.853H721.222ZM724.04 107.64V102.736H724.075L726.384 107.517H726.987L729.296 102.736H729.331V107.64H730.104V101.329H729.214L726.724 106.615H726.688L724.192 101.329H723.272V107.64H724.04ZM736.69 103.193C736.485 102.132 735.536 101.259 734.118 101.259C732.407 101.259 731.282 102.531 731.282 104.482C731.282 106.474 732.413 107.71 734.13 107.71C735.472 107.71 736.462 106.943 736.69 105.824H735.917C735.694 106.568 735.044 107.013 734.13 107.013C732.894 107.013 732.067 106.046 732.067 104.482C732.067 102.947 732.888 101.951 734.124 101.951C735.079 101.951 735.724 102.478 735.917 103.193H736.69ZM739.937 104.605C739.017 104.605 738.419 104.083 738.419 103.322C738.419 102.49 739.011 101.98 739.937 101.98H741.36V104.605H739.937ZM741.36 107.64H742.128V101.329H739.937C738.542 101.329 737.651 102.091 737.651 103.339C737.651 104.265 738.249 104.927 739.228 105.126L737.382 107.64H738.284L740.019 105.255H741.36V107.64ZM744.378 107.699C744.694 107.699 744.935 107.453 744.935 107.142C744.935 106.826 744.694 106.585 744.378 106.585C744.067 106.585 743.821 106.826 743.821 107.142C743.821 107.453 744.067 107.699 744.378 107.699ZM747.366 107.699C747.683 107.699 747.923 107.453 747.923 107.142C747.923 106.826 747.683 106.585 747.366 106.585C747.056 106.585 746.81 106.826 746.81 107.142C746.81 107.453 747.056 107.699 747.366 107.699ZM750.354 107.699C750.671 107.699 750.911 107.453 750.911 107.142C750.911 106.826 750.671 106.585 750.354 106.585C750.044 106.585 749.798 106.826 749.798 107.142C749.798 107.453 750.044 107.699 750.354 107.699Z" fill="#9FB1CC"/>
    <rect x="378.968" y="70.7001" width="100.82" height="11.76" rx="1.436" fill="#9FB1CC"/>
    <rect x="431.232" y="12.6681" width="63.908" height="3.7" transform="rotate(90 431.232 12.6681)" fill="#9FB1CC"/>
    <defs>
        <linearGradient id="paint0_linear" x1="299.026" y1="533.604" x2="299.026" y2="360.664" gradientUnits="userSpaceOnUse">
            <stop stop-color="#284D5C"/>
            <stop offset="1" stop-color="#1A225F"/>
        </linearGradient>
        <linearGradient id="paint1_linear" x1="294.802" y1="385.532" x2="294.802" y2="360.664" gradientUnits="userSpaceOnUse">
            <stop stop-color="#284D5C"/>
            <stop offset="1" stop-color="#01003A"/>
        </linearGradient>
        <linearGradient id="paint2_linear" x1="309.744" y1="367.34" x2="309.744" y2="297.104" gradientUnits="userSpaceOnUse">
            <stop stop-color="#764C9F"/>
            <stop offset="1" stop-color="#6979BB"/>
        </linearGradient>
        <linearGradient id="paint3_linear" x1="228" y1="542.067" x2="249.936" y2="542.067" gradientUnits="userSpaceOnUse">
            <stop stop-color="#284D5C"/>
            <stop offset="1" stop-color="#1A225F"/>
        </linearGradient>
        <linearGradient id="paint4_linear" x1="273.492" y1="378.246" x2="292.096" y2="378.246" gradientUnits="userSpaceOnUse">
            <stop stop-color="#284D5C"/>
            <stop offset="1" stop-color="#01003A"/>
        </linearGradient>
        <linearGradient id="paint5_linear" x1="253.217" y1="376.766" x2="254.234" y2="370.949" gradientUnits="userSpaceOnUse">
            <stop stop-color="#284D5C"/>
            <stop offset="1" stop-color="#01003A"/>
        </linearGradient>
        <linearGradient id="paint6_linear" x1="236.388" y1="379.65" x2="328.804" y2="379.65" gradientUnits="userSpaceOnUse">
            <stop stop-color="#6979BB"/>
            <stop offset="1" stop-color="#764C9F"/>
        </linearGradient>
        <linearGradient id="paint7_linear" x1="279.876" y1="542.76" x2="295.644" y2="542.76" gradientUnits="userSpaceOnUse">
            <stop stop-color="#284D5C"/>
            <stop offset="1" stop-color="#1A225F"/>
        </linearGradient>
        <linearGradient id="paint8_linear" x1="274.641" y1="486.492" x2="274.641" y2="397.872" gradientUnits="userSpaceOnUse">
            <stop stop-color="#284D5C"/>
            <stop offset="1" stop-color="#01003A"/>
        </linearGradient>
        <linearGradient id="paint9_linear" x1="626.288" y1="534.2" x2="626.288" y2="362.62" gradientUnits="userSpaceOnUse">
            <stop stop-color="#284D5C"/>
            <stop offset="1" stop-color="#1A225F"/>
        </linearGradient>
        <linearGradient id="paint10_linear" x1="632.58" y1="533.868" x2="610.78" y2="533.868" gradientUnits="userSpaceOnUse">
            <stop stop-color="#284D5C"/>
            <stop offset="1" stop-color="#1A225F"/>
        </linearGradient>
        <linearGradient id="paint11_linear" x1="571.576" y1="533.292" x2="555.872" y2="533.292" gradientUnits="userSpaceOnUse">
            <stop stop-color="#284D5C"/>
            <stop offset="1" stop-color="#1A225F"/>
        </linearGradient>
        <linearGradient id="paint12_linear" x1="633.025" y1="368.504" x2="633.025" y2="298.54" gradientUnits="userSpaceOnUse">
            <stop stop-color="#764C9F"/>
            <stop offset="1" stop-color="#6979BB"/>
        </linearGradient>
        <linearGradient id="paint13_linear" x1="589.691" y1="476.764" x2="589.691" y2="399.668" gradientUnits="userSpaceOnUse">
            <stop stop-color="#284D5C"/>
            <stop offset="1" stop-color="#01003A"/>
        </linearGradient>
    </defs>
</svg>
