<svg width="693" height="176" viewBox="0 0 693 176" fill="none" xmlns="http://www.w3.org/2000/svg">
<path d="M467.277 37H460.073C456.943 37 455.379 38.5646 455.379 41.6937V47.588C455.379 50.7171 456.943 52.2817 460.073 52.2817H467.277C470.406 52.2817 471.971 50.7171 471.971 47.588V41.6937C471.971 38.5646 470.406 37 467.277 37Z" fill="#489B25"/>
<path d="M202.099 60.7958L203.299 68.6549C205.555 65.9625 208.648 63.743 212.577 61.9965C216.58 60.25 220.619 59.3768 224.694 59.3768C237.065 59.3768 243.25 68.9824 243.25 88.1937C243.25 98.527 241.576 105.768 238.229 109.916C234.954 113.991 229.788 116.028 222.729 116.028C215.452 116.028 209.448 114.282 204.718 110.789C205.082 114.5 205.191 118.357 205.046 122.359V135.349H189V60.7958H202.099ZM205.046 77.169V101.838C210.722 103.293 214.797 104.021 217.271 104.021C220.837 104.021 223.275 103.002 224.585 100.965C225.967 98.9273 226.658 94.6702 226.658 88.1937C226.658 81.8627 226.04 77.6057 224.803 75.4226C223.566 73.1667 221.383 72.0388 218.254 72.0388C214.688 72.0388 210.285 73.7488 205.046 77.169Z" fill="#232622"/>
<path d="M258.052 72.8028L256.524 61.8873C266.203 60.1409 275.554 59.2676 284.577 59.2676C291.854 59.2676 297.203 60.7594 300.623 63.743C304.043 66.6538 305.753 71.7477 305.753 79.0247V114.609H292.982L291.345 106.423C285.96 112.754 279.338 115.919 271.478 115.919C266.312 115.919 262.091 114.573 258.817 111.88C255.542 109.115 253.905 105.295 253.905 100.419V94.9613C253.905 90.6679 255.36 87.3204 258.271 84.919C261.182 82.5176 265.22 81.3169 270.387 81.3169H289.598V78.9155C289.525 76.1503 288.871 74.2946 287.633 73.3486C286.469 72.4026 284.177 71.9296 280.757 71.9296C274.79 71.9296 267.221 72.2207 258.052 72.8028ZM269.841 96.162V98.2359C269.841 101.947 271.951 103.803 276.172 103.803C280.538 103.803 285.014 102.056 289.598 98.5634V91.0317H275.081C271.588 91.1045 269.841 92.8146 269.841 96.162Z" fill="#232622"/>
<path d="M333.848 60.7958L335.048 68.7641C342.835 62.4331 350.512 59.2676 358.08 59.2676C362.956 59.2676 366.667 60.5411 369.214 63.088C371.834 65.635 373.144 69.3463 373.144 74.2219V114.609H357.098V79.243C357.098 76.8416 356.698 75.2042 355.897 74.331C355.169 73.385 353.823 72.912 351.858 72.912C348.438 72.912 343.453 74.5493 336.904 77.824V114.609H320.749V60.7958H333.848Z" fill="#232622"/>
<path d="M439.797 38.2007V114.609H427.026L425.716 106.75C420.549 112.863 413.709 115.919 405.195 115.919C398.5 115.919 393.625 113.518 390.568 108.715C387.585 103.839 386.093 96.6714 386.093 87.2113C386.093 76.878 387.767 69.6373 391.114 65.4895C394.461 61.3416 399.664 59.2676 406.723 59.2676C413.636 59.2676 419.458 60.8686 424.188 64.0704C423.824 60.0681 423.642 56.3204 423.642 52.8275V38.2007H439.797ZM423.642 98.2359V73.3486C418.767 71.966 414.946 71.2747 412.181 71.2747C408.542 71.2747 406.032 72.2934 404.649 74.331C403.339 76.3686 402.684 80.6256 402.684 87.1021C402.684 93.2876 403.339 97.4355 404.649 99.5458C405.959 101.583 408.288 102.602 411.635 102.602C413.891 102.602 415.819 102.311 417.42 101.729C419.021 101.074 421.095 99.9096 423.642 98.2359Z" fill="#232622"/>
<path d="M471.752 114.609H455.706V60.7958H471.752V114.609Z" fill="#232622"/>
<path d="M526.261 59.2676L524.623 74.2219H520.257C516.691 74.2219 511.197 75.4589 503.775 77.9331V114.609H487.62V60.7958H500.173L501.592 68.6549C508.941 62.3967 516.218 59.2676 523.423 59.2676H526.261Z" fill="#232622"/>
<path d="M569.701 93.1057H550.271C550.781 97.0352 551.945 99.6913 553.764 101.074C555.656 102.384 558.749 103.039 563.042 103.039C568.791 103.039 575.486 102.639 583.127 101.838L584.655 111.88C579.052 114.573 571.229 115.919 561.187 115.919C551.072 115.919 543.868 113.736 539.574 109.37C535.281 105.004 533.134 97.7993 533.134 87.7571C533.134 77.2054 535.208 69.8193 539.356 65.5986C543.576 61.378 550.635 59.2676 560.532 59.2676C569.483 59.2676 575.959 60.8322 579.961 63.9613C583.964 67.0176 586.001 71.7113 586.074 78.0423C586.074 83.0634 584.764 86.8474 582.144 89.3944C579.598 91.8686 575.45 93.1057 569.701 93.1057ZM549.944 83.3909H565.225C567.19 83.3909 568.5 82.9179 569.155 81.9718C569.883 81.0258 570.247 79.6432 570.247 77.824C570.247 75.277 569.592 73.5305 568.282 72.5845C566.972 71.5657 564.571 71.0564 561.078 71.0564C556.93 71.0564 554.092 71.8932 552.564 73.5669C551.035 75.1679 550.162 78.4425 549.944 83.3909Z" fill="#232622"/>
<path d="M642.788 101.838L644.207 112.317C638.676 114.718 631.727 115.919 623.358 115.919C613.461 115.919 606.476 113.809 602.4 109.588C598.398 105.295 596.397 97.9812 596.397 87.6479C596.397 77.2418 598.434 69.9284 602.51 65.7078C606.585 61.4143 613.607 59.2676 623.576 59.2676C631.727 59.2676 638.349 60.3956 643.443 62.6514L641.696 72.6937C633.837 72.5481 628.707 72.4754 626.305 72.4754C621.357 72.4754 617.937 73.5305 616.045 75.6409C614.226 77.7512 613.316 81.7535 613.316 87.6479C613.316 93.5423 614.226 97.5446 616.045 99.6549C617.937 101.765 621.357 102.82 626.305 102.82C632.636 102.82 638.13 102.493 642.788 101.838Z" fill="#232622"/>
<path d="M677.154 71.6021V97.0352C677.154 99.0728 677.59 100.492 678.463 101.292C679.337 102.093 680.865 102.493 683.048 102.493H689.925L691.671 113.736C687.523 115.191 682.466 115.919 676.499 115.919C671.623 115.919 667.839 114.573 665.147 111.88C662.454 109.115 661.108 105.295 661.108 100.419V71.6021H651.611V61.3416L661.108 60.7958V45.7324H677.154V60.7958H692.108V71.6021H677.154Z" fill="#232622"/>
<path fill-rule="evenodd" clip-rule="evenodd" d="M32.5609 1.19852C42.3098 2.42443 45.1435 11.6188 42.6145 16.5224C41.1147 19.4305 40.5043 19.6226 37.8411 20.4606C36.0137 21.0356 33.2197 21.9148 28.5086 24.1843C16.9317 29.7613 11.6786 46.8801 11.6786 57.3003C11.6786 57.3003 0.294054 31.2004 4.22791 17.7483C8.16176 4.29623 22.8119 -0.0273831 32.5609 1.19852ZM37.2013 41.6613C37.2013 41.6613 42.0823 32.2737 51.8443 34.4641C61.6063 36.6546 62.2571 25.3894 50.2173 26.954C37.9804 28.5442 37.2013 41.6613 37.2013 41.6613ZM59.7709 73.7213C57.8057 86.0713 50.7673 94.0519 42.0848 94.0519C33.4024 94.0519 25.5778 88.7394 28.329 73.7213C31.0802 58.7031 49.1233 47.9169 57.8057 47.9169C64.8151 47.9169 63.0686 56.6856 61.1013 66.5629L61.1013 66.563C60.6317 68.9207 60.1495 71.3415 59.7709 73.7213ZM58.4245 70.5935C57.9379 75.6761 56.8524 80.3678 49.0785 79.3411C41.3046 78.3143 40.3989 73.39 42.3106 66.2927C44.2222 59.1955 55.4377 51.603 59.2105 52.6086C61.9319 53.334 60.5715 59.7259 59.4193 65.1397C58.9742 67.2313 58.5601 69.177 58.4245 70.5935ZM87.5082 101.089C87.5082 106.704 83.578 113.601 75.7175 113.601C67.857 113.601 63.1408 106.704 63.1408 101.089C63.1408 97.246 66.3902 97.9321 70.2508 98.7471C72.0293 99.1227 73.9375 99.5256 75.7175 99.5256C77.5358 99.5256 79.4063 99.1051 81.1067 98.7229L81.1067 98.7229C84.684 97.9189 87.5082 97.2841 87.5082 101.089ZM98.5095 34.4641C108.271 32.2737 113.152 41.6613 113.152 41.6613C113.152 41.6613 112.373 28.5442 100.136 26.954C88.0967 25.3894 88.7475 36.6546 98.5095 34.4641ZM108.269 94.0519C99.5865 94.0519 92.548 86.0713 90.5829 73.7213C90.2042 71.3417 89.7221 68.9211 89.2526 66.5636L89.2525 66.563L89.2524 66.5629C87.2851 56.6856 85.5386 47.9169 92.548 47.9169C101.23 47.9169 119.273 58.7031 122.025 73.7213C124.776 88.7394 116.951 94.0519 108.269 94.0519ZM101.275 79.3411C93.5013 80.3678 92.4159 75.6761 91.9293 70.5935C91.7937 69.177 91.3796 67.2313 90.9344 65.1397C89.7822 59.7259 88.4219 53.334 91.1432 52.6086C94.916 51.603 106.132 59.1955 108.043 66.2927C109.955 73.39 109.049 78.3143 101.275 79.3411ZM137.631 81.719C137.631 81.719 137.808 110.78 122.296 116.396C106.785 122.012 90.8048 133.207 98.0635 153.046C105.322 172.886 131.611 161.287 145.709 144.949C159.807 128.611 137.631 81.719 137.631 81.719ZM29.1031 116.396C13.5916 110.78 13.7681 81.719 13.7681 81.719C13.7681 81.719 -8.4074 128.611 5.69059 144.949C19.7886 161.287 46.0769 172.886 53.3356 153.046C60.5944 133.207 44.6145 122.012 29.1031 116.396ZM107.248 16.5224C104.719 11.6188 107.553 2.42443 117.302 1.19852C127.051 -0.0273831 141.701 4.29623 145.635 17.7483C149.569 31.2004 138.184 57.3003 138.184 57.3003C138.184 46.8801 132.931 29.7613 121.354 24.1843C116.643 21.9148 113.849 21.0356 112.022 20.4606C109.359 19.6226 108.748 19.4305 107.248 16.5224Z" fill="#2B2E29"/>
<path d="M42.6145 16.5224L42.1701 16.2932L42.1701 16.2932L42.6145 16.5224ZM32.5609 1.19852L32.6232 0.70243L32.6232 0.70243L32.5609 1.19852ZM37.8411 20.4606L37.6911 19.9836L37.691 19.9836L37.8411 20.4606ZM28.5086 24.1843L28.2916 23.7338L28.2916 23.7338L28.5086 24.1843ZM11.6786 57.3003L11.2203 57.5002L12.1786 57.3003H11.6786ZM4.22791 17.7483L3.74801 17.608L3.74801 17.608L4.22791 17.7483ZM37.2013 41.6613L36.7021 41.6317L37.6449 41.892L37.2013 41.6613ZM50.2173 26.954L50.2817 27.4499L50.2817 27.4499L50.2173 26.954ZM59.7709 73.7213L59.2771 73.6427L59.2771 73.6427L59.7709 73.7213ZM28.329 73.7213L27.8372 73.6312L27.8372 73.6312L28.329 73.7213ZM61.1013 66.5629L60.6109 66.4652L60.6105 66.4674L61.1013 66.5629ZM61.1013 66.563L61.5916 66.6607L61.5921 66.6585L61.1013 66.563ZM58.4245 70.5935L57.9267 70.5458L57.9267 70.5458L58.4245 70.5935ZM42.3106 66.2927L42.7934 66.4228L42.7934 66.4228L42.3106 66.2927ZM59.2105 52.6086L59.0817 53.0918L59.0817 53.0918L59.2105 52.6086ZM59.4193 65.1397L58.9303 65.0356L58.9303 65.0356L59.4193 65.1397ZM70.2508 98.7471L70.3541 98.2579L70.3541 98.2579L70.2508 98.7471ZM81.1067 98.7229L81.0172 98.231L81.0071 98.2329L80.997 98.2351L81.1067 98.7229ZM81.1067 98.7229L81.1962 99.2149L81.2063 99.213L81.2164 99.2108L81.1067 98.7229ZM113.152 41.6613L112.709 41.892L113.652 41.6317L113.152 41.6613ZM100.136 26.954L100.072 27.4499L100.072 27.4499L100.136 26.954ZM90.5829 73.7213L91.0766 73.6427L91.0766 73.6427L90.5829 73.7213ZM89.2526 66.5636L89.7429 66.466L89.7426 66.4644L89.2526 66.5636ZM89.2525 66.563L89.7426 66.4638L89.7405 66.4546L89.2525 66.563ZM89.2524 66.5629L88.7619 66.6606L88.7643 66.6713L89.2524 66.5629ZM122.025 73.7213L121.533 73.8114L121.533 73.8114L122.025 73.7213ZM91.9293 70.5935L92.427 70.5458L92.427 70.5458L91.9293 70.5935ZM90.9344 65.1397L91.4235 65.0356L91.4235 65.0356L90.9344 65.1397ZM91.1432 52.6086L91.272 53.0918L91.272 53.0918L91.1432 52.6086ZM108.043 66.2927L107.56 66.4228L107.56 66.4228L108.043 66.2927ZM122.296 116.396L122.126 115.926L122.126 115.926L122.296 116.396ZM137.631 81.719L138.083 81.5053L137.131 81.7221L137.631 81.719ZM98.0635 153.046L98.5331 152.875L98.5331 152.875L98.0635 153.046ZM145.709 144.949L145.33 144.622L145.33 144.622L145.709 144.949ZM13.7681 81.719L14.2681 81.7221L13.3161 81.5053L13.7681 81.719ZM29.1031 116.396L29.2733 115.926L29.2733 115.926L29.1031 116.396ZM5.69059 144.949L6.06914 144.622L6.06914 144.622L5.69059 144.949ZM53.3356 153.046L52.8661 152.875L52.8661 152.875L53.3356 153.046ZM117.302 1.19852L117.24 0.70243L117.24 0.70243L117.302 1.19852ZM107.248 16.5224L107.693 16.2932L107.693 16.2932L107.248 16.5224ZM145.635 17.7483L146.115 17.608L146.115 17.608L145.635 17.7483ZM138.184 57.3003H137.684L138.643 57.5002L138.184 57.3003ZM121.354 24.1843L121.571 23.7338L121.571 23.7338L121.354 24.1843ZM112.022 20.4606L111.872 20.9375L111.872 20.9375L112.022 20.4606ZM43.0589 16.7516C45.7467 11.54 42.7179 1.97181 32.6232 0.70243L32.4985 1.69462C41.9017 2.87705 44.5403 11.6975 42.1701 16.2932L43.0589 16.7516ZM37.9912 20.9375C39.2952 20.5272 40.2105 20.2459 40.9684 19.6645C41.7364 19.0753 42.3059 18.2115 43.0589 16.7516L42.1701 16.2932C41.4232 17.7414 40.9377 18.4277 40.3597 18.8711C39.7717 19.3222 39.0503 19.5559 37.6911 19.9836L37.9912 20.9375ZM28.7256 24.6348C33.4074 22.3793 36.1768 21.5084 37.9912 20.9375L37.691 19.9836C35.8506 20.5628 33.032 21.4502 28.2916 23.7338L28.7256 24.6348ZM12.1786 57.3003C12.1786 52.1615 13.4767 45.3452 16.21 39.1273C18.9459 32.9036 23.0875 27.3508 28.7256 24.6348L28.2916 23.7338C22.3528 26.5948 18.0794 32.3899 15.2945 38.7249C12.5071 45.0658 11.1786 52.0189 11.1786 57.3003H12.1786ZM3.74801 17.608C2.73718 21.0646 2.7185 25.2953 3.23596 29.6622C3.75432 34.0367 4.81591 38.5883 5.99746 42.7067C7.17946 46.8267 8.48441 50.523 9.49364 53.189C9.99836 54.5223 10.4294 55.5987 10.7346 56.3424C10.8871 56.7142 11.0083 57.0029 11.0914 57.1991C11.1329 57.2971 11.165 57.372 11.1868 57.4226C11.1977 57.4479 11.206 57.4671 11.2116 57.4801C11.2144 57.4866 11.2165 57.4915 11.218 57.4949C11.2187 57.4966 11.2193 57.4979 11.2197 57.4988C11.2199 57.4992 11.22 57.4996 11.2201 57.4998C11.2203 57.5001 11.2203 57.5002 11.6786 57.3003C12.1369 57.1004 12.1369 57.1004 12.1369 57.1003C12.1368 57.1001 12.1367 57.0999 12.1365 57.0995C12.1362 57.0988 12.1357 57.0977 12.1351 57.0962C12.1338 57.0932 12.1318 57.0887 12.1292 57.0826C12.1239 57.0704 12.1159 57.052 12.1054 57.0275C12.0843 56.9785 12.0529 56.9052 12.0121 56.8088C11.9304 56.616 11.8107 56.3309 11.6597 55.9628C11.3576 55.2265 10.93 54.1587 10.4289 52.835C9.42642 50.1869 8.1311 46.5175 6.95868 42.4309C5.78582 38.3428 4.73886 33.8472 4.22901 29.5445C3.71827 25.2343 3.75171 21.1581 4.70781 17.8886L3.74801 17.608ZM32.6232 0.70243C27.6574 0.0779929 21.4596 0.865851 15.9953 3.5194C10.5216 6.17752 5.76201 10.7209 3.74801 17.608L4.70781 17.8886C6.62766 11.3236 11.1601 6.97916 16.4321 4.41894C21.7137 1.85414 27.7153 1.09315 32.4985 1.69462L32.6232 0.70243ZM51.9537 33.9763C46.8779 32.8373 43.0616 34.7168 40.5383 36.8603C39.2797 37.9294 38.338 39.0669 37.7109 39.9363C37.397 40.3715 37.1608 40.7411 37.0021 41.0037C36.9228 41.135 36.8627 41.2396 36.822 41.3125C36.8016 41.3489 36.7861 41.3774 36.7754 41.3973C36.77 41.4073 36.7658 41.4151 36.7629 41.4207C36.7614 41.4235 36.7602 41.4257 36.7594 41.4274C36.7589 41.4282 36.7586 41.4289 36.7583 41.4295C36.7581 41.4297 36.758 41.4301 36.7579 41.4302C36.7578 41.4305 36.7576 41.4307 37.2013 41.6613C37.6449 41.892 37.6448 41.8922 37.6447 41.8923C37.6447 41.8923 37.6447 41.8924 37.6447 41.8924C37.6447 41.8923 37.6448 41.8922 37.6449 41.8919C37.6453 41.8913 37.6459 41.8901 37.6468 41.8884C37.6486 41.885 37.6516 41.8794 37.6557 41.8716C37.6641 41.8561 37.6771 41.8322 37.6949 41.8004C37.7304 41.7368 37.7848 41.6419 37.858 41.5208C38.0044 41.2786 38.2258 40.9319 38.522 40.5213C39.1152 39.6988 40.0038 38.6263 41.1857 37.6224C43.5434 35.6196 47.0487 33.9005 51.7348 34.952L51.9537 33.9763ZM50.2817 27.4499C53.222 27.0678 55.3248 27.4777 56.6853 28.215C58.042 28.9503 58.6568 30.0021 58.7071 30.9697C58.7573 31.9355 58.2524 32.9222 57.1503 33.5624C56.0428 34.2058 54.3088 34.5047 51.9537 33.9763L51.7348 34.952C54.2607 35.5188 56.2688 35.231 57.6526 34.4271C59.0419 33.6201 59.7776 32.299 59.7058 30.9178C59.634 29.5386 58.7642 28.2043 57.1618 27.3359C55.5632 26.4695 53.2324 26.058 50.1528 26.4582L50.2817 27.4499ZM37.2013 41.6613C37.7004 41.691 37.7004 41.6912 37.7004 41.6913C37.7004 41.6913 37.7004 41.6913 37.7004 41.6913C37.7004 41.6912 37.7004 41.6909 37.7004 41.6904C37.7005 41.6894 37.7006 41.6877 37.7008 41.6851C37.7011 41.6801 37.7017 41.6719 37.7025 41.6607C37.7041 41.6384 37.7069 41.6041 37.711 41.5585C37.7192 41.4674 37.7329 41.3315 37.7548 41.1566C37.7985 40.8068 37.8746 40.302 38.0035 39.69C38.2616 38.4643 38.7298 36.8175 39.5684 35.1261C41.2403 31.7539 44.3719 28.2178 50.2817 27.4499L50.1528 26.4582C43.8258 27.2804 40.4494 31.098 38.6725 34.6819C37.7867 36.4686 37.2953 38.2004 37.0249 39.4839C36.8896 40.1265 36.8092 40.6589 36.7625 41.0326C36.7391 41.2195 36.7242 41.3669 36.715 41.4688C36.7104 41.5197 36.7073 41.5592 36.7052 41.5866C36.7042 41.6003 36.7035 41.611 36.703 41.6185C36.7027 41.6223 36.7025 41.6253 36.7024 41.6275C36.7023 41.6286 36.7023 41.6295 36.7022 41.6302C36.7022 41.6306 36.7022 41.6309 36.7022 41.6311C36.7022 41.6314 36.7021 41.6317 37.2013 41.6613ZM42.0848 94.5519C51.13 94.5519 58.2827 86.2555 60.2646 73.7998L59.2771 73.6427C57.3288 85.8871 50.4046 93.5519 42.0848 93.5519V94.5519ZM27.8372 73.6312C26.4457 81.2271 27.7099 86.4812 30.5368 89.8404C33.3598 93.1948 37.651 94.5519 42.0848 94.5519V93.5519C37.8362 93.5519 33.874 92.2528 31.3019 89.1965C28.7337 86.1448 27.4612 81.2335 28.8209 73.8114L27.8372 73.6312ZM57.8057 47.4169C53.3095 47.4169 46.5219 50.1836 40.5381 54.7911C34.5426 59.4077 29.2432 65.9565 27.8372 73.6312L28.8209 73.8114C30.1661 66.4678 35.2638 60.1145 41.1482 55.5835C47.0444 51.0434 53.6196 48.4169 57.8057 48.4169V47.4169ZM61.5917 66.6606C62.5701 61.7481 63.517 57.0131 63.319 53.5077C63.2197 51.751 62.8305 50.222 61.9429 49.1266C61.0352 48.0066 59.6711 47.4169 57.8057 47.4169V48.4169C59.445 48.4169 60.4911 48.9234 61.1659 49.7562C61.8607 50.6135 62.2262 51.894 62.3206 53.5641C62.5098 56.9124 61.5998 61.5004 60.6109 66.4652L61.5917 66.6606ZM61.5921 66.6585L61.5921 66.6583L60.6105 66.4674L60.6105 66.4676L61.5921 66.6585ZM60.2646 73.7998C60.6415 71.4312 61.1217 69.02 61.5916 66.6607L60.6109 66.4654C60.1417 68.8213 59.6575 71.2517 59.2771 73.6427L60.2646 73.7998ZM49.013 79.8368C53.0045 80.364 55.4282 79.4342 56.8792 77.5649C58.2833 75.7559 58.6801 73.1701 58.9222 70.6411L57.9267 70.5458C57.6823 73.0995 57.293 75.4009 56.0892 76.9517C54.9323 78.4422 52.9264 79.345 49.144 78.8454L49.013 79.8368ZM41.8278 66.1627C40.8667 69.7307 40.5733 72.879 41.6026 75.2897C42.6564 77.7578 45.0257 79.3102 49.013 79.8368L49.144 78.8454C45.3573 78.3453 43.3869 76.9221 42.5223 74.897C41.6331 72.8146 41.8427 69.952 42.7934 66.4228L41.8278 66.1627ZM59.3393 52.1255C58.7688 51.9735 58.0991 51.9926 57.3879 52.1253C56.6715 52.2589 55.8812 52.5136 55.0524 52.8639C53.3949 53.5645 51.5439 54.6641 49.7609 56.0134C46.2153 58.6966 42.8268 62.4537 41.8278 66.1627L42.7934 66.4228C43.706 63.0346 46.8811 59.4468 50.3643 56.8108C52.0958 55.5005 53.8755 54.447 55.4417 53.785C56.2249 53.454 56.9446 53.2252 57.5712 53.1083C58.203 52.9905 58.709 52.9924 59.0817 53.0918L59.3393 52.1255ZM59.9084 65.2438C60.482 62.5487 61.1199 59.5569 61.2666 57.1464C61.3398 55.9441 61.2947 54.8377 61.0319 53.9669C60.7654 53.0837 60.2463 52.3673 59.3393 52.1255L59.0817 53.0918C59.5355 53.2127 59.8668 53.5672 60.0746 54.2558C60.2861 54.9566 60.3392 55.9225 60.2684 57.0856C60.1272 59.4058 59.5089 62.3168 58.9303 65.0356L59.9084 65.2438ZM58.9222 70.6411C59.0544 69.2599 59.4607 67.3473 59.9084 65.2438L58.9303 65.0356C58.4876 67.1154 58.0657 69.0941 57.9267 70.5458L58.9222 70.6411ZM75.7175 114.101C83.9474 114.101 88.0082 106.876 88.0082 101.089H87.0082C87.0082 106.531 83.2085 113.101 75.7175 113.101V114.101ZM62.6408 101.089C62.6408 106.924 67.5282 114.101 75.7175 114.101V113.101C68.1859 113.101 63.6408 106.483 63.6408 101.089H62.6408ZM70.3541 98.2579C69.3932 98.0551 68.4485 97.8554 67.5806 97.7336C66.7161 97.6124 65.8899 97.5624 65.1691 97.6776C64.4393 97.7943 63.7814 98.0871 63.316 98.678C62.8567 99.2613 62.6408 100.065 62.6408 101.089H63.6408C63.6408 100.192 63.8311 99.6403 64.1016 99.2967C64.3662 98.9608 64.7619 98.7554 65.327 98.6651C65.9011 98.5733 66.6112 98.6074 67.4417 98.7239C68.2689 98.84 69.1781 99.0317 70.1475 99.2364L70.3541 98.2579ZM75.7175 99.0256C73.9993 99.0256 72.144 98.6359 70.3541 98.2579L70.1475 99.2364C71.9146 99.6095 73.8758 100.026 75.7175 100.026V99.0256ZM80.997 98.2351C79.2864 98.6196 77.4707 99.0256 75.7175 99.0256V100.026C77.6008 100.026 79.5262 99.5907 81.2163 99.2108L80.997 98.2351ZM81.0173 98.231L81.0172 98.231L81.1961 99.2149L81.1962 99.2149L81.0173 98.231ZM88.0082 101.089C88.0082 100.085 87.8233 99.296 87.4221 98.7166C87.0097 98.1211 86.415 97.8127 85.7412 97.6863C85.0829 97.5627 84.3294 97.6079 83.5433 97.7237C82.7533 97.8401 81.8866 98.0352 80.9971 98.2351L81.2164 99.2108C82.1155 99.0087 82.9433 98.8229 83.689 98.713C84.4385 98.6026 85.0618 98.5762 85.5567 98.6691C86.0361 98.7591 86.371 98.9552 86.5999 99.2859C86.84 99.6325 87.0082 100.191 87.0082 101.089H88.0082ZM113.152 41.6613C113.596 41.4307 113.596 41.4305 113.596 41.4302C113.596 41.4301 113.596 41.4297 113.595 41.4295C113.595 41.4289 113.595 41.4282 113.594 41.4274C113.594 41.4257 113.592 41.4235 113.591 41.4207C113.588 41.4151 113.584 41.4073 113.578 41.3973C113.568 41.3774 113.552 41.3489 113.532 41.3125C113.491 41.2396 113.431 41.135 113.352 41.0037C113.193 40.7411 112.957 40.3715 112.643 39.9363C112.016 39.0669 111.074 37.9294 109.815 36.8603C107.292 34.7168 103.476 32.8373 98.4 33.9763L98.619 34.952C103.305 33.9005 106.81 35.6196 109.168 37.6224C110.35 38.6263 111.239 39.6988 111.832 40.5213C112.128 40.9319 112.349 41.2786 112.496 41.5208C112.569 41.6419 112.623 41.7368 112.659 41.8004C112.677 41.8322 112.69 41.8561 112.698 41.8716C112.702 41.8794 112.705 41.885 112.707 41.8884C112.708 41.8901 112.708 41.8913 112.709 41.8919C112.709 41.8922 112.709 41.8923 112.709 41.8924C112.709 41.8924 112.709 41.8923 112.709 41.8923C112.709 41.8922 112.709 41.892 113.152 41.6613ZM100.072 27.4499C105.982 28.2178 109.113 31.7539 110.785 35.1261C111.624 36.8175 112.092 38.4643 112.35 39.69C112.479 40.302 112.555 40.8068 112.599 41.1566C112.621 41.3315 112.635 41.4674 112.643 41.5585C112.647 41.6041 112.65 41.6384 112.651 41.6607C112.652 41.6719 112.653 41.6801 112.653 41.6851C112.653 41.6877 112.653 41.6894 112.653 41.6904C112.653 41.6909 112.653 41.6912 112.653 41.6913C112.653 41.6913 112.653 41.6913 112.653 41.6913C112.653 41.6912 112.653 41.691 113.152 41.6613C113.652 41.6317 113.652 41.6314 113.652 41.6311C113.652 41.6309 113.652 41.6306 113.652 41.6302C113.651 41.6295 113.651 41.6286 113.651 41.6275C113.651 41.6253 113.651 41.6223 113.651 41.6185C113.65 41.611 113.65 41.6003 113.649 41.5866C113.646 41.5592 113.643 41.5197 113.639 41.4688C113.63 41.3669 113.615 41.2195 113.591 41.0326C113.545 40.6589 113.464 40.1265 113.329 39.4839C113.058 38.2004 112.567 36.4686 111.681 34.6819C109.904 31.098 106.528 27.2804 100.201 26.4582L100.072 27.4499ZM98.4 33.9763C96.0449 34.5047 94.311 34.2058 93.2034 33.5624C92.1013 32.9222 91.5964 31.9355 91.6466 30.9697C91.697 30.0021 92.3117 28.9503 93.6684 28.215C95.0289 27.4777 97.1318 27.0678 100.072 27.4499L100.201 26.4582C97.1213 26.058 94.7905 26.4695 93.192 27.3359C91.5896 28.2043 90.7197 29.5386 90.648 30.9178C90.5762 32.299 91.3119 33.6201 92.7011 34.4271C94.0849 35.231 96.093 35.5188 98.619 34.952L98.4 33.9763ZM90.0891 73.7998C92.071 86.2555 99.2238 94.5519 108.269 94.5519V93.5519C99.9491 93.5519 93.025 85.8871 91.0766 73.6427L90.0891 73.7998ZM88.7622 66.6613C89.2321 69.0204 89.7122 71.4314 90.0891 73.7998L91.0766 73.6427C90.6962 71.2519 90.2121 68.8217 89.7429 66.466L88.7622 66.6613ZM88.7624 66.6623L88.7625 66.6629L89.7426 66.4644L89.7425 66.4638L88.7624 66.6623ZM88.7643 66.6713L88.7644 66.6715L89.7405 66.4546L89.7405 66.4544L88.7643 66.6713ZM92.548 47.4169C90.6826 47.4169 89.3185 48.0066 88.4109 49.1266C87.5232 50.222 87.134 51.751 87.0348 53.5077C86.8367 57.0131 87.7836 61.7481 88.7621 66.6606L89.7428 66.4652C88.7539 61.5004 87.844 56.9124 88.0332 53.5641C88.1275 51.894 88.493 50.6135 89.1878 49.7562C89.8626 48.9234 90.9087 48.4169 92.548 48.4169V47.4169ZM122.516 73.6312C121.111 65.9565 115.811 59.4077 109.816 54.7911C103.832 50.1836 97.0442 47.4169 92.548 47.4169V48.4169C96.7342 48.4169 103.309 51.0434 109.205 55.5835C115.09 60.1145 120.188 66.4678 121.533 73.8114L122.516 73.6312ZM108.269 94.5519C112.703 94.5519 116.994 93.1948 119.817 89.8404C122.644 86.4812 123.908 81.2271 122.516 73.6312L121.533 73.8114C122.893 81.2335 121.62 86.1448 119.052 89.1965C116.48 92.2528 112.517 93.5519 108.269 93.5519V94.5519ZM91.4316 70.6411C91.6737 73.1701 92.0704 75.7559 93.4745 77.5649C94.9255 79.4342 97.3493 80.364 101.341 79.8368L101.21 78.8454C97.4273 79.345 95.4214 78.4422 94.2645 76.9517C93.0607 75.4009 92.6715 73.0995 92.427 70.5458L91.4316 70.6411ZM90.4454 65.2438C90.8931 67.3473 91.2993 69.2599 91.4316 70.6411L92.427 70.5458C92.288 69.0941 91.8661 67.1154 91.4235 65.0356L90.4454 65.2438ZM91.0144 52.1255C90.1075 52.3673 89.5883 53.0837 89.3218 53.9669C89.059 54.8377 89.014 55.9441 89.0872 57.1464C89.2338 59.5569 89.8718 62.5487 90.4454 65.2438L91.4235 65.0356C90.8448 62.3168 90.2265 59.4058 90.0853 57.0856C90.0145 55.9225 90.0677 54.9566 90.2792 54.2558C90.487 53.5672 90.8183 53.2127 91.272 53.0918L91.0144 52.1255ZM108.526 66.1627C107.527 62.4537 104.138 58.6966 100.593 56.0134C98.8099 54.6641 96.9588 53.5645 95.3013 52.8639C94.4726 52.5136 93.6822 52.2589 92.9659 52.1253C92.2547 51.9926 91.5849 51.9735 91.0144 52.1255L91.272 53.0918C91.6448 52.9924 92.1508 52.9905 92.7825 53.1083C93.4091 53.2252 94.1289 53.454 94.912 53.785C96.4783 54.447 98.258 55.5005 99.9894 56.8108C103.473 59.4468 106.648 63.0346 107.56 66.4228L108.526 66.1627ZM101.341 79.8368C105.328 79.3102 107.697 77.7578 108.751 75.2897C109.78 72.879 109.487 69.7307 108.526 66.1627L107.56 66.4228C108.511 69.952 108.721 72.8146 107.831 74.897C106.967 76.9221 104.996 78.3453 101.21 78.8454L101.341 79.8368ZM122.466 116.866C126.481 115.413 129.458 112.449 131.662 108.871C133.865 105.295 135.313 101.08 136.267 97.0671C137.222 93.0513 137.688 89.2164 137.915 86.3875C138.028 84.9723 138.082 83.8071 138.108 82.9945C138.121 82.5882 138.127 82.2699 138.129 82.0526C138.131 81.9439 138.131 81.8605 138.131 81.8038C138.131 81.7755 138.131 81.7539 138.131 81.7392C138.131 81.7318 138.131 81.7262 138.131 81.7223C138.131 81.7204 138.131 81.7189 138.131 81.7178C138.131 81.7173 138.131 81.7168 138.131 81.7166C138.131 81.7162 138.131 81.716 137.631 81.719C137.131 81.7221 137.131 81.722 137.131 81.7221C137.131 81.7223 137.131 81.7225 137.131 81.7229C137.131 81.7236 137.131 81.7247 137.131 81.7263C137.131 81.7295 137.131 81.7344 137.131 81.741C137.131 81.7543 137.131 81.7745 137.131 81.8013C137.131 81.855 137.131 81.9354 137.129 82.0409C137.127 82.252 137.121 82.5636 137.109 82.9629C137.083 83.7615 137.03 84.9105 136.918 86.3075C136.693 89.103 136.234 92.8843 135.294 96.8357C134.353 100.79 132.937 104.894 130.81 108.346C128.685 111.796 125.867 114.571 122.126 115.926L122.466 116.866ZM98.5331 152.875C94.9671 143.128 97.1088 135.557 102.024 129.709C106.968 123.827 114.744 119.662 122.466 116.866L122.126 115.926C114.337 118.746 106.367 122.987 101.258 129.066C96.12 135.179 93.9012 143.125 97.594 153.218L98.5331 152.875ZM145.33 144.622C138.331 152.734 128.316 159.651 119.193 162.081C114.634 163.296 110.343 163.378 106.77 161.983C103.215 160.594 100.305 157.718 98.5331 152.875L97.594 153.218C99.4514 158.295 102.55 161.408 106.406 162.914C110.244 164.413 114.767 164.295 119.45 163.047C128.81 160.554 138.989 153.502 146.087 145.276L145.33 144.622ZM137.631 81.719C137.179 81.9328 137.179 81.9329 137.179 81.9332C137.179 81.9335 137.18 81.9339 137.18 81.9346C137.181 81.9359 137.181 81.9379 137.183 81.9407C137.185 81.9461 137.189 81.9544 137.194 81.9655C137.205 81.9876 137.22 82.0209 137.241 82.065C137.282 82.1533 137.343 82.285 137.422 82.4577C137.58 82.8031 137.81 83.3126 138.099 83.9674C138.676 85.2769 139.485 87.1671 140.411 89.4867C142.266 94.127 144.59 100.481 146.474 107.34C148.36 114.203 149.799 121.55 149.894 128.184C149.99 134.83 148.736 140.675 145.33 144.622L146.087 145.276C149.73 141.054 150.991 134.911 150.894 128.169C150.797 121.416 149.335 113.977 147.439 107.075C145.541 100.169 143.203 93.778 141.34 89.1156C140.408 86.7838 139.595 84.8829 139.014 83.5643C138.724 82.9049 138.491 82.391 138.331 82.0416C138.251 81.8669 138.19 81.7332 138.148 81.6431C138.127 81.598 138.111 81.5637 138.1 81.5407C138.094 81.5292 138.09 81.5204 138.087 81.5145C138.086 81.5115 138.085 81.5093 138.084 81.5077C138.084 81.507 138.084 81.5064 138.083 81.506C138.083 81.5055 138.083 81.5053 137.631 81.719ZM13.7681 81.719C13.2681 81.716 13.2681 81.7162 13.2681 81.7166C13.2681 81.7168 13.2681 81.7173 13.2681 81.7178C13.2681 81.7189 13.2681 81.7204 13.2681 81.7223C13.2681 81.7262 13.268 81.7318 13.268 81.7392C13.268 81.7539 13.268 81.7755 13.2681 81.8038C13.2682 81.8605 13.2687 81.9439 13.2699 82.0526C13.2725 82.2699 13.2782 82.5882 13.2911 82.9945C13.3167 83.8071 13.3708 84.9723 13.4845 86.3875C13.7116 89.2164 14.1773 93.0513 15.1323 97.0671C16.0867 101.08 17.5346 105.295 19.7374 108.871C21.9415 112.449 24.918 115.413 28.9328 116.866L29.2733 115.926C25.5324 114.571 22.7141 111.796 20.5888 108.346C18.462 104.894 17.0457 100.79 16.1052 96.8357C15.1655 92.8843 14.7058 89.103 14.4813 86.3075C14.3691 84.9105 14.3158 83.7615 14.2906 82.9629C14.2779 82.5636 14.2723 82.252 14.2699 82.0409C14.2686 81.9354 14.2682 81.855 14.2681 81.8013C14.268 81.7745 14.268 81.7543 14.268 81.741C14.268 81.7344 14.2681 81.7295 14.2681 81.7263C14.2681 81.7247 14.2681 81.7236 14.2681 81.7229C14.2681 81.7225 14.2681 81.7223 14.2681 81.7221C14.2681 81.722 14.2681 81.7221 13.7681 81.719ZM6.06914 144.622C2.66273 140.675 1.40932 134.83 1.50506 128.184C1.60062 121.55 3.0393 114.203 4.92473 107.34C6.80907 100.481 9.13349 94.127 10.9878 89.4867C11.9147 87.1671 12.7235 85.2769 13.3004 83.9674C13.5888 83.3126 13.8191 82.8031 13.9772 82.4577C14.0562 82.285 14.1171 82.1533 14.1582 82.065C14.1788 82.0209 14.1943 81.9876 14.2047 81.9655C14.2099 81.9544 14.2138 81.9461 14.2164 81.9407C14.2177 81.9379 14.2186 81.9359 14.2193 81.9346C14.2196 81.9339 14.2198 81.9335 14.2199 81.9332C14.2201 81.9329 14.2201 81.9328 13.7681 81.719C13.3161 81.5053 13.316 81.5055 13.3158 81.506C13.3156 81.5064 13.3153 81.507 13.3149 81.5077C13.3142 81.5093 13.3131 81.5115 13.3117 81.5145C13.309 81.5204 13.3048 81.5292 13.2994 81.5407C13.2886 81.5637 13.2726 81.598 13.2516 81.6431C13.2096 81.7332 13.1478 81.8669 13.0678 82.0416C12.9079 82.391 12.6756 82.9049 12.3852 83.5643C11.8044 84.8829 10.9909 86.7838 10.0592 89.1156C8.19608 93.778 5.85775 100.169 3.96046 107.075C2.06427 113.977 0.602447 121.416 0.505162 128.169C0.408052 134.911 1.66946 141.054 5.31204 145.276L6.06914 144.622ZM52.8661 152.875C51.0941 157.718 48.1845 160.594 44.6294 161.983C41.0559 163.378 36.7651 163.296 32.2065 162.081C23.0834 159.651 13.0686 152.734 6.06914 144.622L5.31204 145.276C12.4105 153.502 22.5889 160.554 31.9491 163.047C36.6322 164.295 41.1557 164.413 44.9932 162.914C48.8493 161.408 51.9478 158.295 53.8052 153.218L52.8661 152.875ZM28.9328 116.866C36.6549 119.662 44.4315 123.827 49.3754 129.709C54.2903 135.557 56.4321 143.128 52.8661 152.875L53.8052 153.218C57.498 143.125 55.2792 135.179 50.141 129.066C45.0317 122.987 37.0626 118.746 29.2733 115.926L28.9328 116.866ZM117.24 0.70243C107.145 1.97181 104.116 11.54 106.804 16.7516L107.693 16.2932C105.323 11.6975 107.961 2.87705 117.364 1.69462L117.24 0.70243ZM146.115 17.608C144.101 10.7209 139.341 6.17752 133.868 3.5194C128.403 0.865851 122.205 0.0779929 117.24 0.70243L117.364 1.69462C122.148 1.09315 128.149 1.85414 133.431 4.41894C138.703 6.97916 143.235 11.3236 145.155 17.8886L146.115 17.608ZM138.184 57.3003C138.643 57.5002 138.643 57.5001 138.643 57.4998C138.643 57.4996 138.643 57.4992 138.643 57.4988C138.644 57.4979 138.644 57.4966 138.645 57.4949C138.646 57.4915 138.649 57.4866 138.651 57.4801C138.657 57.4671 138.665 57.4479 138.676 57.4226C138.698 57.372 138.73 57.2971 138.772 57.1991C138.855 57.0029 138.976 56.7142 139.128 56.3424C139.433 55.5987 139.865 54.5223 140.369 53.189C141.378 50.523 142.683 46.8267 143.865 42.7067C145.047 38.5883 146.109 34.0367 146.627 29.6622C147.144 25.2953 147.126 21.0646 146.115 17.608L145.155 17.8886C146.111 21.1581 146.145 25.2343 145.634 29.5445C145.124 33.8472 144.077 38.3428 142.904 42.4309C141.732 46.5175 140.436 50.1869 139.434 52.835C138.933 54.1587 138.505 55.2265 138.203 55.9628C138.052 56.3309 137.933 56.616 137.851 56.8088C137.81 56.9052 137.779 56.9785 137.758 57.0275C137.747 57.052 137.739 57.0704 137.734 57.0826C137.731 57.0887 137.729 57.0932 137.728 57.0962C137.727 57.0977 137.727 57.0988 137.726 57.0995C137.726 57.0999 137.726 57.1001 137.726 57.1003C137.726 57.1004 137.726 57.1004 138.184 57.3003ZM121.137 24.6348C126.775 27.3508 130.917 32.9036 133.653 39.1273C136.386 45.3452 137.684 52.1615 137.684 57.3003H138.684C138.684 52.0189 137.356 45.0658 134.568 38.7249C131.784 32.3899 127.51 26.5948 121.571 23.7338L121.137 24.6348ZM111.872 20.9375C113.686 21.5084 116.455 22.3793 121.137 24.6348L121.571 23.7338C116.831 21.4502 114.012 20.5628 112.172 19.9836L111.872 20.9375ZM106.804 16.7516C107.557 18.2115 108.127 19.0753 108.895 19.6645C109.652 20.2459 110.568 20.5272 111.872 20.9375L112.172 19.9836C110.813 19.5559 110.091 19.3222 109.503 18.8711C108.925 18.4277 108.44 17.7414 107.693 16.2932L106.804 16.7516Z" fill="black"/>
<path fill-rule="evenodd" clip-rule="evenodd" d="M69.2268 137.059C66.8859 137.059 65.4469 139.621 66.6648 141.62L70.5669 148.025C70.7484 148.323 71.072 148.505 71.4209 148.505H80.7565C81.1054 148.505 81.429 148.323 81.6105 148.025L85.5126 141.62C86.7305 139.621 85.2915 137.059 82.9506 137.059H69.2268ZM71.4305 150.651H80.747C81.101 150.651 81.4286 150.838 81.6084 151.143L87.1893 160.611C87.8468 161.726 87.7145 163.137 86.8612 164.111L76.8408 175.546C76.4425 176.001 75.735 176.001 75.3366 175.546L65.3163 164.111C64.4629 163.137 64.3307 161.726 64.9882 160.611L70.5691 151.143C70.7488 150.838 71.0765 150.651 71.4305 150.651Z" fill="#489B25"/>
</svg>
