<svg width="504" height="99" viewBox="0 0 504 99" fill="none" xmlns="http://www.w3.org/2000/svg">
<path d="M278.277 0H271.073C267.943 0 266.379 1.56455 266.379 4.69366V10.588C266.379 13.7171 267.943 15.2817 271.073 15.2817H278.277C281.406 15.2817 282.971 13.7171 282.971 10.588V4.69366C282.971 1.56455 281.406 0 278.277 0Z" fill="#489B25"/>
<path d="M13.0986 23.7958L14.2993 31.6549C16.5552 28.9625 19.6479 26.743 23.5775 24.9965C27.5798 23.25 31.6185 22.3768 35.6937 22.3768C48.0646 22.3768 54.25 31.9824 54.25 51.1937C54.25 61.527 52.5763 68.7676 49.2289 72.9155C45.9542 76.9906 40.7876 79.0282 33.7289 79.0282C26.4519 79.0282 20.4484 77.2817 15.7183 73.7888C16.0822 77.5 16.1913 81.3568 16.0458 85.3592V98.3486H0V23.7958H13.0986ZM16.0458 40.169V64.8381C21.7218 66.2935 25.7969 67.0211 28.2711 67.0211C31.8369 67.0211 34.2747 66.0024 35.5845 63.9648C36.9671 61.9273 37.6585 57.6702 37.6585 51.1937C37.6585 44.8627 37.0399 40.6057 35.8028 38.4226C34.5657 36.1667 32.3826 35.0388 29.2535 35.0388C25.6878 35.0388 21.2852 36.7488 16.0458 40.169Z" fill="#232622"/>
<path d="M69.0524 35.8028L67.5243 24.8873C77.2027 23.1409 86.5536 22.2676 95.5771 22.2676C102.854 22.2676 108.203 23.7594 111.623 26.743C115.043 29.6538 116.753 34.7477 116.753 42.0247V77.6092H103.982L102.345 69.4226C96.9597 75.7535 90.3376 78.919 82.4785 78.919C77.3118 78.919 73.0912 77.5728 69.8165 74.8803C66.5419 72.115 64.9045 68.2946 64.9045 63.419V57.9613C64.9045 53.6679 66.3599 50.3204 69.2707 47.919C72.1815 45.5176 76.2203 44.3169 81.3869 44.3169H100.598V41.9155C100.525 39.1503 99.8705 37.2946 98.6334 36.3486C97.4691 35.4026 95.1768 34.9296 91.7567 34.9296C85.7895 34.9296 78.2214 35.2207 69.0524 35.8028ZM80.8412 59.162V61.2359C80.8412 64.9472 82.9515 66.8028 87.1722 66.8028C91.5383 66.8028 96.0137 65.0564 100.598 61.5634V54.0317H86.0806C82.5876 54.1045 80.8412 55.8146 80.8412 59.162Z" fill="#232622"/>
<path d="M144.848 23.7958L146.048 31.7641C153.835 25.4331 161.512 22.2676 169.08 22.2676C173.956 22.2676 177.667 23.5411 180.214 26.088C182.834 28.635 184.144 32.3463 184.144 37.2219V77.6092H168.098V42.243C168.098 39.8416 167.698 38.2042 166.897 37.331C166.169 36.385 164.823 35.912 162.858 35.912C159.438 35.912 154.453 37.5493 147.904 40.824V77.6092H131.749V23.7958H144.848Z" fill="#232622"/>
<path d="M250.797 1.20072V77.6092H238.026L236.716 69.75C231.549 75.8627 224.709 78.919 216.195 78.919C209.5 78.919 204.625 76.5176 201.568 71.7148C198.585 66.8392 197.093 59.6714 197.093 50.2113C197.093 39.878 198.767 32.6373 202.114 28.4895C205.461 24.3416 210.664 22.2676 217.723 22.2676C224.636 22.2676 230.458 23.8686 235.188 27.0704C234.824 23.0681 234.642 19.3204 234.642 15.8275V1.20072H250.797ZM234.642 61.2359V36.3486C229.767 34.966 225.946 34.2747 223.181 34.2747C219.542 34.2747 217.032 35.2934 215.649 37.331C214.339 39.3686 213.684 43.6256 213.684 50.1021C213.684 56.2876 214.339 60.4355 215.649 62.5458C216.959 64.5834 219.288 65.6021 222.635 65.6021C224.891 65.6021 226.819 65.3111 228.42 64.7289C230.021 64.074 232.095 62.9096 234.642 61.2359Z" fill="#232622"/>
<path d="M282.752 77.6092H266.706V23.7958H282.752V77.6092Z" fill="#232622"/>
<path d="M337.261 22.2676L335.623 37.2219H331.257C327.691 37.2219 322.197 38.4589 314.775 40.9331V77.6092H298.62V23.7958H311.173L312.592 31.6549C319.941 25.3967 327.218 22.2676 334.423 22.2676H337.261Z" fill="#232622"/>
<path d="M380.701 56.1057H361.271C361.781 60.0352 362.945 62.6913 364.764 64.074C366.656 65.3838 369.749 66.0388 374.042 66.0388C379.791 66.0388 386.486 65.6385 394.127 64.8381L395.655 74.8803C390.052 77.5728 382.229 78.919 372.187 78.919C362.072 78.919 354.868 76.7359 350.574 72.3697C346.281 68.0035 344.134 60.7993 344.134 50.7571C344.134 40.2054 346.208 32.8193 350.356 28.5986C354.576 24.378 361.635 22.2676 371.532 22.2676C380.483 22.2676 386.959 23.8322 390.961 26.9613C394.964 30.0176 397.001 34.7113 397.074 41.0423C397.074 46.0634 395.764 49.8474 393.144 52.3944C390.598 54.8686 386.45 56.1057 380.701 56.1057ZM360.944 46.3909H376.225C378.19 46.3909 379.5 45.9179 380.155 44.9718C380.883 44.0258 381.247 42.6432 381.247 40.824C381.247 38.277 380.592 36.5305 379.282 35.5845C377.972 34.5657 375.571 34.0564 372.078 34.0564C367.93 34.0564 365.092 34.8932 363.564 36.5669C362.035 38.1679 361.162 41.4425 360.944 46.3909Z" fill="#232622"/>
<path d="M453.788 64.8381L455.207 75.3169C449.676 77.7183 442.727 78.919 434.358 78.919C424.461 78.919 417.476 76.8087 413.4 72.588C409.398 68.2946 407.397 60.9812 407.397 50.6479C407.397 40.2418 409.434 32.9284 413.51 28.7078C417.585 24.4143 424.607 22.2676 434.576 22.2676C442.727 22.2676 449.349 23.3956 454.443 25.6514L452.696 35.6937C444.837 35.5481 439.707 35.4754 437.305 35.4754C432.357 35.4754 428.937 36.5305 427.045 38.6409C425.226 40.7512 424.316 44.7535 424.316 50.6479C424.316 56.5423 425.226 60.5446 427.045 62.6549C428.937 64.7653 432.357 65.8204 437.305 65.8204C443.636 65.8204 449.13 65.493 453.788 64.8381Z" fill="#232622"/>
<path d="M488.154 34.6021V60.0352C488.154 62.0728 488.59 63.4918 489.463 64.2923C490.337 65.0927 491.865 65.493 494.048 65.493H500.925L502.671 76.7359C498.523 78.1913 493.466 78.919 487.499 78.919C482.623 78.919 478.839 77.5728 476.147 74.8803C473.454 72.115 472.108 68.2946 472.108 63.419V34.6021H462.611V24.3416L472.108 23.7958V8.73241H488.154V23.7958H503.108V34.6021H488.154Z" fill="#232622"/>
</svg>
