<svg width="133" height="31" viewBox="0 0 133 31" fill="none" xmlns="http://www.w3.org/2000/svg">
<path d="M89.1518 6H87.8481C87.2821 6 87 6.30825 87 6.92081V8.07919C87 8.69437 87.2827 9.0013 87.8481 9H89.1518C89.7184 9 90.0011 8.69306 89.9999 8.07919V6.92081C90.0053 6.30825 89.7178 6 89.1518 6Z" fill="#667EEA"/>
<path fill-rule="evenodd" clip-rule="evenodd" d="M38.6359 11.8308L38.4147 10.2804H36V25H38.9604V22.4325C38.9869 21.6702 38.9666 20.9069 38.8995 20.1475C39.7696 20.8374 40.8756 21.1824 42.2175 21.1824C43.5103 21.2008 44.4639 20.8005 45.0783 19.9816C45.6928 19.1626 46 17.7321 46 15.6899C46.0012 11.8966 44.8608 10 42.5788 10C41.8092 10.0042 41.0489 10.1804 40.3465 10.5174C39.6897 10.8085 39.1043 11.2579 38.6359 11.8308ZM38.9677 18.3858V13.5135H38.9585C39.9244 12.8328 40.7355 12.4924 41.3917 12.4924C41.9687 12.4924 42.3723 12.7235 42.5991 13.1639C42.8276 13.5958 42.9419 14.4365 42.9419 15.686C42.9284 16.9645 42.8012 17.8051 42.5604 18.208C42.3195 18.6109 41.8697 18.8124 41.2111 18.8124C40.7551 18.8124 40.0074 18.6702 38.9677 18.3858Z" fill="#232622"/>
<path fill-rule="evenodd" clip-rule="evenodd" d="M48.4998 10.5087L48.7951 12.6272C50.5653 12.5146 52.0242 12.4634 53.1717 12.4738C53.8317 12.4738 54.2524 12.565 54.4975 12.7495C54.7426 12.934 54.8699 13.2932 54.8834 13.8311V14.2971H51.1802C50.1819 14.301 49.4023 14.534 48.8414 14.9961C48.2805 15.4583 48 16.1055 48 16.9379V17.9981C48 18.9456 48.3146 19.6854 48.9475 20.2233C49.5779 20.7411 50.3923 21 51.3906 21C52.9074 20.9987 54.1849 20.3838 55.2231 19.1553L55.5396 20.7456H58V13.8311C57.991 12.4343 57.6584 11.4466 57.0023 10.868C56.3462 10.2893 55.317 10 53.9147 10C52.0983 10.0066 50.2861 10.1768 48.4998 10.5087ZM51.0702 17.567V17.1631C51.0702 16.5146 51.408 16.1806 52.0814 16.1612H54.8834V17.6291C53.9996 18.3074 53.1357 18.6466 52.2918 18.6466C51.4774 18.6479 51.0702 18.288 51.0702 17.567Z" fill="#232622"/>
<path d="M63.5019 10.2964L63.7311 11.8877C65.2195 10.6279 66.6837 9.99868 68.1238 10C69.0558 10 69.7643 10.2533 70.2494 10.7599C70.7345 11.2664 70.9847 12.0044 71 12.9738V21H67.9442V13.9644C67.9442 13.487 67.8678 13.1614 67.715 12.9877C67.5756 12.8007 67.3178 12.7052 66.9511 12.7052C66.2979 12.7052 65.343 13.0308 64.0863 13.6819V21H61V10.2964H63.5019Z" fill="#232622"/>
<path fill-rule="evenodd" clip-rule="evenodd" d="M84 20.7472V6H80.9878V8.8236C80.9865 9.49781 81.0207 10.2209 81.0902 10.9929C80.2102 10.3753 79.1261 10.0665 77.8378 10.0665C76.521 10.0652 75.5523 10.4654 74.9317 11.267C74.3112 12.0686 74.0009 13.4659 74.0009 15.459C73.9823 17.2976 74.2603 18.6808 74.8349 19.6085C75.4096 20.5362 76.3174 21 77.5586 21C79.1472 20.9987 80.4187 20.4088 81.3732 19.2302L81.617 20.7472H84ZM80.9915 12.784V17.58V17.5878C80.6259 17.8441 80.239 18.0663 79.8354 18.2517C79.4888 18.3716 79.1247 18.4284 78.7593 18.4196C78.1338 18.4196 77.7056 18.2497 77.4562 17.8406C77.2067 17.4314 77.0838 16.6324 77.0838 15.4377C77.0751 14.1884 77.1993 13.3668 77.4562 12.9731C77.7131 12.5794 78.1804 12.3825 78.858 12.3825C79.5829 12.4204 80.3 12.5553 80.9915 12.784Z" fill="#232622"/>
<path d="M90 21H87V11H90V21Z" fill="#232622"/>
<path d="M101 10L100.66 12.9816H99.7578C99.0179 12.9816 97.8806 13.2274 96.3458 13.719V21H93V10.3041H95.5983L95.8923 11.8645C97.4106 10.6228 98.9172 10.0013 100.412 10H101Z" fill="#232622"/>
<path fill-rule="evenodd" clip-rule="evenodd" d="M106.238 16.5728H109.908C110.982 16.5806 111.766 16.3372 112.26 15.8427C112.753 15.3482 113 14.6136 113 13.6388C112.991 12.4388 112.609 11.5327 111.853 10.9204C111.098 10.3081 109.872 10.0013 108.176 10C106.294 10.0013 104.961 10.411 104.177 11.2291C103.392 12.0472 103 13.4816 103 15.532C103 17.4803 103.405 18.879 104.216 19.7282C105.044 20.5761 106.405 21 108.3 21C110.196 21 111.673 20.7411 112.734 20.2233L112.445 18.2816C111.184 18.426 109.918 18.5037 108.65 18.5146C107.841 18.5146 107.239 18.4019 106.897 18.1262C106.555 17.8505 106.334 17.3359 106.238 16.5728ZM109.062 14.6854H106.175C106.217 13.7243 106.377 13.1049 106.665 12.7786C106.952 12.4524 107.49 12.2913 108.274 12.2913C108.929 12.3029 109.382 12.4013 109.634 12.5864C109.886 12.7715 110.012 13.1107 110.012 13.6039C110.03 13.8883 109.958 14.1712 109.806 14.4097C109.681 14.5942 109.439 14.6854 109.062 14.6854Z" fill="#232622"/>
<path d="M123.703 18.266L124 20.301C122.845 20.767 121.393 21 119.643 21C117.574 21 116.111 20.5903 115.255 19.7709C114.398 18.9515 113.98 17.5314 114.001 15.5107C114.001 13.49 114.426 12.0699 115.278 11.2505C116.129 10.4311 117.596 10.0142 119.681 10C121.384 10 122.768 10.2188 123.831 10.6563L123.467 12.5981C121.825 12.5709 120.752 12.5573 120.249 12.5573C119.217 12.5573 118.502 12.7618 118.105 13.1709C117.708 13.5799 117.518 14.3566 117.537 15.501C117.537 16.6447 117.727 17.4233 118.105 17.8311C118.483 18.2388 119.217 18.4466 120.249 18.4466C121.403 18.4598 122.558 18.3994 123.703 18.266Z" fill="#232622"/>
<path d="M130.037 12.162V17.2302C130.037 17.6292 130.124 17.9186 130.296 18.0782C130.468 18.2378 130.77 18.3176 131.202 18.3176H132.56L132.905 20.5624C131.937 20.8747 130.924 21.0218 129.909 20.9974C128.945 20.9974 128.197 20.7314 127.667 20.1993C127.133 19.6465 126.877 18.8863 126.877 17.9126V12.162H125V10.1147L126.877 10.007V7H130.037V10.007H133V12.162H130.037Z" fill="#232622"/>
<path fill-rule="evenodd" clip-rule="evenodd" d="M20.2398 0.0364113C18.5436 0.25966 18.0498 1.89635 18.4902 2.77121C18.7515 3.29026 18.8569 3.32514 19.3206 3.47444C19.8786 3.65053 20.4216 3.87265 20.9443 4.1386C22.9593 5.13346 23.8744 8.18778 23.8744 10.0477C23.8744 10.0477 25.8483 5.38601 25.1644 2.99027C24.4804 0.594533 21.9361 -0.186837 20.2398 0.0364113ZM5.49218 0.0364113C7.18841 0.255474 7.68087 1.89635 7.24176 2.77121C6.98049 3.29026 6.87516 3.32933 6.41143 3.46886C5.85325 3.64675 5.3102 3.87074 4.7877 4.13861C2.77274 5.13346 1.85896 8.18778 1.85896 10.0477C1.85896 10.0477 -0.123171 5.39019 0.562161 2.99027C1.24749 0.590347 3.79595 -0.181256 5.49218 0.0364113ZM6.30063 7.25711C6.30063 7.25711 7.14874 5.58274 8.84771 5.97343C10.5467 6.36411 10.6602 4.35348 8.56455 4.63254C6.43605 4.91579 6.30063 7.25711 6.30063 7.25711ZM7.15011 16.6056C8.6603 16.6056 9.88597 15.181 10.228 12.9779C10.2936 12.5593 10.3771 12.1211 10.4591 11.6998L10.4604 11.6932C10.8019 9.93361 11.1046 8.37335 9.88597 8.37335C8.37441 8.37335 5.23501 10.2975 4.75623 12.9779C4.27746 15.6582 5.63992 16.6056 7.15011 16.6056ZM9.99403 12.4197C9.90922 13.3267 9.72045 14.1639 8.36757 13.9811C7.01468 13.7983 6.856 12.9193 7.18978 11.6523C7.52355 10.3854 9.47422 9.03054 10.1308 9.21053C10.6041 9.3403 10.3675 10.4803 10.1664 11.443C10.0926 11.7654 10.0351 12.0914 9.99403 12.4197ZM13.0035 20.0939C14.3714 20.0939 15.0554 18.8632 15.0554 17.8614C15.0554 17.1819 14.5629 17.2949 13.9405 17.4428C13.6341 17.5241 13.3199 17.5709 13.0035 17.5824C12.6805 17.5693 12.3596 17.5225 12.0459 17.4428L12.0175 17.4369C11.3638 17.2998 10.8148 17.1847 10.8148 17.8614C10.8148 18.8632 11.6356 20.0939 13.0035 20.0939ZM16.9705 5.97343C18.6681 5.58274 19.5176 7.25711 19.5176 7.25711C19.5176 7.25711 19.3808 4.91579 17.2523 4.63254C15.1566 4.35348 15.2701 6.36411 16.9691 5.97343H16.9705ZM15.5902 12.9779C15.9322 15.181 17.1634 16.6056 18.6681 16.6056C20.1783 16.6056 21.5407 15.6582 21.062 12.9779C20.5832 10.2975 17.4369 8.37335 15.9322 8.37335C14.7122 8.37335 15.0156 9.93711 15.3576 11.6991L15.3577 11.6998C15.4398 12.1211 15.5246 12.5593 15.5902 12.9779ZM17.4506 13.9811C16.0977 14.1639 15.909 13.3267 15.8242 12.4197C15.7825 12.0914 15.7245 11.7654 15.6504 11.443L15.6494 11.4381C15.4499 10.4736 15.2149 9.33729 15.6874 9.21053C16.344 9.03054 18.296 10.3854 18.6284 11.6523C18.9608 12.9193 18.8035 13.7969 17.4506 13.9811ZM21.1085 20.5864C23.7572 19.6038 23.7775 14.5962 23.7773 14.4053C23.7858 14.4236 27.6349 22.7733 25.1835 25.6877C22.7295 28.6053 18.1537 30.6689 16.8911 27.1276C15.6285 23.5864 18.4082 21.5883 21.1085 20.5864ZM4.89029 20.592C2.18863 19.5902 2.22146 14.4053 2.22146 14.4053C2.22146 14.4053 -1.64157 22.7729 0.8207 25.6877C3.28297 28.6025 7.84912 30.6731 9.11172 27.1332C10.3743 23.5933 7.59058 21.5953 4.89029 20.592Z" fill="#2B2E29"/>
<path fill-rule="evenodd" clip-rule="evenodd" d="M11.2734 24.2143C11.345 24.0818 11.4794 23.9999 11.6251 24H14.3701C14.5155 24.0004 14.6495 24.0825 14.7208 24.2149C14.7921 24.3473 14.7897 24.5096 14.7146 24.6396L13.9314 25.9906C13.9071 26.0323 13.8638 26.0579 13.8171 26.0581H12.1781C12.1309 26.0584 12.0869 26.0327 12.0624 25.9906L11.2792 24.6396C11.204 24.5093 11.2017 24.3468 11.2734 24.2143ZM13.8157 26.4433H12.1794C12.1312 26.4431 12.0865 26.4699 12.0624 26.5135L11.0559 28.3087C10.9678 28.4649 10.9851 28.6625 11.0989 28.7993L12.8953 30.9516C12.9209 30.9823 12.9579 31 12.9969 31C13.0359 31 13.0729 30.9823 13.0985 30.9516L14.9003 28.7993C15.0145 28.6628 15.0324 28.4652 14.9447 28.3087L13.9314 26.5135C13.9075 26.4703 13.8635 26.4436 13.8157 26.4433Z" fill="#667EEA"/>
</svg>
