<svg width="21" height="21" viewBox="0 0 21 21" fill="none" xmlns="http://www.w3.org/2000/svg">
    <path fill-rule="evenodd" clip-rule="evenodd" d="M19.144 19.6722L17.372 20.9182C15.869 21.2832 12.587 19.4772 11.445 18.8652C10.303 18.2532 7.32702 15.7332 6.09802 14.3492C4.87002 12.9662 4.42202 12.5402 2.39702 9.01315L1.15802 6.35315C0.953015 5.02715 0.898015 4.61015 1.26402 3.48915C1.26402 3.48915 1.96902 2.78215 2.34602 2.40215C2.87002 1.87415 3.09202 1.63415 3.82202 1.20815C5.01502 0.532154 6.92702 1.43015 7.75102 2.40215L8.83202 4.57615C9.08502 5.61115 8.69402 7.54415 7.81401 7.51115C7.06902 7.49115 6.72402 8.01715 6.66502 8.26915C6.75302 8.56415 7.31401 9.42915 7.33202 9.42315C7.33202 9.42315 8.04401 10.5282 8.22901 10.9752C8.22901 10.9752 11.337 14.5462 11.753 14.8672C12.517 15.0622 13.388 14.6572 13.655 14.4852C13.655 14.4852 14.087 14.1822 14.524 13.8742C14.973 13.5592 15.428 13.2392 15.428 13.2392C16.188 12.8442 17.348 12.4382 18.437 13.9392L19.671 16.4022C20.279 17.6692 20.132 18.7702 19.144 19.6722Z" fill="#1F5DEA"/>
</svg>
