<svg width="94" height="94" viewBox="0 0 94 94" fill="none" xmlns="http://www.w3.org/2000/svg">
    <path opacity="0.05" fill-rule="evenodd" clip-rule="evenodd" d="M93.9999 47C93.9999 72.9572 72.9572 94 46.9999 94C21.0427 94 -5.40018e-05 72.9572 -5.40018e-05 47C-5.40018e-05 21.0428 21.0427 3.19481e-05 46.9999 3.19481e-05C72.9572 3.19481e-05 93.9999 21.0428 93.9999 47Z" fill="white"/>
    <path opacity="0.05" fill-rule="evenodd" clip-rule="evenodd" d="M17.9999 47C17.9999 30.9838 30.9838 18 46.9999 18C63.016 18 76 30.9838 76 47C76 63.016 63.016 75.9999 46.9999 75.9999C30.9838 75.9999 17.9999 63.016 17.9999 47Z" fill="white"/>
</svg>
