<svg width="94" height="94" viewBox="0 0 94 94" fill="none" xmlns="http://www.w3.org/2000/svg">
    <path opacity="0.08" fill-rule="evenodd" clip-rule="evenodd" d="M93.9999 46.9999C93.9999 72.9572 72.9571 93.9999 47 93.9999C21.0427 93.9999 -5.40018e-05 72.9572 -5.40018e-05 46.9999C-5.40018e-05 21.0427 21.0427 -5.40018e-05 47 -5.40018e-05C72.9571 -5.40018e-05 93.9999 21.0427 93.9999 46.9999Z" fill="white"/>
    <path opacity="0.05" fill-rule="evenodd" clip-rule="evenodd" d="M66.9999 47.5C66.9999 58.2695 58.2694 67 47.5 67C36.7304 67 28 58.2695 28 47.5C28 36.7305 36.7304 28 47.5 28C58.2694 28 66.9999 36.7305 66.9999 47.5Z" fill="white"/>
    <path opacity="0.05" fill-rule="evenodd" clip-rule="evenodd" d="M82.9999 47.5C82.9999 67.1059 67.1059 83 47.5 83C27.8939 83 12 67.1059 12 47.5C12 27.8939 27.8939 11.9999 47.5 11.9999C67.1059 11.9999 82.9999 27.8939 82.9999 47.5Z" fill="white"/>
</svg>
