<svg width="729" height="699" viewBox="0 0 729 699" fill="none" xmlns="http://www.w3.org/2000/svg">
    <path d="M722 378.095C722 561.929 540.089 692 355.573 692C171.057 692 0 562.362 0 378.095C0 193.827 175.833 23 359.915 23C543.996 23 722 193.827 722 378.095Z" fill="url(#paint0_linear)"/>
    <path d="M712.067 382.833V375.033L296.125 131.067C288.31 126.733 279.192 123.7 271.377 128.467L52.986 253.7C50.8151 255 49.0784 256.733 48.21 258.9L46.9075 261.5C42.1316 271.033 45.605 282.3 55.1569 287.933L463.283 523.233C471.099 527.567 483.69 527.567 491.505 523.233L700.344 403.2C707.725 398.433 712.067 391.067 712.067 382.833Z" fill="url(#paint1_linear)"/>
    <path d="M705.989 381.1C713.804 376.767 713.804 369.4 705.989 364.633L297.428 129.333C289.613 125 277.021 125 269.206 129.333L54.7227 252.833C46.9075 257.167 46.9075 264.533 54.7227 269.3L463.718 505.033C471.533 509.367 484.124 509.367 491.939 505.033L705.989 381.1Z" fill="#F3F8FE"/>
    <path fill-rule="evenodd" clip-rule="evenodd" d="M697.305 380.667C704.686 376.333 704.686 369.4 697.305 365.067L297.428 134.533C290.047 130.2 277.456 130.2 270.075 134.533L232.735 156.633C230.565 157.933 230.13 161.4 232.301 162.7L236.643 165.733C239.248 167.467 239.248 171.367 236.643 173.1L134.177 231.167C131.572 232.9 128.099 232.9 125.494 231.167L116.81 226.4C114.639 225.1 112.468 225.533 110.298 226.4L63.4064 253.267C56.0254 257.6 56.0254 264.533 63.4064 268.867L463.284 499.4C470.665 503.733 483.256 503.733 490.637 499.4L697.305 380.667Z" fill="#E7EFF8"/>
    <path d="M157.189 208.2H157.623L202.777 182.2C203.646 182.2 203.646 181.333 203.646 180.467C203.212 180.033 202.343 179.6 201.909 180.033L156.755 206.033C156.32 206.467 155.886 207.333 156.32 207.767C156.32 208.2 156.755 208.2 157.189 208.2Z" fill="#A5CBEF"/>
    <path d="M238 153.907L595 360C568.973 327.459 564.635 297.521 565.069 278.43C565.937 244.588 546.851 212.914 515.185 201.2C493.496 192.956 467.903 193.824 445.346 205.538C419.753 218.989 388.087 205.972 379.846 177.77C379.412 176.902 379.412 176.035 378.978 174.733C372.471 157.812 353.385 149.568 335.6 154.341C320.852 159.113 287.451 165.188 238 153.907Z" fill="url(#paint2_linear)"/>
    <path opacity="0.3" d="M368.81 200.35C360.561 202.525 347.102 205.57 328 205.57L595 360C568.951 327.374 564.61 297.358 565.044 278.217C565.478 269.517 564.176 261.252 562.005 253.422C557.663 250.812 553.322 248.201 548.112 246.461C526.405 238.196 500.79 239.066 478.215 250.812C452.6 264.297 420.907 251.247 412.659 222.971C412.224 222.101 412.224 221.231 411.79 219.926C405.712 203.83 386.176 195.565 368.81 200.35Z" fill="#3C5185"/>
    <path d="M276 209.907L633 416C606.973 383.459 602.635 353.521 603.069 334.43C603.937 300.588 584.851 268.914 553.185 257.2C531.496 248.956 505.903 249.824 483.346 261.538C457.753 274.989 426.087 261.972 417.846 233.77C417.412 232.902 417.412 232.035 416.978 230.733C410.471 213.812 391.385 205.568 373.6 210.341C358.852 215.113 325.451 221.188 276 209.907Z" fill="url(#paint3_linear)"/>
    <path d="M542.95 362.566C541.6 362.566 540.7 361.698 540.7 360.396V348.679C540.7 347.377 541.6 346.509 542.95 346.509C544.3 346.509 545.2 347.377 545.2 348.679V360.396C545.2 361.698 544.3 362.566 542.95 362.566Z" fill="#3C5185"/>
    <path d="M542.95 341.302C541.6 341.302 540.7 340.434 540.7 339.132V327.415C540.7 326.113 541.6 325.245 542.95 325.245C544.3 325.245 545.2 326.113 545.2 327.415V339.132C545.2 340.434 544.3 341.302 542.95 341.302Z" fill="#3C5185"/>
    <path d="M542.95 320.038C541.6 320.038 540.7 319.17 540.7 317.868V306.151C540.7 304.849 541.6 303.981 542.95 303.981C544.3 303.981 545.2 304.849 545.2 306.151V317.868C545.2 318.736 544.3 320.038 542.95 320.038Z" fill="#3C5185"/>
    <path d="M542.95 298.774C541.6 298.774 540.7 297.906 540.7 296.604V284.887C540.7 283.585 541.6 282.717 542.95 282.717C544.3 282.717 545.2 283.585 545.2 284.887V296.604C545.2 297.472 544.3 298.774 542.95 298.774Z" fill="#3C5185"/>
    <path d="M542.95 277.076C541.6 277.076 540.7 276.208 540.7 274.906V263.189C540.7 261.887 541.6 261.019 542.95 261.019C544.3 261.019 545.2 261.887 545.2 263.189V274.906C545.2 276.208 544.3 277.076 542.95 277.076Z" fill="#3C5185"/>
    <path d="M542.95 255.811C541.6 255.811 540.7 254.943 540.7 253.641V241.924C540.7 240.623 541.6 239.755 542.95 239.755C544.3 239.755 545.2 240.623 545.2 241.924V253.641C545.2 254.943 544.3 255.811 542.95 255.811Z" fill="#3C5185"/>
    <path d="M542.95 234.547C541.6 234.547 540.7 233.679 540.7 232.377V220.66C540.7 219.359 541.6 218.491 542.95 218.491C544.3 218.491 545.2 219.359 545.2 220.66V232.377C545.2 233.679 544.3 234.547 542.95 234.547Z" fill="#3C5185"/>
    <path d="M542.95 213.283C541.6 213.283 540.7 212.415 540.7 211.113V199.396C540.7 198.094 541.6 197.226 542.95 197.226C544.3 197.226 545.2 198.094 545.2 199.396V211.113C545.2 212.415 544.3 213.283 542.95 213.283Z" fill="#3C5185"/>
    <path d="M542.95 192.019C541.6 192.019 540.7 191.151 540.7 189.849V178.132C540.7 176.83 541.6 175.962 542.95 175.962C544.3 175.962 545.2 176.83 545.2 178.132V189.849C545.2 191.151 544.3 192.019 542.95 192.019Z" fill="#3C5185"/>
    <path d="M542.95 170.755C541.6 170.755 540.7 169.887 540.7 168.585V156.868C540.7 155.566 541.6 154.698 542.95 154.698C544.3 154.698 545.2 155.566 545.2 156.868V168.585C545.2 169.887 544.3 170.755 542.95 170.755Z" fill="#3C5185"/>
    <path d="M542.95 149.491C541.6 149.491 540.7 148.623 540.7 147.321V135.604C540.7 134.302 541.6 133.434 542.95 133.434C544.3 133.434 545.2 134.302 545.2 135.604V147.321C545.2 148.189 544.3 149.491 542.95 149.491Z" fill="#3C5185"/>
    <path d="M399.05 280.567C397.7 280.567 396.8 279.7 396.8 278.4V266.7C396.8 265.4 397.7 264.533 399.05 264.533C400.4 264.533 401.3 265.4 401.3 266.7V278.4C401.3 279.7 400.4 280.567 399.05 280.567Z" fill="#3C5185"/>
    <path d="M399.05 259.333C397.7 259.333 396.8 258.467 396.8 257.167V245.467C396.8 244.167 397.7 243.3 399.05 243.3C400.4 243.3 401.3 244.167 401.3 245.467V257.167C401.3 258.033 400.4 259.333 399.05 259.333Z" fill="#3C5185"/>
    <path d="M399.05 238.1C397.7 238.1 396.8 237.233 396.8 235.933V224.233C396.8 222.933 397.7 222.067 399.05 222.067C400.4 222.067 401.3 222.933 401.3 224.233V235.933C401.3 236.8 400.4 238.1 399.05 238.1Z" fill="#3C5185"/>
    <path d="M399.05 216.433C397.7 216.433 396.8 215.567 396.8 214.267V202.567C396.8 201.267 397.7 200.4 399.05 200.4C400.4 200.4 401.3 201.267 401.3 202.567V214.267C401.3 215.567 400.4 216.433 399.05 216.433Z" fill="#3C5185"/>
    <path d="M399.05 195.2C397.7 195.2 396.8 194.333 396.8 193.033V181.333C396.8 180.033 397.7 179.167 399.05 179.167C400.4 179.167 401.3 180.033 401.3 181.333V193.033C401.3 194.333 400.4 195.2 399.05 195.2Z" fill="#3C5185"/>
    <path d="M399.05 173.967C397.7 173.967 396.8 173.1 396.8 171.8V160.1C396.8 158.8 397.7 157.933 399.05 157.933C400.4 157.933 401.3 158.8 401.3 160.1V171.8C401.3 173.1 400.4 173.967 399.05 173.967Z" fill="#3C5185"/>
    <path d="M399.05 152.733C397.7 152.733 396.8 151.867 396.8 150.567V138.867C396.8 137.567 397.7 136.7 399.05 136.7C400.4 136.7 401.3 137.567 401.3 138.867V150.567C401.3 151.867 400.4 152.733 399.05 152.733Z" fill="#3C5185"/>
    <path d="M399.05 131.5C397.7 131.5 396.8 130.633 396.8 129.333V117.633C396.8 116.333 397.7 115.467 399.05 115.467C400.4 115.467 401.3 116.333 401.3 117.633V129.333C401.3 130.633 400.4 131.5 399.05 131.5Z" fill="#3C5185"/>
    <path d="M523.167 53.0847V98.7193C523.167 101.762 524.467 104.369 527.067 105.673L534.433 110.454L541.367 126.1C541.8 128.273 544.4 129.577 546.567 128.273L555.233 122.623L616.767 158.262C619.8 160 623.7 157.827 623.7 154.35V108.281C623.7 105.238 622.4 102.631 619.8 101.327L530.1 49.6077C527.067 47.4347 523.167 49.6077 523.167 53.0847Z" fill="#B1C6FF"/>
    <path d="M621.233 156.088V109.585C621.233 106.542 619.933 103.935 617.333 102.631L527.633 50.9116C526.767 50.477 525.9 50.477 525.033 50.477C526.333 48.7385 528.5 48.3039 530.667 49.6077L620.367 101.327C622.967 102.631 624.267 105.238 624.267 108.281V154.785C624.267 157.392 622.1 159.131 619.933 159.131C620.8 158.262 621.233 156.958 621.233 156.088Z" fill="url(#paint4_linear)"/>
    <path d="M613.3 110.454L529.233 62.2115V67.4269L613.3 116.104V110.454Z" fill="white"/>
    <path d="M613.3 124.362L529.233 76.1193V81.3346L613.3 130.012V124.362Z" fill="white"/>
    <path d="M577.333 118.277L529.233 90.4615V95.6769L577.333 123.492V118.277Z" fill="white"/>
    <g opacity="0.3">
        <path opacity="0.01" d="M487.188 447.284C514.612 433.398 514.612 410.4 487.188 396.08C459.765 382.195 415.365 382.195 388.376 396.08C361.388 409.966 361.388 432.964 388.376 447.284C415.365 461.17 459.765 461.17 487.188 447.284Z" fill="#3C5185"/>
        <path opacity="0.02439" d="M486.753 446.85C513.741 432.964 513.741 409.966 486.753 396.08C459.765 382.195 415.8 382.195 388.812 396.08C361.824 409.966 361.824 432.964 388.812 446.85C415.8 460.736 459.765 460.736 486.753 446.85Z" fill="#3C5185"/>
        <path opacity="0.04878" d="M486.318 446.416C512.871 432.53 512.871 409.966 486.318 396.514C459.765 382.629 416.235 382.629 389.682 396.514C363.129 410.4 363.129 432.964 389.682 446.416C415.8 460.302 459.329 460.302 486.318 446.416Z" fill="#3C5185"/>
        <path opacity="0.073171" d="M485.447 445.982C512 432.53 512 409.966 485.447 396.514C458.894 383.063 415.8 383.063 389.682 396.514C363.565 409.966 363.565 432.53 389.682 445.982C416.235 459.868 459.33 459.868 485.447 445.982Z" fill="#3C5185"/>
        <path opacity="0.097561" d="M485.012 445.982C511.129 432.53 511.129 410.4 485.012 396.948C458.894 383.496 416.235 383.496 390.118 396.948C364 410.4 364 432.53 390.118 445.982C416.235 459.434 458.894 459.434 485.012 445.982Z" fill="#3C5185"/>
        <path opacity="0.122" d="M484.577 445.548C510.259 432.096 510.259 410.4 484.577 396.948C458.894 383.496 416.671 383.496 390.988 396.948C365.306 410.4 365.306 432.096 390.988 445.548C416.671 459 458.894 459 484.577 445.548Z" fill="#3C5185"/>
        <path opacity="0.1463" d="M484.141 445.114C509.824 432.096 509.824 410.4 484.141 397.382C458.459 384.364 416.671 384.364 391.424 397.382C366.177 410.4 366.177 432.096 391.424 445.114C416.671 458.132 458.459 458.132 484.141 445.114Z" fill="#3C5185"/>
        <path opacity="0.1707" d="M483.706 444.68C508.953 431.663 508.953 410.4 483.706 397.382C458.459 384.364 417.106 384.364 391.859 397.382C366.612 410.4 366.612 431.663 391.859 444.68C417.106 457.698 458.459 457.698 483.706 444.68Z" fill="#3C5185"/>
        <path opacity="0.1951" d="M483.271 444.246C508.082 431.229 508.082 410.4 483.271 397.382C458.459 384.364 417.541 384.364 392.729 397.382C367.918 410.4 367.918 431.229 392.729 444.246C417.541 457.264 458.024 457.264 483.271 444.246Z" fill="#3C5185"/>
        <path opacity="0.2195" d="M482.835 444.246C507.647 431.663 507.647 410.834 482.835 397.816C458.023 385.232 417.976 385.232 393.165 397.816C368.788 410.4 368.788 431.229 393.165 444.246C417.541 456.83 458.023 456.83 482.835 444.246Z" fill="#3C5185"/>
        <path opacity="0.2439" d="M481.965 443.813C506.341 431.229 506.341 410.4 481.965 397.816C457.588 385.232 417.541 385.232 393.6 397.816C369.224 410.4 369.224 431.229 393.6 443.813C417.977 456.396 457.588 456.396 481.965 443.813Z" fill="#3C5185"/>
        <path opacity="0.2683" d="M481.53 443.379C505.471 430.795 505.471 410.4 481.53 398.25C457.588 385.666 417.977 385.666 394.035 398.25C370.094 410.834 370.094 431.229 394.035 443.379C417.977 455.963 457.588 455.963 481.53 443.379Z" fill="#3C5185"/>
        <path opacity="0.2927" d="M481.094 442.945C505.035 430.795 505.035 410.4 481.094 398.25C457.153 386.1 418.412 386.1 394.471 398.25C370.529 410.4 370.529 430.795 394.471 442.945C418.412 455.095 457.153 455.095 481.094 442.945Z" fill="#3C5185"/>
        <path opacity="0.3171" d="M480.659 442.511C504.165 430.361 504.165 410.4 480.659 398.25C457.153 386.1 418.412 386.1 395.341 398.25C371.835 410.4 371.835 430.361 395.341 442.511C418.847 454.661 457.153 454.661 480.659 442.511Z" fill="#3C5185"/>
        <path opacity="0.3415" d="M480.224 442.077C503.73 429.927 503.73 410.4 480.224 398.25C456.718 386.1 418.847 386.1 395.777 398.25C372.706 410.4 372.706 429.927 395.777 442.077C418.847 454.227 456.718 454.227 480.224 442.077Z" fill="#3C5185"/>
        <path opacity="0.3659" d="M479.788 442.077C502.859 430.361 502.859 410.834 479.788 399.118C456.718 387.402 419.282 387.402 396.212 399.118C373.141 410.834 373.141 430.361 396.212 442.077C419.282 453.793 456.718 453.793 479.788 442.077Z" fill="#3C5185"/>
        <path opacity="0.3902" d="M479.353 441.643C501.988 429.927 501.988 410.834 479.353 399.118C456.718 387.402 419.718 387.402 397.082 399.118C374.447 410.834 374.447 429.927 397.082 441.643C419.282 453.359 456.282 453.359 479.353 441.643Z" fill="#3C5185"/>
        <path opacity="0.4146" d="M478.918 441.209C501.553 429.493 501.553 410.834 478.918 399.118C456.282 387.402 419.718 387.402 397.518 399.118C375.318 410.834 375.318 429.493 397.518 441.209C419.718 452.925 456.282 452.925 478.918 441.209Z" fill="#3C5185"/>
        <path opacity="0.439" d="M478.047 440.775C500.247 429.493 500.247 410.834 478.047 399.118C455.847 387.836 419.718 387.836 397.518 399.118C375.318 410.4 375.318 429.059 397.518 440.775C419.718 452.491 456.282 452.491 478.047 440.775Z" fill="#3C5185"/>
        <path opacity="0.4634" d="M477.612 440.341C499.377 429.059 499.377 410.4 477.612 399.118C455.847 387.836 420.153 387.836 398.388 399.118C376.624 410.4 376.624 429.059 398.388 440.341C420.153 451.623 455.847 451.623 477.612 440.341Z" fill="#3C5185"/>
        <path opacity="0.4878" d="M477.177 440.341C498.941 429.059 498.941 410.834 477.177 399.986C455.412 388.704 420.153 388.704 398.824 399.986C377.494 411.268 377.494 429.493 398.824 440.341C420.588 451.189 455.847 451.189 477.177 440.341Z" fill="#3C5185"/>
        <path opacity="0.5122" d="M476.741 439.907C498.071 429.059 498.071 410.834 476.741 399.986C455.412 389.138 420.588 389.138 399.259 399.986C377.929 410.834 377.929 429.059 399.259 439.907C420.588 450.755 455.412 450.755 476.741 439.907Z" fill="#3C5185"/>
        <path opacity="0.5366" d="M476.306 439.473C497.2 428.625 497.2 410.834 476.306 399.986C455.412 389.138 421.024 389.138 400.13 399.986C379.235 410.834 379.235 428.625 400.13 439.473C421.024 450.321 455.412 450.321 476.306 439.473Z" fill="#3C5185"/>
        <path opacity="0.561" d="M475.871 439.039C496.765 428.191 496.765 410.834 475.871 399.986C454.977 389.138 421.459 389.138 400.565 399.986C380.106 410.834 380.106 428.191 400.565 439.039C421.024 449.888 454.977 449.888 475.871 439.039Z" fill="#3C5185"/>
        <path opacity="0.5854" d="M475.435 438.605C495.894 428.191 495.894 410.834 475.435 400.42C454.976 390.005 421.459 390.005 401 400.42C380.541 410.834 380.541 428.191 401 438.605C421.459 449.454 454.976 449.454 475.435 438.605Z" fill="#3C5185"/>
        <path opacity="0.6098" d="M475 438.172C495.024 427.757 495.024 410.834 475 400.42C454.977 390.005 421.894 390.005 401.871 400.42C381.847 410.834 381.847 427.757 401.871 438.172C421.894 448.586 454.541 448.586 475 438.172Z" fill="#3C5185"/>
        <path opacity="0.6341" d="M474.129 438.171C494.153 427.757 494.153 411.268 474.129 400.854C454.106 390.439 421.894 390.439 401.87 400.854C382.282 411.268 382.282 427.757 401.87 438.171C421.894 448.152 454.541 448.152 474.129 438.171Z" fill="#3C5185"/>
        <path opacity="0.6585" d="M473.694 437.737C493.282 427.757 493.282 411.268 473.694 400.854C454.106 390.873 421.894 390.873 402.741 400.854C383.153 410.834 383.153 427.323 402.741 437.737C422.329 447.718 454.106 447.718 473.694 437.737Z" fill="#3C5185"/>
        <path opacity="0.6829" d="M473.259 437.304C492.412 427.323 492.412 410.834 473.259 400.854C454.106 390.873 422.329 390.873 403.176 400.854C384.023 410.834 384.023 427.323 403.176 437.304C422.329 447.284 454.106 447.284 473.259 437.304Z" fill="#3C5185"/>
        <path opacity="0.7073" d="M472.824 436.87C491.976 426.889 491.976 410.834 472.824 401.288C453.671 391.307 422.765 391.307 403.612 401.288C384.459 411.268 384.459 427.323 403.612 436.87C422.765 446.85 453.671 446.85 472.824 436.87Z" fill="#3C5185"/>
        <path opacity="0.7317" d="M472.388 436.436C491.106 426.889 491.106 410.834 472.388 401.288C453.671 391.741 423.2 391.741 404.483 401.288C385.765 410.834 385.765 426.889 404.483 436.436C422.765 446.416 453.671 446.416 472.388 436.436Z" fill="#3C5185"/>
        <path opacity="0.7561" d="M471.953 436.436C490.235 426.889 490.235 411.268 471.953 401.721C453.671 392.175 423.2 392.175 404.918 401.721C386.635 411.268 386.635 426.889 404.918 436.436C423.2 445.982 453.235 445.982 471.953 436.436Z" fill="#3C5185"/>
        <path opacity="0.7805" d="M471.518 436.002C489.8 426.455 489.8 411.268 471.518 401.721C453.235 392.175 423.635 392.175 405.353 401.721C387.071 411.268 387.071 426.455 405.353 436.002C423.635 445.114 453.235 445.114 471.518 436.002Z" fill="#3C5185"/>
        <path opacity="0.8049" d="M471.082 435.568C488.93 426.455 488.93 411.268 471.082 402.155C453.235 393.043 424.071 393.043 406.224 402.155C388.377 411.268 388.377 426.455 406.224 435.568C423.635 444.68 452.8 444.68 471.082 435.568Z" fill="#3C5185"/>
        <path opacity="0.8293" d="M470.212 435.134C488.059 426.021 488.059 411.268 470.212 402.155C452.365 393.043 423.635 393.043 406.223 402.155C388.812 411.268 388.812 426.021 406.223 435.134C424.07 444.246 452.8 444.246 470.212 435.134Z" fill="#3C5185"/>
        <path opacity="0.8537" d="M469.777 434.7C487.188 425.588 487.188 411.268 469.777 402.155C452.365 393.043 424.071 393.043 406.659 402.155C389.247 411.268 389.247 425.588 406.659 434.7C424.071 443.813 452.365 443.813 469.777 434.7Z" fill="#3C5185"/>
        <path opacity="0.878" d="M469.341 434.7C486.317 426.022 486.317 411.268 469.341 402.589C452.365 393.911 424.506 393.911 407.529 402.589C390.553 411.268 390.553 426.022 407.529 434.7C424.506 443.379 452.365 443.379 469.341 434.7Z" fill="#3C5185"/>
        <path opacity="0.9024" d="M468.906 434.266C485.882 425.588 485.882 411.268 468.906 402.589C451.929 393.911 424.506 393.911 407.964 402.589C391.423 411.268 391.423 425.588 407.964 434.266C424.506 442.945 451.929 442.945 468.906 434.266Z" fill="#3C5185"/>
        <path opacity="0.9268" d="M468.471 433.832C485.012 425.154 485.012 411.268 468.471 403.023C451.929 394.345 424.941 394.345 408.4 403.023C391.859 411.702 391.859 425.587 408.4 433.832C424.941 442.077 451.929 442.077 468.471 433.832Z" fill="#3C5185"/>
        <path opacity="0.9512" d="M468.036 433.398C484.141 425.154 484.141 411.268 468.036 403.023C451.93 394.779 425.377 394.779 409.271 403.023C393.165 411.268 393.165 425.154 409.271 433.398C425.377 441.643 451.494 441.643 468.036 433.398Z" fill="#3C5185"/>
        <path opacity="0.9756" d="M467.6 432.964C483.706 424.72 483.706 411.268 467.6 403.023C451.494 394.779 425.812 394.779 409.706 403.023C394.035 411.268 394.035 424.72 409.706 432.964C425.377 441.209 451.494 441.209 467.6 432.964Z" fill="#3C5185"/>
        <path d="M466.729 432.53C482.4 424.286 482.4 411.268 466.729 403.023C451.059 394.779 425.376 394.779 410.141 403.023C394.471 411.268 394.471 424.286 410.141 432.53C425.812 440.775 451.494 440.775 466.729 432.53Z" fill="#3C5185"/>
    </g>
    <path d="M474.129 436.436C493.717 425.154 493.717 406.929 474.129 395.646C454.541 384.364 422.765 384.364 403.612 395.646C384.023 406.929 384.023 425.154 403.612 436.436C422.765 447.718 454.541 447.718 474.129 436.436Z" fill="#6C6ED3"/>
    <path d="M474.129 430.361C493.717 419.079 493.717 400.854 474.129 389.571C454.541 378.289 422.765 378.289 403.612 389.571C384.023 400.854 384.023 419.079 403.612 430.361C422.765 441.209 454.541 441.209 474.129 430.361Z" fill="url(#paint5_linear)"/>
    <path d="M463.682 413.438C477.612 405.627 477.612 392.609 463.682 384.798C449.753 376.988 427.553 376.988 413.623 384.798C399.694 392.609 399.694 405.627 413.623 413.438C427.553 421.248 450.188 421.248 463.682 413.438Z" fill="#6C6ED3"/>
    <path d="M463.682 408.23C477.612 400.42 477.612 382.629 463.682 374.818C456.717 370.913 447.576 359.63 438.87 359.63C429.729 359.63 420.588 370.913 413.623 374.818C399.694 382.629 399.694 400.42 413.623 408.23C427.553 416.041 450.188 416.041 463.682 408.23Z" fill="url(#paint6_linear)"/>
    <path d="M455.847 376.554C465.423 371.346 465.423 362.234 455.847 357.027C446.27 351.82 431.035 351.82 421.459 357.027C411.882 362.234 411.882 371.346 421.459 376.554C431.035 381.761 446.706 381.761 455.847 376.554Z" fill="#6C6ED3"/>
    <path d="M455.847 373.516C465.423 368.309 465.423 359.196 455.847 353.989C446.27 348.782 431.035 348.782 421.459 353.989C411.882 359.196 411.882 368.309 421.459 373.516C431.035 378.723 446.706 378.723 455.847 373.516Z" fill="url(#paint7_linear)"/>
    <path d="M453.671 362.234C461.941 357.461 461.941 349.65 453.671 345.311C445.4 340.538 431.906 340.538 424.071 345.311C415.8 350.084 415.8 357.895 424.071 362.234C431.906 367.007 445.4 367.007 453.671 362.234Z" fill="#6C6ED3"/>
    <path d="M453.67 357.461C461.941 352.688 449.317 304.521 449.753 286.73C449.753 281.957 444.094 283.259 438.87 283.259C433.647 283.259 427.553 282.391 427.988 286.73C428.423 301.484 415.8 352.688 424.07 357.461C431.906 362.234 445.4 362.234 453.67 357.461Z" fill="url(#paint8_linear)"/>
    <path d="M451.494 294.541C458.459 290.636 458.459 284.127 451.494 280.221C444.53 276.316 433.212 276.316 426.683 280.221C419.718 284.127 419.718 290.636 426.683 294.541C433.212 298.446 444.53 298.446 451.494 294.541Z" fill="#667EEA"/>
    <path d="M451.494 292.371C458.459 288.466 458.459 281.957 451.494 278.052C444.53 274.146 433.212 274.146 426.683 278.052C419.718 281.957 419.718 288.466 426.683 292.371C433.212 296.277 444.53 296.277 451.494 292.371Z" fill="url(#paint9_linear)"/>
    <path d="M448.882 288.9C454.541 285.862 454.541 280.221 448.882 277.184C443.223 274.146 434.082 274.146 428.423 277.184C422.764 280.221 422.764 285.862 428.423 288.9C434.082 291.937 443.223 291.937 448.882 288.9Z" fill="#667EEA"/>
    <path d="M448.882 285.429C454.541 282.391 468.47 253.752 462.812 250.28C457.153 247.243 420.153 247.243 414.494 250.28C408.835 253.318 422.765 281.957 428.423 285.429C434.082 288.466 443.223 288.466 448.882 285.429Z" fill="url(#paint10_linear)"/>
    <path d="M457.588 260.695C468.035 254.62 468.035 245.073 457.588 238.998C447.141 232.923 430.165 232.923 419.718 238.998C409.271 245.073 409.271 254.62 419.718 260.695C430.165 266.77 447.141 266.77 457.588 260.695Z" fill="#6C98E3"/>
    <path d="M457.588 257.223C468.035 251.148 468.035 241.602 457.588 235.527C447.141 229.452 430.165 229.452 419.718 235.527C409.271 241.602 409.271 251.148 419.718 257.223C430.165 263.298 447.141 263.298 457.588 257.223Z" fill="url(#paint11_linear)"/>
    <path d="M438.871 246.375C447.285 246.375 454.106 239.575 454.106 231.188C454.106 222.8 447.285 216 438.871 216C430.456 216 423.635 222.8 423.635 231.188C423.635 239.575 430.456 246.375 438.871 246.375Z" fill="url(#paint12_linear)"/>
    <path d="M205.306 9.51563C205.306 4.30313 208.788 2.56563 213.141 5.17188L337.635 76.8438C339.812 78.1469 341.117 80.7531 341.117 82.925V95.9563L348.082 108.988C348.953 110.725 348.082 112.463 346.776 113.331L341.117 115.938V137.222C341.117 139.394 339.376 140.262 337.635 139.394L208.788 64.6813C206.612 63.3781 205.306 60.7719 205.306 58.6V39.4875V17.7688V9.51563Z" fill="#B1C6FF"/>
    <path fill-rule="evenodd" clip-rule="evenodd" d="M345.035 113.766L346.776 112.897C348.517 112.028 348.953 110.291 348.082 108.987L341.117 95.9562V82.925C341.117 80.7531 339.812 78.1468 337.635 76.8437L213.141 5.17185C210.094 3.43435 207.482 3.86872 206.176 6.0406C206.612 6.0406 207.047 6.0406 207.482 6.47497L334.588 79.0156C336.329 79.8843 338.07 82.925 338.07 85.0968V98.1281L345.035 111.159C345.47 112.028 345.47 112.897 345.035 113.766ZM338.07 138.959V116.806L341.553 115.503V136.787C341.553 138.959 339.812 139.828 338.07 138.959Z" fill="url(#paint13_linear)"/>
    <path d="M328.494 88.5719L254.059 45.5688V40.7906L328.494 83.7938V88.5719Z" fill="#F8FBFE"/>
    <path d="M328.494 105.078L254.059 62.075V57.2969L328.494 100.3V105.078Z" fill="#F8FBFE"/>
    <path d="M295.412 103.341L254.059 79.8843V75.1062L295.412 98.5625V103.341Z" fill="#F8FBFE"/>
    <path d="M230.553 30.3656C221.412 25.1531 214.012 29.4968 214.012 39.9218C214.012 50.3468 221.412 62.9437 230.553 68.1562C239.694 73.3687 247.094 69.0249 247.094 58.5999C247.094 48.1749 239.694 35.5781 230.553 30.3656Z" fill="white"/>
    <path d="M679.696 290.652C679.696 294.974 676.652 296.703 672.739 294.542L592.739 247.426C588.826 245.265 585.783 239.645 585.783 235.323L584.913 169.619C584.913 165.297 587.957 163.568 591.87 165.729L672.739 212.845C676.652 215.006 679.696 220.626 679.696 224.948V290.652Z" fill="#6C6ED3"/>
    <path d="M679.696 290.219V244.4C679.261 243.535 678.826 242.671 678.391 242.239C676.652 240.077 673.609 239.645 671 240.077C668.391 240.51 665.783 241.806 663.609 243.103C660.13 244.832 656.652 246.561 652.739 246.994C648.826 247.426 644.913 246.561 641.869 243.535C638.826 240.942 637.522 236.619 634.043 234.89C630.565 233.594 627.087 234.89 623.609 236.187C616.217 238.348 607.087 238.348 601.869 232.729C598.826 229.703 596.652 224.516 592.304 223.219C591.869 223.219 591.869 223.219 591.435 223.219C589.696 222.787 587.522 223.652 586.217 224.516V235.323C586.217 239.645 589.261 245.265 593.174 247.426L600.13 251.316C604.478 253.91 609.261 256.503 613.609 259.097C626.217 266.445 638.826 274.226 651.435 281.574L673.609 294.542C674.478 294.974 675.348 295.406 676.217 295.406C676.652 295.406 676.652 295.406 677.087 295.406C678.826 294.974 679.696 292.813 680.13 291.084C679.696 290.652 679.696 290.219 679.696 290.219Z" fill="url(#paint14_linear)"/>
    <path d="M677.087 292.381V226.677C677.087 222.355 674.044 216.735 670.131 214.574L589.261 167.458C587.957 166.593 586.652 166.593 585.783 166.593C587.087 164.864 589.261 164.432 591.87 165.729L672.739 212.845C676.652 215.006 679.696 220.626 679.696 224.948V290.652C679.696 293.245 678.391 294.974 676.652 295.406C677.087 294.542 677.087 293.677 677.087 292.381Z" fill="url(#paint15_linear)"/>
    <path d="M447 126.516C447 130.839 443.977 132.568 440.091 130.406L360.636 83.2903C356.75 81.129 353.727 75.5097 353.727 71.1871L352.864 5.48387C352.864 1.16129 355.886 -0.567742 359.773 1.59355L440.091 48.7097C443.977 50.871 447 56.4903 447 60.8129V126.516Z" fill="#6C6ED3"/>
    <path d="M444.409 128.245V62.542C444.409 58.2194 441.386 52.6001 437.5 50.4388L357.182 3.32263C355.886 2.45812 354.591 2.45812 353.727 2.45812C355.023 0.729086 357.182 0.296828 359.773 1.5936L440.091 48.7097C443.977 50.871 447 56.4904 447 60.813V126.516C447 129.11 445.704 130.839 443.977 131.271C443.977 130.407 444.409 129.542 444.409 128.245Z" fill="url(#paint16_linear)"/>
    <path opacity="0.52" fill-rule="evenodd" clip-rule="evenodd" d="M389.569 88.4775C380.932 79.4001 374.887 66.4323 374.887 55.1936C374.887 49.5743 376.182 45.2517 378.773 41.7936C380.069 40.0646 381.364 38.7678 383.091 37.9033C388.273 34.8775 395.182 35.3097 402.091 39.2001C405.114 40.9291 407.705 43.0904 410.296 45.6839C418.932 54.3291 424.978 67.7291 424.978 78.9678C424.978 84.5872 423.682 88.9097 421.091 92.3678C419.796 94.0968 418.5 95.3936 416.773 96.2581C414.182 97.5549 411.591 98.4194 409 98.4194C405.546 98.4194 401.659 97.1226 397.773 94.9614C394.75 93.2323 392.159 91.071 389.569 88.4775ZM385.25 49.142C384.387 50.871 383.955 52.6001 383.955 55.1936C383.955 62.9743 387.841 72.4839 393.887 79.4001C395.182 81.1291 396.909 82.8581 398.637 84.1549C399.5 85.0194 400.796 85.8839 402.091 86.7484C405.978 88.9097 409.432 89.342 412.023 88.0452C412.887 87.1807 413.75 85.8839 414.614 84.5872C415.478 82.8581 415.909 81.1291 415.909 78.5355C415.909 70.7549 411.591 61.2452 405.978 54.3291C404.682 52.6001 402.955 50.871 401.228 49.5743C400.364 48.7097 399.069 47.8452 397.773 46.9807L397.773 46.9807C395.182 45.6839 393.023 44.8194 390.864 44.8194C390 44.8194 388.705 45.2517 387.841 45.6839C386.978 46.5484 385.682 47.8452 385.25 49.142Z" fill="#2D3D64"/>
    <path fill-rule="evenodd" clip-rule="evenodd" d="M376.182 94.9614C367.545 85.8839 361.5 72.9162 361.5 61.6775C361.5 56.4904 363.227 51.7356 365.386 48.2775C366.682 46.5485 367.977 45.2517 369.705 44.3872C374.886 41.3614 381.795 41.7936 388.705 45.6839C391.727 47.413 394.318 49.5743 396.909 52.1678C405.545 60.813 411.591 73.7807 411.591 85.4517C411.591 91.071 410.295 95.3936 407.705 98.8517C406.409 100.581 405.114 101.877 403.386 102.742C400.795 104.039 398.205 104.903 395.614 104.903C392.159 104.903 388.273 103.607 384.386 101.445C381.364 99.7162 378.773 97.5549 376.182 94.9614ZM371.864 55.6259C371 57.3549 370.568 59.0839 370.568 61.6775C370.568 69.8904 374.886 79.4001 380.5 85.8839C381.795 87.613 383.523 89.342 385.25 90.6388C386.114 91.5033 387.409 92.3678 388.705 93.2323C392.591 95.3936 396.045 95.8259 398.636 94.5291C399.5 93.6646 400.364 92.3678 401.227 91.071C402.091 89.342 402.523 87.613 402.523 85.0194C402.523 77.2388 398.205 67.7291 392.591 60.813C391.295 59.084 389.568 57.3549 387.841 56.0581C386.977 55.1936 385.682 54.3291 384.386 53.4646L384.386 53.4646C381.795 52.1678 379.636 51.3033 377.477 51.3033C376.614 51.3033 375.318 51.7356 374.455 52.1678C373.591 53.0323 372.295 54.3291 371.864 55.6259Z" fill="url(#paint17_linear)"/>
    <path d="M380.5 55.6258C377.909 54.3291 375.75 53.4646 373.591 53.4646C372.296 53.4646 371.432 53.8968 370.568 54.3291C369.273 55.1936 368.409 56.0581 367.978 57.7871L361.932 50.4388C363.228 48.7097 364.523 47.8452 366.25 46.5484C371.432 43.5226 378.341 43.9549 385.25 47.8452L384.387 58.2194C382.659 56.9226 381.796 56.4904 380.5 55.6258Z" fill="url(#paint18_linear)"/>
    <path d="M383.955 58.2194L384.818 47.8452C387.841 49.5742 390.432 51.7355 393.023 54.3291L388.705 62.9742C387.409 61.2452 385.682 59.5162 383.955 58.2194Z" fill="#F9F7F9"/>
    <path d="M398.636 87.1807C398.636 79.4001 394.75 69.8904 388.705 62.9743L393.023 54.3291C401.659 62.9743 407.705 75.942 407.705 87.613C407.705 93.2323 406.409 97.5549 403.818 101.013L397.773 93.6646C398.205 91.9356 398.636 89.7743 398.636 87.1807Z" fill="#7EA7DF"/>
    <path d="M361.5 50.0065L367.545 57.3549C366.682 59.0839 366.25 61.2452 366.25 63.4065C366.25 71.1871 370.136 80.6968 376.182 87.6129C377.909 89.342 379.205 91.071 380.932 92.3678C382.227 93.2323 383.091 94.0968 384.386 94.9613C388.273 97.1226 392.159 97.5549 394.318 96.2581C395.614 95.3936 396.477 94.529 396.909 92.8L402.955 100.148C401.659 101.877 400.364 103.174 398.636 104.039C396.477 105.336 393.886 106.2 390.864 106.2C387.409 106.2 383.523 104.903 379.636 102.742C376.614 101.013 374.023 98.8516 371.432 96.2581C362.795 87.6129 356.75 74.6452 356.75 62.9742C357.614 58.2194 358.909 53.4645 361.5 50.0065Z" fill="#4A65A3"/>
    <path d="M358.218 316.433C339.087 305.6 307.783 305.6 289.087 316.433C269.957 327.267 269.957 345.467 289.087 356.3C308.218 367.133 339.522 367.133 358.218 356.3C377.348 345.467 377.348 327.267 358.218 316.433Z" fill="url(#paint19_radial)"/>
    <path d="M285.609 322.067H289.957C291.696 320.333 293.87 318.167 296.913 316.867C311.696 308.2 336.044 308.2 350.826 316.867C353.435 318.6 356.044 320.333 357.783 322.067H362.131V332.033C362.131 337.667 358.652 343.3 351.261 347.633C336.478 356.3 312.131 356.3 297.348 347.633C289.957 343.3 286.044 337.667 286.478 332.033V322.067H285.609Z" fill="url(#paint20_linear)"/>
    <path d="M350.391 306.467C335.609 297.8 311.261 297.8 296.478 306.467C281.695 315.133 281.695 329 296.478 337.233C311.261 345.9 335.609 345.9 350.391 337.233C365.174 329 365.174 315.133 350.391 306.467Z" fill="white"/>
    <path d="M285.609 322.5C285.609 322.067 285.609 322.067 285.609 322.5V313.833H288.652C290.391 311.233 293 309.067 296.913 306.9C307.348 300.833 300.391 323.8 296.913 337.667V347.633C289.522 343.3 286.044 338.1 286.044 332.467L285.609 322.5Z" fill="url(#paint21_linear)"/>
    <path d="M296.478 298.233C281.695 306.9 281.695 320.767 296.478 329L323.435 316.433L296.478 298.233Z" fill="url(#paint22_linear)"/>
    <path d="M323.435 316.433V325.1L296.478 337.667V329L323.435 316.433Z" fill="url(#paint23_linear)"/>
    <path d="M349.087 282.633C334.739 274.4 311.696 274.4 297.348 282.633C283 290.867 283 304.3 297.348 312.533C311.696 320.767 334.739 320.767 349.087 312.533C363.435 303.867 363.435 290.867 349.087 282.633Z" fill="url(#paint24_radial)"/>
    <path d="M296.478 272.233C311.261 263.567 335.608 263.567 350.391 272.233L323.435 290.433L296.478 272.233Z" fill="#63749D"/>
    <path d="M350.391 272.233V289.133L323.435 307.767V290.867L350.391 272.233Z" fill="#4F6291"/>
    <path d="M323.435 290.867L296.478 272.233V289.133L323.435 307.767V290.867Z" fill="#3C5185"/>
    <g filter="url(#filter0_d)">
        <path d="M348.459 563.771L341.929 565.073C339.317 562.034 335.835 559.429 331.482 556.824C308.847 543.8 272.282 543.8 249.647 556.824C245.294 559.429 241.812 562.034 239.2 565.073L232.67 563.771V570.717C232.67 579.4 238.329 588.083 249.647 594.595C272.282 607.62 308.847 607.62 331.482 594.595C342.8 588.083 348.459 579.4 348.459 570.717V563.771Z" fill="url(#paint25_linear)"/>
    </g>
    <path d="M250.082 539.458C272.718 526.434 309.282 526.434 331.918 539.458C354.553 552.483 354.553 573.756 331.918 586.78C309.282 599.805 272.718 599.805 250.082 586.78C227.447 573.756 227.447 552.483 250.082 539.458Z" fill="#FAFBFD"/>
    <path d="M255.306 542.932C274.894 531.644 306.671 531.644 325.824 542.932C345.412 554.219 345.412 572.454 325.824 583.741C306.236 595.029 274.459 595.029 255.306 583.741C236.153 572.454 236.153 553.785 255.306 542.932Z" fill="#B1C6FF"/>
    <path d="M260.965 546.405C277.071 537.288 304.059 537.288 320.165 546.405C336.271 555.522 336.271 570.717 320.165 579.834C304.059 588.951 277.071 588.951 260.965 579.834C244.859 570.717 244.859 555.522 260.965 546.405Z" fill="#FAFBFD"/>
    <path d="M266.624 549.444C280.118 542.063 301.447 542.063 314.941 549.444C328.435 556.824 328.435 568.981 314.941 576.795C301.447 584.176 280.118 584.176 266.624 576.795C253.565 569.415 253.565 556.824 266.624 549.444Z" fill="#B1C6FF"/>
    <path d="M271.847 553.351C281.859 548.141 298.835 548.141 308.847 553.351C318.859 558.561 318.859 567.244 308.847 572.454C298.835 577.663 281.859 577.663 271.847 572.454C261.835 567.244 261.835 558.995 271.847 553.351Z" fill="#FAFBFD"/>
    <path d="M279.247 557.259C285.341 554.219 295.788 554.219 301.882 557.259C307.976 560.298 307.976 565.941 301.882 568.98C295.788 572.019 285.341 572.019 279.247 568.98C273.153 565.941 273.153 560.298 279.247 557.259Z" fill="#B1C6FF"/>
    <path d="M290.564 564.639C289.259 564.639 287.953 563.337 287.953 562.034V441.776C287.953 440.473 289.259 439.171 290.564 439.171C291.87 439.171 293.176 440.473 293.176 441.776V562.034C293.611 563.337 292.306 564.639 290.564 564.639Z" fill="#3C5185"/>
    <path d="M291.435 446.117C320.6 461.312 349.764 473.034 349.764 473.034C338.882 495.61 291.435 502.556 291.435 502.556V446.117Z" fill="url(#paint26_linear)"/>
    <path opacity="0.44" d="M24.9141 391.933C47.1355 379.367 83.2998 379.367 105.521 391.933C127.743 404.5 127.743 425.3 105.521 438.3C83.2998 450.867 47.1355 450.867 24.9141 438.3C2.69269 425.733 2.69269 404.933 24.9141 391.933Z" fill="url(#paint27_radial)"/>
    <path d="M96.3713 404.067H95.0642C93.757 401.033 90.707 398.433 86.7856 396.267C74.1499 388.9 53.2356 388.9 41.0356 396.267C37.1142 398.433 34.4999 401.033 33.1927 404.067H31.8856V408.833C31.4499 413.6 34.9356 418.8 41.4713 422.7C54.107 430.067 74.5856 430.067 87.2213 422.7C93.757 418.8 96.807 414.033 96.807 408.833V404.067H96.3713Z" fill="url(#paint28_linear)"/>
    <path d="M87.2214 417.5C99.8571 410.133 99.8571 398.433 87.2214 391.067C74.5857 383.7 53.6714 383.7 41.4714 391.067C28.8357 398.433 28.8357 410.133 41.4714 417.5C53.6714 424.433 74.5857 424.433 87.2214 417.5Z" fill="#6C6ED3"/>
    <path d="M51.4932 381.967V399.733C51.4932 401.467 52.8003 403.2 54.9789 404.5C59.7717 407.1 67.6146 407.1 72.8432 404.5C75.0217 403.2 76.3289 401.467 76.3289 399.733V381.967H51.4932Z" fill="url(#paint29_linear)"/>
    <path d="M73.2786 390.2C68.05 393.233 60.2071 393.233 54.9786 390.2C53.2357 389.333 52.3643 388.033 51.4928 386.733V385.433H51.0571V391.067C51.0571 392.8 52.3643 394.533 54.9786 395.833C59.7714 398.867 68.05 398.867 73.2786 395.833C75.4571 394.533 76.7643 392.8 77.2 391.067V385.867H76.7643V386.733C75.8928 388.033 75.0214 389.333 73.2786 390.2Z" fill="#B1C6FF"/>
    <path d="M73.2786 391.933C68.05 394.967 60.2071 394.967 54.9786 391.933C52.8 390.633 51.4928 388.9 51.0571 387.167V392.8C51.0571 394.533 52.3643 396.267 54.9786 397.567C59.7714 400.6 68.05 400.6 73.2786 397.567C75.4571 396.267 76.7643 394.533 77.2 392.8V387.167C76.7643 388.9 75.4571 390.633 73.2786 391.933Z" fill="url(#paint30_linear)"/>
    <path d="M19.25 304.4L32.3214 297.033C35.8071 294.867 40.6 295.3 44.0857 297.467L52.3643 302.667L39.7286 309.6L31.45 304.4C31.45 304.4 28.8357 302.667 25.7857 302.667L19.25 304.4Z" fill="url(#paint31_linear)"/>
    <path d="M23.6072 336.9L37.1143 329.533C37.1143 329.533 22.7358 320.867 27.0929 302.667C27.0929 302.667 22.3 303.1 20.5572 304.833C20.5572 304.833 15.3286 307.433 15.3286 315.233L23.6072 336.9Z" fill="url(#paint32_linear)"/>
    <path d="M24.9142 342.1L14.8927 316.1C14.457 315.233 14.457 314.367 14.457 313.933C14.457 309.6 16.6356 305.7 20.557 303.1C24.4785 300.933 29.2713 300.933 32.757 303.1L40.1642 307.867L39.2927 309.167L31.8856 306.567C28.3999 304.833 26.2213 303.1 22.7356 305.267C19.2499 307 16.6356 310.467 16.6356 314.367C16.6356 314.8 16.6356 315.667 17.0713 316.1L25.7856 341.233L24.9142 342.1Z" fill="#B1C6FF"/>
    <path d="M95.936 366.367C108.136 350.767 112.929 312.633 95.936 303.1C78.9431 293.133 51.0574 293.133 34.0646 303.1C17.0717 313.067 22.736 350.767 34.0646 366.367C42.7788 378.067 53.6717 387.6 65.0003 387.6C76.3288 387.6 88.0931 375.9 95.936 366.367Z" fill="url(#paint33_linear)"/>
    <path d="M92.886 332.133C108.136 323.467 108.136 309.167 92.886 300.5C77.636 291.833 52.8003 291.833 37.5503 300.5C22.3003 309.167 22.3003 323.467 37.5503 332.133C52.3646 340.8 77.636 340.8 92.886 332.133Z" fill="#B1C6FF"/>
    <path d="M91.5786 331.267C106.393 323.033 106.393 309.6 91.5786 300.933C76.7643 292.7 52.8 292.7 37.9857 300.933C23.1714 309.167 23.1714 322.6 37.9857 331.267C52.8 339.5 77.2 339.5 91.5786 331.267Z" fill="url(#paint34_linear)"/>
    <path d="M77.6357 378.933C77.6357 378.933 85.4786 378.933 94.1929 376.767C97.2429 375.9 105.086 372.433 106.829 366.8C109.007 360.3 110.75 351.633 107.264 344.7C107.264 344.7 103.343 336.9 93.7572 335.6L92.8857 341.233C92.8857 341.233 96.3715 339.5 100.729 341.667C104.214 343.4 105.957 347.733 106.829 351.2C108.136 356.4 107.7 363.767 102.036 369.833C102.036 369.833 88.0929 376.767 79.8143 376.333L77.6357 378.933Z" fill="#B1C6FF"/>
    <path d="M93.7573 335.6L103.779 328.233C103.779 328.233 132.972 350.767 100.729 373.733C100.729 373.733 104.214 370.267 105.522 368.1C109.443 360.3 114.236 343.4 93.7573 335.6Z" fill="url(#paint35_linear)"/>
    <path d="M78.9429 376.333L89.4 370.267C89.4 370.267 98.55 372.433 101.6 369.4C101.6 369.4 96.8072 376.333 78.9429 376.333Z" fill="url(#paint36_linear)"/>
    <path d="M152.334 458.473C149.734 458.473 147.134 456.738 145.834 454.135L133.267 423.77C128.067 410.757 130.667 395.574 139.767 385.164L150.6 373.018C153.2 369.981 157.534 369.981 160.134 372.584C163.167 375.186 163.167 379.524 160.567 382.127L149.734 394.273C144.1 400.78 142.367 410.323 145.4 418.131L157.967 448.496C159.267 451.966 157.534 455.87 154.067 457.605C154.067 458.039 153.2 458.473 152.334 458.473Z" fill="url(#paint37_linear)"/>
    <path d="M151.9 575.595L145.833 580.366L127.2 587.741C125.9 588.174 125.033 589.476 125.033 591.211L124.6 595.549C124.167 598.151 126.767 600.754 129.367 600.32L156.233 596.416L158.833 594.247L161 593.814L163.167 596.416H165.767C167.933 596.416 170.1 594.681 170.1 592.078V586.005L165.767 575.595H151.9V575.595Z" fill="#3C5185"/>
    <path d="M158.833 588.608C152.767 588.608 150.6 583.837 150.6 577.764L148.433 523.974L148 446.327C147.567 440.254 152.767 434.615 158.833 434.181C164.9 433.747 173.133 439.82 173.567 445.893L169.667 523.541L167.933 577.764C167.933 583.837 164.9 588.608 158.833 588.608Z" fill="#4A65A3"/>
    <path d="M188.733 610.297L180.933 635.891C180.933 638.927 183.1 641.096 186.133 641.964L188.3 642.397C190.033 642.831 192.2 642.397 193.5 641.53C198.266 638.059 201.3 633.288 202.166 627.215L204.333 609.864L201.3 603.791L188.733 610.297Z" fill="#3C5185"/>
    <path d="M196.1 614.635C190.467 614.635 187.433 610.297 187 605.092L178.767 536.554L165.333 470.619L149.733 443.724C149.3 437.651 176.167 437.218 182.233 436.784C188.3 436.35 199.133 452.4 199.567 458.473L200 535.253L204.767 603.357C205.2 609.43 202.6 614.635 196.533 615.069C196.533 614.635 196.1 614.635 196.1 614.635Z" fill="url(#paint38_linear)"/>
    <path d="M202.6 387.332C200.867 383.428 197.833 379.958 193.933 377.355C193.5 376.922 193.067 376.922 192.633 376.488L172.267 365.209C161.433 359.136 148 366.945 148 379.524V449.364C155.8 460.642 173.133 468.884 200 463.245L201.733 436.784L203.9 408.154L202.6 387.332Z" fill="url(#paint39_linear)"/>
    <path d="M172.7 380.826L163.167 387.766V382.127C163.167 379.524 163.6 376.922 164.467 374.753L167.933 366.511L170.533 366.945L172.7 380.826Z" fill="white"/>
    <path d="M172.7 381.26L178.334 388.634L173.567 396.008L168.367 394.273L166.2 385.597L172.7 381.26Z" fill="url(#paint40_linear)"/>
    <path d="M177.467 382.127H174.433C172.267 382.127 170.1 380.392 170.1 377.789V356.534H181.367V377.789C181.8 380.392 180.067 382.127 177.467 382.127Z" fill="#F2B1B5"/>
    <path d="M178.333 371.282H173.567C161 371.282 155.367 360.872 155.367 348.292V343.087C155.367 339.182 158.4 336.146 162.3 336.146H174.433C179.633 336.146 183.533 340.05 183.533 345.255L188.733 364.776C189.167 367.378 181.367 371.282 178.333 371.282Z" fill="#F2B1B5"/>
    <path d="M196.533 347.424C195.233 340.05 190.467 333.977 183.967 330.507C180.933 329.205 177.467 328.338 174 327.904C168.8 327.037 162.733 327.037 157.967 329.205C152.333 331.808 149.733 337.014 155.8 340.918C158.4 342.653 161.433 343.087 164.467 343.52C167.933 343.52 171.4 343.52 174 345.689C177.033 348.726 175.733 354.365 177.9 358.269C178.333 358.269 178.767 358.269 179.2 358.269C179.633 356.968 179.2 355.666 179.633 354.799C179.633 353.497 180.933 352.196 182.233 352.63C182.667 353.064 183.1 353.931 183.1 354.365C183.533 356.968 183.533 359.57 182.667 362.173C182.233 364.342 181.367 367.378 183.1 368.68C186.567 370.849 191.767 364.776 193.5 362.173C196.533 357.835 197.4 352.63 196.533 347.424Z" fill="#3C5185"/>
    <path d="M172.7 380.826L180.5 391.67L181.367 385.164C181.8 381.259 183.534 377.355 185.7 373.885C186.134 373.018 186.134 371.716 185.267 371.282L182.667 369.981L172.7 380.826Z" fill="white"/>
    <path d="M200 457.605C173.567 463.245 155.8 455.003 148 443.724V448.93C155.8 460.208 173.133 468.45 200 462.811V457.605Z" fill="#3C5185"/>
    <path d="M173.567 396.008L172.267 453.268L166.633 458.039L163.6 451.966L168.367 394.273L173.567 396.008Z" fill="url(#paint41_linear)"/>
    <path d="M197.4 472.354C196.533 472.354 195.667 471.92 194.8 471.486C192.2 469.751 191.333 465.847 193.067 462.811L206.933 441.989C213.433 432.012 213 418.565 205.2 409.455L187.433 388.634C185.267 386.031 185.7 382.127 188.3 379.958C190.9 377.789 194.8 378.223 196.967 380.826L214.733 401.647C226 415.095 226.867 434.615 217.333 448.93L203.467 469.751C202.167 471.92 199.567 472.788 197.4 472.354Z" fill="#F2B1B5"/>
    <path d="M205.633 470.185C205.633 474.089 205.2 479.728 201.3 479.728C197.4 479.728 191.767 471.053 191.767 467.149C191.767 463.245 194.8 462.811 198.7 462.811C202.6 462.811 205.633 466.281 205.633 470.185Z" fill="#F2B1B5"/>
    <path d="M194.8 458.907L206.5 441.555C213 432.012 212.134 418.999 204.767 410.323L187 389.501C184.4 386.465 184.834 382.127 187.867 379.524C189.167 378.657 190.9 377.789 192.634 377.789C194.8 377.789 196.534 378.657 198.267 380.392L216.034 401.214C227.734 415.095 228.6 434.615 218.634 449.797L208.234 465.414C206.5 467.149 193.934 460.642 194.8 458.907Z" fill="url(#paint42_linear)"/>
    <g filter="url(#filter1_d)">
        <path d="M521.514 587.7L475.329 608.5V616.3C475.329 618.033 476.2 619.767 477.943 620.633L521.95 645.333C524.564 647.067 528.05 647.067 530.664 645.333L574.236 621.067C575.979 620.2 576.85 618.467 576.85 616.733V609.8L530.664 588.133C527.614 585.967 524.129 585.967 521.514 587.7Z" fill="url(#paint43_linear)"/>
    </g>
    <path d="M521.514 579.467L477.507 604.6C474.457 606.333 474.457 610.233 477.507 611.967L521.514 636.667C524.129 638.4 527.614 638.4 530.229 636.667L574.236 611.967C577.286 610.233 577.286 606.333 574.236 604.6L530.229 579.467C527.614 577.733 524.129 577.733 521.514 579.467Z" fill="white"/>
    <path fill-rule="evenodd" clip-rule="evenodd" d="M512.8 609.367C515.414 610.667 518.9 611.533 522.385 611.533C525.871 611.533 529.357 611.1 532.407 609.367C535.457 607.633 537.2 605.033 537.2 602C537.2 598.967 535.457 596.367 532.407 594.633C526.743 591.6 518.464 591.6 512.8 594.633C509.75 596.367 508.007 598.967 508.007 602C508.007 605.033 509.75 607.633 512.8 609.367ZM528.921 603.733C525.435 605.9 519.335 605.9 515.85 603.733C514.543 602.867 514.107 602.433 514.107 602C514.107 601.567 514.543 601.133 515.85 600.267C519.335 598.1 525.435 598.1 528.921 600.267C530.228 600.7 530.664 601.567 530.664 602C530.664 602.433 530.228 602.867 528.921 603.733Z" fill="#3C5185"/>
    <path d="M531.971 628C530.664 628 529.357 627.133 528.921 625.833L525.436 617.6C524.564 615.867 525.436 614.133 527.178 613.267C528.921 612.4 530.664 613.267 531.536 615L535.021 623.233C535.893 624.967 535.021 626.7 533.278 627.567C532.843 628 532.407 628 531.971 628Z" fill="#3C5185"/>
    <g filter="url(#filter2_d)">
        <path d="M417.967 553.075L379.4 570.325V576.794C379.4 578.088 380.267 579.813 381.567 580.244L417.967 600.944C420.133 602.238 423.167 602.238 425.333 600.944L461.733 580.675C463.033 579.813 463.9 578.519 463.9 577.225V571.188L425.333 553.075C423.167 551.781 420.133 551.781 417.967 553.075Z" fill="url(#paint44_linear)"/>
    </g>
    <path d="M417.966 546.175L381.133 567.306C378.533 568.6 378.533 572.05 381.133 573.344L417.966 594.044C420.133 595.338 423.166 595.338 425.333 594.044L462.166 573.344C464.766 572.05 464.766 568.6 462.166 567.306L425.333 546.175C423.166 544.881 420.133 544.881 417.966 546.175Z" fill="white"/>
    <path d="M409.733 578.519L405.833 565.581C405.4 564.287 406.266 562.562 407.566 562.131C408.866 561.7 410.6 562.562 411.033 563.856L413.2 571.619L434 566.012C435.3 565.581 437.033 566.444 437.466 567.737C437.9 569.031 437.033 570.756 435.733 571.187L409.733 578.519Z" fill="#3C5185"/>
    <g filter="url(#filter3_d)">
        <path d="M363.719 626.753L320.258 646.341V653.741C320.258 655.482 321.127 657.224 322.431 657.659L363.719 681.165C366.327 682.471 369.369 682.471 371.977 681.165L412.831 658.094C414.135 657.224 415.439 655.482 415.439 654.176V647.647L371.977 627.188C369.804 625.012 366.327 625.012 363.719 626.753Z" fill="url(#paint45_linear)"/>
    </g>
    <path d="M363.719 618.918L322.431 642.859C319.823 644.6 319.823 648.518 322.431 649.824L363.719 673.329C366.327 674.635 369.369 674.635 371.977 673.329L413.265 649.824C415.873 648.082 415.873 644.165 413.265 642.859L371.977 618.918C369.804 617.177 366.327 617.177 363.719 618.918Z" fill="url(#paint46_linear)"/>
    <path d="M351.984 646.777L370.238 635.894L380.234 652L351.984 646.777Z" fill="#B1C6FF"/>
    <g filter="url(#filter4_d)">
        <path d="M588.145 514.18L537.193 537.235V545.5C537.193 547.675 538.064 549.415 539.806 550.285L588.145 577.69C591.193 579.43 594.677 579.43 597.726 577.69L645.629 550.72C647.371 549.85 648.242 548.11 648.242 545.935V538.105L597.726 514.18C595.113 512.44 591.193 512.44 588.145 514.18Z" fill="url(#paint47_linear)"/>
    </g>
    <path d="M588.145 505.045L539.806 532.885C536.758 534.625 536.758 539.41 539.806 541.15L588.145 568.555C591.193 570.295 594.677 570.295 597.726 568.555L646.064 541.15C649.113 539.41 649.113 534.625 646.064 532.885L597.726 505.045C595.113 503.305 591.193 503.305 588.145 505.045Z" fill="white"/>
    <path d="M646.5 532.885L598.161 505.045C595.113 503.305 591.193 503.305 588.145 505.045L577.693 510.7L638.226 545.5L646.5 541.15C649.548 539.41 649.548 534.625 646.5 532.885Z" fill="url(#paint48_linear)"/>
    <path d="M576.387 533.32L587.71 526.795L576.387 520.27L565.064 526.795L576.387 533.32Z" fill="#E7EFF8"/>
    <path d="M592.935 542.89L604.258 536.365L592.935 529.84L581.613 536.365L592.935 542.89Z" fill="#E7EFF8"/>
    <path d="M609.484 552.895L621.242 546.37L609.484 539.845L598.161 546.37L609.484 552.895Z" fill="#E7EFF8"/>
    <path d="M561.145 542.89L572.468 536.365L561.145 529.84L549.823 536.365L561.145 542.89Z" fill="#E7EFF8"/>
    <path d="M577.694 552.895L589.016 546.37L577.694 539.845L566.371 546.37L577.694 552.895Z" fill="#E7EFF8"/>
    <path d="M594.242 562.465L605.565 555.94L594.242 549.415L582.919 555.94L594.242 562.465Z" fill="#E7EFF8"/>
    <defs>
        <filter id="filter0_d" x="219.67" y="534.056" width="155.788" height="97.3073" filterUnits="userSpaceOnUse" color-interpolation-filters="sRGB">
            <feFlood flood-opacity="0" result="BackgroundImageFix"/>
            <feColorMatrix in="SourceAlpha" type="matrix" values="0 0 0 0 0 0 0 0 0 0 0 0 0 0 0 0 0 0 127 0"/>
            <feOffset dx="7" dy="7"/>
            <feGaussianBlur stdDeviation="10"/>
            <feColorMatrix type="matrix" values="0 0 0 0 0.694118 0 0 0 0 0.776471 0 0 0 0 1 0 0 0 1 0"/>
            <feBlend mode="normal" in2="BackgroundImageFix" result="effect1_dropShadow"/>
            <feBlend mode="normal" in="SourceGraphic" in2="effect1_dropShadow" result="shape"/>
        </filter>
        <filter id="filter1_d" x="461.329" y="574.45" width="129.521" height="88.1837" filterUnits="userSpaceOnUse" color-interpolation-filters="sRGB">
            <feFlood flood-opacity="0" result="BackgroundImageFix"/>
            <feColorMatrix in="SourceAlpha" type="matrix" values="0 0 0 0 0 0 0 0 0 0 0 0 0 0 0 0 0 0 127 0"/>
            <feOffset dy="2"/>
            <feGaussianBlur stdDeviation="7"/>
            <feColorMatrix type="matrix" values="0 0 0 0 0.694118 0 0 0 0 0.776471 0 0 0 0 1 0 0 0 0.615521 0"/>
            <feBlend mode="normal" in2="BackgroundImageFix" result="effect1_dropShadow"/>
            <feBlend mode="normal" in="SourceGraphic" in2="effect1_dropShadow" result="shape"/>
        </filter>
        <filter id="filter2_d" x="370.4" y="543.105" width="112.5" height="77.8094" filterUnits="userSpaceOnUse" color-interpolation-filters="sRGB">
            <feFlood flood-opacity="0" result="BackgroundImageFix"/>
            <feColorMatrix in="SourceAlpha" type="matrix" values="0 0 0 0 0 0 0 0 0 0 0 0 0 0 0 0 0 0 127 0"/>
            <feOffset dx="5" dy="5"/>
            <feGaussianBlur stdDeviation="7"/>
            <feColorMatrix type="matrix" values="0 0 0 0 0.694118 0 0 0 0 0.776471 0 0 0 0 1 0 0 0 0.615521 0"/>
            <feBlend mode="normal" in2="BackgroundImageFix" result="effect1_dropShadow"/>
            <feBlend mode="normal" in="SourceGraphic" in2="effect1_dropShadow" result="shape"/>
        </filter>
        <filter id="filter3_d" x="311.258" y="613.497" width="123.181" height="84.6472" filterUnits="userSpaceOnUse" color-interpolation-filters="sRGB">
            <feFlood flood-opacity="0" result="BackgroundImageFix"/>
            <feColorMatrix in="SourceAlpha" type="matrix" values="0 0 0 0 0 0 0 0 0 0 0 0 0 0 0 0 0 0 127 0"/>
            <feOffset dx="5" dy="2"/>
            <feGaussianBlur stdDeviation="7"/>
            <feColorMatrix type="matrix" values="0 0 0 0 0.694118 0 0 0 0 0.776471 0 0 0 0 1 0 0 0 0.615521 0"/>
            <feBlend mode="normal" in2="BackgroundImageFix" result="effect1_dropShadow"/>
            <feBlend mode="normal" in="SourceGraphic" in2="effect1_dropShadow" result="shape"/>
        </filter>
        <filter id="filter4_d" x="523.193" y="500.875" width="139.048" height="94.12" filterUnits="userSpaceOnUse" color-interpolation-filters="sRGB">
            <feFlood flood-opacity="0" result="BackgroundImageFix"/>
            <feColorMatrix in="SourceAlpha" type="matrix" values="0 0 0 0 0 0 0 0 0 0 0 0 0 0 0 0 0 0 127 0"/>
            <feOffset dy="2"/>
            <feGaussianBlur stdDeviation="7"/>
            <feColorMatrix type="matrix" values="0 0 0 0 0.694118 0 0 0 0 0.776471 0 0 0 0 1 0 0 0 0.615521 0"/>
            <feBlend mode="normal" in2="BackgroundImageFix" result="effect1_dropShadow"/>
            <feBlend mode="normal" in="SourceGraphic" in2="effect1_dropShadow" result="shape"/>
        </filter>
        <linearGradient id="paint0_linear" x1="810.355" y1="599.769" x2="636.354" y2="-60.2026" gradientUnits="userSpaceOnUse">
            <stop offset="0.1445" stop-color="white"/>
            <stop offset="1" stop-color="#E1EBF7"/>
        </linearGradient>
        <linearGradient id="paint1_linear" x1="-571.885" y1="599.495" x2="611.427" y2="1425.17" gradientUnits="userSpaceOnUse">
            <stop stop-color="white"/>
            <stop offset="1" stop-color="#AFC5FF"/>
        </linearGradient>
        <linearGradient id="paint2_linear" x1="376.375" y1="72.766" x2="252.453" y2="348.46" gradientUnits="userSpaceOnUse">
            <stop stop-color="#667EEA"/>
            <stop offset="1" stop-color="#764BA2"/>
        </linearGradient>
        <linearGradient id="paint3_linear" x1="563.313" y1="335.227" x2="578.062" y2="217.845" gradientUnits="userSpaceOnUse">
            <stop stop-color="white"/>
            <stop offset="1" stop-color="#AFC5FF"/>
            <stop offset="1" stop-color="#AFC5FF"/>
        </linearGradient>
        <linearGradient id="paint4_linear" x1="707.986" y1="50.3874" x2="510.176" y2="-45.9773" gradientUnits="userSpaceOnUse">
            <stop stop-color="white"/>
            <stop offset="1" stop-color="#AFC5FF"/>
        </linearGradient>
        <linearGradient id="paint5_linear" x1="427.642" y1="358.866" x2="393.5" y2="435.536" gradientUnits="userSpaceOnUse">
            <stop stop-color="#667EEA"/>
            <stop offset="1" stop-color="#764BA2"/>
        </linearGradient>
        <linearGradient id="paint6_linear" x1="463.818" y1="303.647" x2="388.776" y2="395.884" gradientUnits="userSpaceOnUse">
            <stop stop-color="#667EEA"/>
            <stop offset="1" stop-color="#764BA2"/>
        </linearGradient>
        <linearGradient id="paint7_linear" x1="462.398" y1="337.767" x2="423.977" y2="381.159" gradientUnits="userSpaceOnUse">
            <stop stop-color="#667EEA"/>
            <stop offset="1" stop-color="#764BA2"/>
        </linearGradient>
        <linearGradient id="paint8_linear" x1="434.91" y1="252.885" x2="380.611" y2="284.547" gradientUnits="userSpaceOnUse">
            <stop stop-color="#667EEA"/>
            <stop offset="1" stop-color="#764BA2"/>
        </linearGradient>
        <linearGradient id="paint9_linear" x1="416.738" y1="256.836" x2="393.689" y2="315.252" gradientUnits="userSpaceOnUse">
            <stop stop-color="#667EEA"/>
            <stop offset="1" stop-color="#764BA2"/>
        </linearGradient>
        <linearGradient id="paint10_linear" x1="415.539" y1="224.122" x2="372.627" y2="301.16" gradientUnits="userSpaceOnUse">
            <stop stop-color="#667EEA"/>
            <stop offset="1" stop-color="#764BA2"/>
        </linearGradient>
        <linearGradient id="paint11_linear" x1="409.226" y1="202.545" x2="360.457" y2="288.636" gradientUnits="userSpaceOnUse">
            <stop stop-color="#667EEA"/>
            <stop offset="1" stop-color="#764BA2"/>
        </linearGradient>
        <linearGradient id="paint12_linear" x1="426.452" y1="194.306" x2="383.078" y2="242.747" gradientUnits="userSpaceOnUse">
            <stop stop-color="#667EEA"/>
            <stop offset="1" stop-color="#764BA2"/>
        </linearGradient>
        <linearGradient id="paint13_linear" x1="464.963" y1="371.849" x2="603.129" y2="-123.582" gradientUnits="userSpaceOnUse">
            <stop stop-color="white"/>
            <stop offset="1" stop-color="#AFC5FF"/>
        </linearGradient>
        <linearGradient id="paint14_linear" x1="801.378" y1="266.536" x2="727.634" y2="42.8144" gradientUnits="userSpaceOnUse">
            <stop stop-color="white"/>
            <stop offset="1" stop-color="#AFC5FF"/>
        </linearGradient>
        <linearGradient id="paint15_linear" x1="691.058" y1="47.2352" x2="503.26" y2="122.319" gradientUnits="userSpaceOnUse">
            <stop stop-color="#667EEA"/>
            <stop offset="1" stop-color="#764BA2"/>
        </linearGradient>
        <linearGradient id="paint16_linear" x1="445.594" y1="-16.661" x2="332.529" y2="-8.97179" gradientUnits="userSpaceOnUse">
            <stop stop-color="#667EEA"/>
            <stop offset="1" stop-color="#764BA2"/>
        </linearGradient>
        <linearGradient id="paint17_linear" x1="361.622" y1="105.028" x2="411.892" y2="105.028" gradientUnits="userSpaceOnUse">
            <stop stop-color="#A5CBEF"/>
            <stop offset="0.9962" stop-color="#5D7DBE"/>
        </linearGradient>
        <linearGradient id="paint18_linear" x1="351.647" y1="43.9885" x2="348.97" y2="67.9752" gradientUnits="userSpaceOnUse">
            <stop stop-color="#667EEA"/>
            <stop offset="1" stop-color="#764BA2"/>
        </linearGradient>
        <radialGradient id="paint19_radial" cx="0" cy="0" r="1" gradientUnits="userSpaceOnUse" gradientTransform="translate(323.447 336.39) rotate(180) scale(49.4691 28.3773)">
            <stop offset="0.0912548" stop-color="#3C5185"/>
            <stop offset="0.1563" stop-color="#506291"/>
            <stop offset="0.379" stop-color="#8D9AB8"/>
            <stop offset="0.5827" stop-color="#BEC5D7"/>
            <stop offset="0.7606" stop-color="#E2E5ED"/>
            <stop offset="0.9057" stop-color="#F7F8FA"/>
            <stop offset="1" stop-color="white"/>
        </radialGradient>
        <linearGradient id="paint20_linear" x1="285.503" y1="353.925" x2="361.391" y2="353.925" gradientUnits="userSpaceOnUse">
            <stop offset="0.00380205" stop-color="#A5CBEF"/>
            <stop offset="0.4419" stop-color="#CEE3F6"/>
            <stop offset="1" stop-color="white"/>
        </linearGradient>
        <linearGradient id="paint21_linear" x1="292.127" y1="289.725" x2="264.786" y2="303.936" gradientUnits="userSpaceOnUse">
            <stop stop-color="#667EEA"/>
            <stop offset="1" stop-color="#764BA2"/>
        </linearGradient>
        <linearGradient id="paint22_linear" x1="300.137" y1="286.308" x2="277.97" y2="321.666" gradientUnits="userSpaceOnUse">
            <stop stop-color="#667EEA"/>
            <stop offset="1" stop-color="#764BA2"/>
        </linearGradient>
        <linearGradient id="paint23_linear" x1="306.926" y1="308.203" x2="291.807" y2="332.964" gradientUnits="userSpaceOnUse">
            <stop stop-color="#667EEA"/>
            <stop offset="1" stop-color="#764BA2"/>
        </linearGradient>
        <radialGradient id="paint24_radial" cx="0" cy="0" r="1" gradientUnits="userSpaceOnUse" gradientTransform="translate(323.447 297.39) rotate(180) scale(36.8417 21.2469)">
            <stop offset="0.0912548" stop-color="#3C5185"/>
            <stop offset="0.1563" stop-color="#506291"/>
            <stop offset="0.379" stop-color="#8D9AB8"/>
            <stop offset="0.5827" stop-color="#BEC5D7"/>
            <stop offset="0.7606" stop-color="#E2E5ED"/>
            <stop offset="0.9057" stop-color="#F7F8FA"/>
            <stop offset="1" stop-color="white"/>
        </radialGradient>
        <linearGradient id="paint25_linear" x1="233.024" y1="604.154" x2="348.665" y2="604.154" gradientUnits="userSpaceOnUse">
            <stop stop-color="white"/>
            <stop offset="1" stop-color="#B1C6FF"/>
        </linearGradient>
        <linearGradient id="paint26_linear" x1="246.403" y1="485.291" x2="308.378" y2="535.294" gradientUnits="userSpaceOnUse">
            <stop stop-color="white"/>
            <stop offset="1" stop-color="#AFC5FF"/>
        </linearGradient>
        <radialGradient id="paint27_radial" cx="0" cy="0" r="1" gradientUnits="userSpaceOnUse" gradientTransform="translate(65.0299 415.246) scale(57.4411 32.8782)">
            <stop offset="0.0912548" stop-color="#48486A"/>
            <stop offset="0.1179" stop-color="#505070"/>
            <stop offset="0.3508" stop-color="#8D8DA3"/>
            <stop offset="0.5638" stop-color="#BEBECA"/>
            <stop offset="0.7497" stop-color="#E2E2E7"/>
            <stop offset="0.9014" stop-color="#F7F7F9"/>
            <stop offset="1" stop-color="white"/>
        </radialGradient>
        <linearGradient id="paint28_linear" x1="57.0271" y1="376.213" x2="34.6593" y2="426.216" gradientUnits="userSpaceOnUse">
            <stop stop-color="#667EEA"/>
            <stop offset="1" stop-color="#764BA2"/>
        </linearGradient>
        <linearGradient id="paint29_linear" x1="74.3637" y1="406.45" x2="74.3637" y2="385.841" gradientUnits="userSpaceOnUse">
            <stop stop-color="white"/>
            <stop offset="1" stop-color="#AFC5FF"/>
        </linearGradient>
        <linearGradient id="paint30_linear" x1="53.7527" y1="402.191" x2="75.652" y2="392.472" gradientUnits="userSpaceOnUse">
            <stop stop-color="white"/>
            <stop offset="1" stop-color="#AFC5FF"/>
        </linearGradient>
        <linearGradient id="paint31_linear" x1="48.5556" y1="298.006" x2="28.4537" y2="291.563" gradientUnits="userSpaceOnUse">
            <stop stop-color="white"/>
            <stop offset="1" stop-color="#AFC5FF"/>
        </linearGradient>
        <linearGradient id="paint32_linear" x1="35.0755" y1="336.9" x2="35.0755" y2="299.56" gradientUnits="userSpaceOnUse">
            <stop stop-color="white"/>
            <stop offset="1" stop-color="#AFC5FF"/>
        </linearGradient>
        <linearGradient id="paint33_linear" x1="123.246" y1="416.642" x2="108.331" y2="289.128" gradientUnits="userSpaceOnUse">
            <stop stop-color="white"/>
            <stop offset="1" stop-color="#AFC5FF"/>
        </linearGradient>
        <linearGradient id="paint34_linear" x1="166.895" y1="370.94" x2="161.043" y2="270.294" gradientUnits="userSpaceOnUse">
            <stop stop-color="white"/>
            <stop offset="1" stop-color="#AFC5FF"/>
        </linearGradient>
        <linearGradient id="paint35_linear" x1="115.895" y1="333.947" x2="95.175" y2="333.947" gradientUnits="userSpaceOnUse">
            <stop stop-color="white"/>
            <stop offset="1" stop-color="#AFC5FF"/>
        </linearGradient>
        <linearGradient id="paint36_linear" x1="103.792" y1="370.606" x2="78.9429" y2="370.606" gradientUnits="userSpaceOnUse">
            <stop stop-color="white"/>
            <stop offset="1" stop-color="#B4C9FF"/>
            <stop offset="1" stop-color="#AFC5FF"/>
        </linearGradient>
        <linearGradient id="paint37_linear" x1="130.897" y1="458.998" x2="163.179" y2="458.998" gradientUnits="userSpaceOnUse">
            <stop stop-color="#A8D9FB"/>
            <stop offset="1" stop-color="white"/>
        </linearGradient>
        <linearGradient id="paint38_linear" x1="149.823" y1="684.776" x2="248.073" y2="684.776" gradientUnits="userSpaceOnUse">
            <stop stop-color="#3C5185"/>
            <stop offset="0.4" stop-color="#4D68A3"/>
            <stop offset="0.7573" stop-color="#5977B7"/>
            <stop offset="1" stop-color="#5D7DBE"/>
        </linearGradient>
        <linearGradient id="paint39_linear" x1="148.067" y1="464.519" x2="203.705" y2="464.519" gradientUnits="userSpaceOnUse">
            <stop stop-color="white"/>
            <stop offset="0.1929" stop-color="#FAFDFF"/>
            <stop offset="0.4222" stop-color="#ECF7FE"/>
            <stop offset="0.6699" stop-color="#D4ECFD"/>
            <stop offset="0.9291" stop-color="#B2DEFB"/>
            <stop offset="1" stop-color="#A8D9FB"/>
        </linearGradient>
        <linearGradient id="paint40_linear" x1="170.903" y1="375.543" x2="159.118" y2="388.05" gradientUnits="userSpaceOnUse">
            <stop stop-color="#667EEA"/>
            <stop offset="1" stop-color="#764BA2"/>
        </linearGradient>
        <linearGradient id="paint41_linear" x1="167.463" y1="369.557" x2="147.684" y2="373.545" gradientUnits="userSpaceOnUse">
            <stop stop-color="#667EEA"/>
            <stop offset="1" stop-color="#764BA2"/>
        </linearGradient>
        <linearGradient id="paint42_linear" x1="160.024" y1="429.271" x2="221.431" y2="450.893" gradientUnits="userSpaceOnUse">
            <stop stop-color="#A8D9FB"/>
            <stop offset="0.0482825" stop-color="#B3DEFC"/>
            <stop offset="0.1892" stop-color="#CFEAFD"/>
            <stop offset="0.342" stop-color="#E4F3FE"/>
            <stop offset="0.5108" stop-color="#F3FAFE"/>
            <stop offset="0.7076" stop-color="#FCFEFF"/>
            <stop offset="1" stop-color="white"/>
        </linearGradient>
        <linearGradient id="paint43_linear" x1="455.71" y1="663.035" x2="611.604" y2="678.281" gradientUnits="userSpaceOnUse">
            <stop stop-color="white"/>
            <stop offset="1" stop-color="#AFC5FF"/>
        </linearGradient>
        <linearGradient id="paint44_linear" x1="348.048" y1="620.007" x2="492.414" y2="638.405" gradientUnits="userSpaceOnUse">
            <stop stop-color="white"/>
            <stop offset="1" stop-color="#B1C6FF"/>
        </linearGradient>
        <linearGradient id="paint45_linear" x1="343.482" y1="752.555" x2="483.233" y2="630.696" gradientUnits="userSpaceOnUse">
            <stop stop-color="white"/>
            <stop offset="1" stop-color="#AFC5FF"/>
        </linearGradient>
        <linearGradient id="paint46_linear" x1="317.577" y1="676.662" x2="418.508" y2="660.333" gradientUnits="userSpaceOnUse">
            <stop stop-color="white"/>
            <stop offset="1" stop-color="#AFC5FF"/>
        </linearGradient>
        <linearGradient id="paint47_linear" x1="537.533" y1="593.009" x2="696.327" y2="593.009" gradientUnits="userSpaceOnUse">
            <stop stop-color="white"/>
            <stop offset="1" stop-color="#B1C6FF"/>
        </linearGradient>
        <linearGradient id="paint48_linear" x1="550.106" y1="548.746" x2="649.148" y2="594.29" gradientUnits="userSpaceOnUse">
            <stop stop-color="white"/>
            <stop offset="1" stop-color="#B1C6FF"/>
        </linearGradient>
    </defs>
</svg>
