<svg width="22" height="22" viewBox="0 0 22 22" fill="none" xmlns="http://www.w3.org/2000/svg">
    <path fill-rule="evenodd" clip-rule="evenodd" d="M11 22C4.934 22 0 17.066 0 11C0 4.934 4.934 0 11 0C17.066 0 22 4.934 22 11C22 17.066 17.066 22 11 22ZM20.277 12.506C19.956 12.404 17.369 11.633 14.424 12.104C15.653 15.481 16.154 18.232 16.25 18.803C18.358 17.378 19.858 15.12 20.277 12.506ZM14.67 19.664C14.531 18.839 13.985 15.966 12.666 12.538C12.645 12.545 12.624 12.552 12.604 12.559C7.304 14.406 5.402 18.081 5.233 18.427C6.826 19.669 8.828 20.41 11 20.41C12.301 20.41 13.542 20.144 14.67 19.664ZM4.019 17.297C4.232 16.932 6.811 12.663 11.657 11.096C11.779 11.057 11.903 11.02 12.027 10.985C11.791 10.451 11.534 9.916 11.265 9.39C6.573 10.794 2.02 10.736 1.609 10.727C1.606 10.823 1.604 10.918 1.604 11.014C1.604 13.428 2.519 15.631 4.019 17.297ZM1.802 9.09C2.223 9.095 6.094 9.112 10.489 7.945C8.932 5.178 7.253 2.851 7.005 2.511C4.377 3.751 2.412 6.174 1.802 9.09ZM8.798 1.879C9.058 2.227 10.764 4.551 12.304 7.38C15.645 6.128 17.059 4.227 17.229 3.986C15.569 2.514 13.387 1.618 11 1.618C10.242 1.618 9.505 1.709 8.798 1.879ZM18.273 5.072C18.075 5.34 16.5 7.359 13.026 8.777C13.245 9.225 13.455 9.68 13.65 10.138C13.719 10.301 13.786 10.462 13.852 10.623C16.979 10.23 20.085 10.86 20.395 10.925C20.374 8.708 19.582 6.671 18.273 5.072Z" fill="#EA4C89"/>
</svg>
