<svg width="24" height="26" viewBox="0 0 24 26" fill="none" xmlns="http://www.w3.org/2000/svg">
    <path fill-rule="evenodd" clip-rule="evenodd" d="M12.217 24.383C10.152 24.383 8.211 23.855 6.523 22.928L0 25.001L2.127 18.728C1.054 16.966 0.436 14.9 0.436 12.691C0.436 6.23302 5.711 0.999023 12.217 0.999023C18.724 0.999023 23.998 6.23302 23.998 12.691C23.998 19.148 18.724 24.383 12.217 24.383ZM12.217 2.95702C6.81 2.95702 2.41 7.32402 2.41 12.691C2.41 14.821 3.104 16.793 4.278 18.398L3.053 22.012L6.821 20.815C8.37 21.831 10.225 22.424 12.217 22.424C17.625 22.424 22.024 18.058 22.024 12.691C22.024 7.32402 17.625 2.95702 12.217 2.95702ZM15.991 18.473C15.439 18.502 15.423 18.901 12.411 17.592C9.399 16.283 7.587 13.1 7.444 12.895C7.301 12.691 6.278 11.232 6.333 9.76302C6.388 8.29502 7.193 7.60202 7.479 7.31402C7.766 7.02502 8.095 6.96202 8.295 6.97002C8.496 6.97702 8.695 7.01002 8.871 7.01602C9.046 7.02302 9.3 6.93302 9.528 7.53902C9.757 8.14602 10.302 9.63702 10.372 9.78902C10.442 9.94102 10.485 10.117 10.378 10.312C10.27 10.508 10.215 10.631 10.058 10.799C9.901 10.968 9.727 11.176 9.587 11.305C9.431 11.448 9.268 11.604 9.432 11.909C9.597 12.214 10.163 13.214 11.027 14.038C12.137 15.097 13.095 15.449 13.389 15.609C13.685 15.77 13.861 15.752 14.044 15.559C14.227 15.366 14.828 14.715 15.04 14.425C15.252 14.134 15.451 14.191 15.723 14.3C15.995 14.41 17.445 15.187 17.741 15.347C18.036 15.508 18.233 15.59 18.304 15.717C18.374 15.845 18.352 16.442 18.075 17.129C17.798 17.817 16.544 18.444 15.991 18.473Z" fill="#43C62D"/>
</svg>
